  0
SECTION
  2
HEADER
  9
$ACADVER
  1
AC1027
  9
$ACADMAINTVER
 70
105
  9
$DWGCODEPAGE
  3
ANSI_1252
  9
$LASTSAVEDBY
  1
ezdxf
  9
$REQUIREDVERSIONS
160
0
  9
$INSBASE
 10
0.0
 20
0.0
 30
0.0
  9
$EXTMIN
 10
1e+20
 20
1e+20
 30
1e+20
  9
$EXTMAX
 10
-1e+20
 20
-1e+20
 30
-1e+20
  9
$LIMMIN
 10
0.0
 20
0.0
  9
$LIMMAX
 10
420.0
 20
297.0
  9
$ORTHOMODE
 70
0
  9
$REGENMODE
 70
1
  9
$FILLMODE
 70
1
  9
$QTEXTMODE
 70
0
  9
$MIRRTEXT
 70
1
  9
$LTSCALE
 40
10.0
  9
$ATTMODE
 70
1
  9
$TEXTSIZE
 40
2.5
  9
$TRACEWID
 40
1.0
  9
$TEXTSTYLE
  7
OpenSans
  9
$CLAYER
  8
0
  9
$CELTYPE
  6
ByLayer
  9
$CECOLOR
 62
256
  9
$CELTSCALE
 40
1.0
  9
$DISPSILH
 70
0
  9
$DIMSCALE
 40
1.0
  9
$DIMASZ
 40
0.175
  9
$DIMEXO
 40
0.125
  9
$DIMDLI
 40
3.75
  9
$DIMRND
 40
0.0
  9
$DIMDLE
 40
0.0
  9
$DIMEXE
 40
0.375
  9
$DIMTP
 40
0.0
  9
$DIMTM
 40
0.0
  9
$DIMTXT
 40
0.25
  9
$DIMCEN
 40
2.5
  9
$DIMTSZ
 40
0.0
  9
$DIMTOL
 70
0
  9
$DIMLIM
 70
0
  9
$DIMTIH
 70
0
  9
$DIMTOH
 70
0
  9
$DIMSE1
 70
0
  9
$DIMSE2
 70
0
  9
$DIMTAD
 70
1
  9
$DIMZIN
 70
12
  9
$DIMBLK
  1
ARCHTICK
  9
$DIMASO
 70
1
  9
$DIMSHO
 70
1
  9
$DIMPOST
  1

  9
$DIMAPOST
  1

  9
$DIMALT
 70
0
  9
$DIMALTD
 70
3
  9
$DIMALTF
 40
0.03937007874
  9
$DIMLFAC
 40
100.0
  9
$DIMTOFL
 70
1
  9
$DIMTVP
 40
0.0
  9
$DIMTIX
 70
0
  9
$DIMSOXD
 70
0
  9
$DIMSAH
 70
0
  9
$DIMBLK1
  1

  9
$DIMBLK2
  1

  9
$DIMSTYLE
  2
EZDXF
  9
$DIMCLRD
 70
0
  9
$DIMCLRE
 70
0
  9
$DIMCLRT
 70
0
  9
$DIMTFAC
 40
0.5
  9
$DIMGAP
 40
0.1
  9
$DIMJUST
 70
0
  9
$DIMSD1
 70
0
  9
$DIMSD2
 70
0
  9
$DIMTOLJ
 70
0
  9
$DIMTZIN
 70
8
  9
$DIMALTZ
 70
0
  9
$DIMALTTZ
 70
0
  9
$DIMUPT
 70
1
  9
$DIMDEC
 70
2
  9
$DIMTDEC
 70
2
  9
$DIMALTU
 70
2
  9
$DIMALTTD
 70
3
  9
$DIMTXSTY
  7
OpenSansCondensed-Light
  9
$DIMAUNIT
 70
0
  9
$DIMADEC
 70
2
  9
$DIMALTRND
 40
0.0
  9
$DIMAZIN
 70
3
  9
$DIMDSEP
 70
46
  9
$DIMATFIT
 70
3
  9
$DIMFRAC
 70
0
  9
$DIMLDRBLK
  1

  9
$DIMLUNIT
 70
2
  9
$DIMLWD
 70
-2
  9
$DIMLWE
 70
-2
  9
$DIMTMOVE
 70
2
  9
$DIMFXL
 40
1.0
  9
$DIMFXLON
 70
0
  9
$DIMJOGANG
 40
0.785398163397
  9
$DIMTFILL
 70
0
  9
$DIMTFILLCLR
 70
0
  9
$DIMARCSYM
 70
0
  9
$DIMLTYPE
  6

  9
$DIMLTEX1
  6

  9
$DIMLTEX2
  6

  9
$DIMTXTDIRECTION
 70
0
  9
$LUNITS
 70
2
  9
$LUPREC
 70
4
  9
$SKETCHINC
 40
1.0
  9
$FILLETRAD
 40
10.0
  9
$AUNITS
 70
0
  9
$AUPREC
 70
2
  9
$MENU
  1
.
  9
$ELEVATION
 40
0.0
  9
$PELEVATION
 40
0.0
  9
$THICKNESS
 40
0.0
  9
$LIMCHECK
 70
0
  9
$CHAMFERA
 40
0.0
  9
$CHAMFERB
 40
0.0
  9
$CHAMFERC
 40
0.0
  9
$CHAMFERD
 40
0.0
  9
$SKPOLY
 70
0
  9
$TDCREATE
 40
2461316.212083333
  9
$TDUCREATE
 40
2458532.153996898
  9
$TDUPDATE
 40
2461316.212083333
  9
$TDUUPDATE
 40
2458532.1544311
  9
$TDINDWG
 40
0.0
  9
$TDUSRTIMER
 40
0.0
  9
$USRTIMER
 70
1
  9
$ANGBASE
 50
0.0
  9
$ANGDIR
 70
0
  9
$PDMODE
 70
0
  9
$PDSIZE
 40
0.0
  9
$PLINEWID
 40
0.0
  9
$SPLFRAME
 70
0
  9
$SPLINETYPE
 70
6
  9
$SPLINESEGS
 70
8
  9
$HANDSEED
  5
216
  9
$SURFTAB1
 70
6
  9
$SURFTAB2
 70
6
  9
$SURFTYPE
 70
6
  9
$SURFU
 70
6
  9
$SURFV
 70
6
  9
$UCSBASE
  2

  9
$UCSNAME
  2

  9
$UCSORG
 10
0.0
 20
0.0
 30
0.0
  9
$UCSXDIR
 10
1.0
 20
0.0
 30
0.0
  9
$UCSYDIR
 10
0.0
 20
1.0
 30
0.0
  9
$UCSORTHOREF
  2

  9
$UCSORTHOVIEW
 70
0
  9
$UCSORGTOP
 10
0.0
 20
0.0
 30
0.0
  9
$UCSORGBOTTOM
 10
0.0
 20
0.0
 30
0.0
  9
$UCSORGLEFT
 10
0.0
 20
0.0
 30
0.0
  9
$UCSORGRIGHT
 10
0.0
 20
0.0
 30
0.0
  9
$UCSORGFRONT
 10
0.0
 20
0.0
 30
0.0
  9
$UCSORGBACK
 10
0.0
 20
0.0
 30
0.0
  9
$PUCSBASE
  2

  9
$PUCSNAME
  2

  9
$PUCSORG
 10
0.0
 20
0.0
 30
0.0
  9
$PUCSXDIR
 10
1.0
 20
0.0
 30
0.0
  9
$PUCSYDIR
 10
0.0
 20
1.0
 30
0.0
  9
$PUCSORTHOREF
  2

  9
$PUCSORTHOVIEW
 70
0
  9
$PUCSORGTOP
 10
0.0
 20
0.0
 30
0.0
  9
$PUCSORGBOTTOM
 10
0.0
 20
0.0
 30
0.0
  9
$PUCSORGLEFT
 10
0.0
 20
0.0
 30
0.0
  9
$PUCSORGRIGHT
 10
0.0
 20
0.0
 30
0.0
  9
$PUCSORGFRONT
 10
0.0
 20
0.0
 30
0.0
  9
$PUCSORGBACK
 10
0.0
 20
0.0
 30
0.0
  9
$USERI1
 70
0
  9
$USERI2
 70
0
  9
$USERI3
 70
0
  9
$USERI4
 70
0
  9
$USERI5
 70
0
  9
$USERR1
 40
0.0
  9
$USERR2
 40
0.0
  9
$USERR3
 40
0.0
  9
$USERR4
 40
0.0
  9
$USERR5
 40
0.0
  9
$WORLDVIEW
 70
1
  9
$SHADEDGE
 70
3
  9
$SHADEDIF
 70
70
  9
$TILEMODE
 70
1
  9
$MAXACTVP
 70
64
  9
$PINSBASE
 10
0.0
 20
0.0
 30
0.0
  9
$PLIMCHECK
 70
0
  9
$PEXTMIN
 10
1e+20
 20
1e+20
 30
1e+20
  9
$PEXTMAX
 10
-1e+20
 20
-1e+20
 30
-1e+20
  9
$PLIMMIN
 10
0.0
 20
0.0
  9
$PLIMMAX
 10
420.0
 20
297.0
  9
$UNITMODE
 70
0
  9
$VISRETAIN
 70
1
  9
$PLINEGEN
 70
0
  9
$PSLTSCALE
 70
1
  9
$TREEDEPTH
 70
3020
  9
$CMLSTYLE
  2
Standard
  9
$CMLJUST
 70
0
  9
$CMLSCALE
 40
20.0
  9
$PROXYGRAPHICS
 70
1
  9
$MEASUREMENT
 70
1
  9
$CELWEIGHT
370
-1
  9
$ENDCAPS
280
0
  9
$JOINSTYLE
280
0
  9
$LWDISPLAY
290
0
  9
$INSUNITS
 70
4
  9
$HYPERLINKBASE
  1

  9
$STYLESHEET
  1

  9
$XEDIT
290
1
  9
$CEPSNTYPE
380
0
  9
$PSTYLEMODE
290
1
  9
$FINGERPRINTGUID
  2
{3C30CEE5-F06A-4F6D-9A87-FBE3D42E4450}
  9
$VERSIONGUID
  2
{69156868-A572-4284-837D-6A41563AC730}
  9
$EXTNAMES
290
1
  9
$PSVPSCALE
 40
0.0
  9
$OLESTARTUP
290
0
  9
$SORTENTS
280
127
  9
$INDEXCTL
280
0
  9
$HIDETEXT
280
1
  9
$XCLIPFRAME
280
1
  9
$HALOGAP
280
0
  9
$OBSCOLOR
 70
257
  9
$OBSLTYPE
280
0
  9
$INTERSECTIONDISPLAY
280
0
  9
$INTERSECTIONCOLOR
 70
257
  9
$DIMASSOC
280
2
  9
$PROJECTNAME
  1

  9
$CAMERADISPLAY
290
0
  9
$LENSLENGTH
 40
50.0
  9
$CAMERAHEIGHT
 40
0.0
  9
$STEPSPERSEC
 40
24.0
  9
$STEPSIZE
 40
100.0
  9
$3DDWFPREC
 40
2.0
  9
$PSOLWIDTH
 40
0.005
  9
$PSOLHEIGHT
 40
0.08
  9
$LOFTANG1
 40
1.570796326795
  9
$LOFTANG2
 40
1.570796326795
  9
$LOFTMAG1
 40
0.0
  9
$LOFTMAG2
 40
0.0
  9
$LOFTPARAM
 70
7
  9
$LOFTNORMALS
280
1
  9
$LATITUDE
 40
37.795
  9
$LONGITUDE
 40
-122.394
  9
$NORTHDIRECTION
 40
0.0
  9
$TIMEZONE
 70
-8000
  9
$LIGHTGLYPHDISPLAY
280
1
  9
$TILEMODELIGHTSYNCH
280
1
  9
$CMATERIAL
347
20
  9
$SOLIDHIST
280
0
  9
$SHOWHIST
280
1
  9
$DWFFRAME
280
2
  9
$DGNFRAME
280
2
  9
$REALWORLDSCALE
290
1
  9
$INTERFERECOLOR
 62
256
  9
$CSHADOW
280
0
  9
$SHADOWPLANELOCATION
 40
0.0
  0
ENDSEC
  0
SECTION
  2
CLASSES
  0
CLASS
  1
ACDBDICTIONARYWDFLT
  2
AcDbDictionaryWithDefault
  3
ObjectDBX Classes
 90
0
 91
0
280
0
281
0
  0
CLASS
  1
SUN
  2
AcDbSun
  3
SCENEOE
 90
1153
 91
0
280
0
281
0
  0
CLASS
  1
VISUALSTYLE
  2
AcDbVisualStyle
  3
ObjectDBX Classes
 90
4095
 91
0
280
0
281
0
  0
CLASS
  1
MATERIAL
  2
AcDbMaterial
  3
ObjectDBX Classes
 90
1153
 91
0
280
0
281
0
  0
CLASS
  1
SCALE
  2
AcDbScale
  3
ObjectDBX Classes
 90
1153
 91
0
280
0
281
0
  0
CLASS
  1
TABLESTYLE
  2
AcDbTableStyle
  3
ObjectDBX Classes
 90
4095
 91
0
280
0
281
0
  0
CLASS
  1
MLEADERSTYLE
  2
AcDbMLeaderStyle
  3
ACDB_MLEADERSTYLE_CLASS
 90
4095
 91
0
280
0
281
0
  0
CLASS
  1
DICTIONARYVAR
  2
AcDbDictionaryVar
  3
ObjectDBX Classes
 90
0
 91
0
280
0
281
0
  0
CLASS
  1
CELLSTYLEMAP
  2
AcDbCellStyleMap
  3
ObjectDBX Classes
 90
1152
 91
0
280
0
281
0
  0
CLASS
  1
MENTALRAYRENDERSETTINGS
  2
AcDbMentalRayRenderSettings
  3
SCENEOE
 90
1024
 91
0
280
0
281
0
  0
CLASS
  1
ACDBDETAILVIEWSTYLE
  2
AcDbDetailViewStyle
  3
ObjectDBX Classes
 90
1025
 91
0
280
0
281
0
  0
CLASS
  1
ACDBSECTIONVIEWSTYLE
  2
AcDbSectionViewStyle
  3
ObjectDBX Classes
 90
1025
 91
0
280
0
281
0
  0
CLASS
  1
RASTERVARIABLES
  2
AcDbRasterVariables
  3
ISM
 90
0
 91
0
280
0
281
0
  0
CLASS
  1
LAYOUT
  2
AcDbLayout
  3
ObjectDBX Classes
 90
0
 91
0
280
0
281
0
  0
CLASS
  1
ACDBPLACEHOLDER
  2
AcDbPlaceHolder
  3
ObjectDBX Classes
 90
0
 91
0
280
0
281
0
  0
ENDSEC
  0
SECTION
  2
TABLES
  0
TABLE
  2
VPORT
  5
8
330
0
100
AcDbSymbolTable
 70
1
  0
VPORT
  5
23
330
8
100
AcDbSymbolTableRecord
100
AcDbViewportTableRecord
  2
*Active
 70
0
 10
0.0
 20
0.0
 11
1.0
 21
1.0
 12
0.0
 22
0.0
 13
0.0
 23
0.0
 14
0.5
 24
0.5
 15
0.5
 25
0.5
 16
0.0
 26
0.0
 36
1.0
 17
0.0
 27
0.0
 37
0.0
 40
1000.0
 41
1.34
 42
50.0
 43
0.0
 44
0.0
 50
0.0
 51
0.0
 71
0
 72
1000
 73
1
 74
3
 75
0
 76
0
 77
0
 78
0
281
0
 65
0
146
0.0
  0
ENDTAB
  0
TABLE
  2
LTYPE
  5
2
330
0
100
AcDbSymbolTable
 70
21
  0
LTYPE
  5
24
330
2
100
AcDbSymbolTableRecord
100
AcDbLinetypeTableRecord
  2
ByBlock
 70
0
  3

 72
65
 73
0
 40
0.0
  0
LTYPE
  5
25
330
2
100
AcDbSymbolTableRecord
100
AcDbLinetypeTableRecord
  2
ByLayer
 70
0
  3

 72
65
 73
0
 40
0.0
  0
LTYPE
  5
26
330
2
100
AcDbSymbolTableRecord
100
AcDbLinetypeTableRecord
  2
Continuous
 70
0
  3

 72
65
 73
0
 40
0.0
  0
LTYPE
  5
2F
330
2
100
AcDbSymbolTableRecord
100
AcDbLinetypeTableRecord
  2
CENTER
 70
0
  3
Center ____ _ ____ _ ____ _ ____ _ ____ _ ____
 72
65
 73
4
 40
5.08
 49
3.175
 74
0
 49
-0.635
 74
0
 49
0.635
 74
0
 49
-0.635
 74
0
  0
LTYPE
  5
30
330
2
100
AcDbSymbolTableRecord
100
AcDbLinetypeTableRecord
  2
CENTERX2
 70
0
  3
Center (2x) ________  __  ________  __  ________
 72
65
 73
4
 40
8.89
 49
6.35
 74
0
 49
-0.635
 74
0
 49
1.27
 74
0
 49
-0.635
 74
0
  0
LTYPE
  5
31
330
2
100
AcDbSymbolTableRecord
100
AcDbLinetypeTableRecord
  2
CENTER2
 70
0
  3
Center (.5x) ____ _ ____ _ ____ _ ____ _ ____
 72
65
 73
4
 40
2.54
 49
1.587
 74
0
 49
-0.318
 74
0
 49
0.318
 74
0
 49
-0.318
 74
0
  0
LTYPE
  5
32
330
2
100
AcDbSymbolTableRecord
100
AcDbLinetypeTableRecord
  2
DASHED
 70
0
  3
Dashed __ __ __ __ __ __ __ __ __ __ __ __ __ _
 72
65
 73
2
 40
1.524
 49
1.27
 74
0
 49
-0.254
 74
0
  0
LTYPE
  5
33
330
2
100
AcDbSymbolTableRecord
100
AcDbLinetypeTableRecord
  2
DASHEDX2
 70
0
  3
Dashed (2x) ____  ____  ____  ____  ____  ____
 72
65
 73
2
 40
3.048
 49
2.54
 74
0
 49
-0.508
 74
0
  0
LTYPE
  5
34
330
2
100
AcDbSymbolTableRecord
100
AcDbLinetypeTableRecord
  2
DASHED2
 70
0
  3
Dashed (.5x) _ _ _ _ _ _ _ _ _ _ _ _ _ _
 72
65
 73
2
 40
0.762
 49
0.635
 74
0
 49
-0.127
 74
0
  0
LTYPE
  5
35
330
2
100
AcDbSymbolTableRecord
100
AcDbLinetypeTableRecord
  2
PHANTOM
 70
0
  3
Phantom ______  __  __  ______  __  __  ______
 72
65
 73
6
 40
6.35
 49
3.175
 74
0
 49
-0.635
 74
0
 49
0.635
 74
0
 49
-0.635
 74
0
 49
0.635
 74
0
 49
-0.635
 74
0
  0
LTYPE
  5
36
330
2
100
AcDbSymbolTableRecord
100
AcDbLinetypeTableRecord
  2
PHANTOMX2
 70
0
  3
Phantom (2x)____________    ____    ____    ____________
 72
65
 73
6
 40
10.795
 49
6.35
 74
0
 49
-0.635
 74
0
 49
1.27
 74
0
 49
-0.635
 74
0
 49
1.27
 74
0
 49
-0.635
 74
0
  0
LTYPE
  5
37
330
2
100
AcDbSymbolTableRecord
100
AcDbLinetypeTableRecord
  2
PHANTOM2
 70
0
  3
Phantom (.5x) ___ _ _ ___ _ _ ___ _ _ ___ _ _ ___
 72
65
 73
6
 40
3.175
 49
1.587
 74
0
 49
-0.318
 74
0
 49
0.318
 74
0
 49
-0.318
 74
0
 49
0.318
 74
0
 49
-0.318
 74
0
  0
LTYPE
  5
38
330
2
100
AcDbSymbolTableRecord
100
AcDbLinetypeTableRecord
  2
DASHDOT
 70
0
  3
Dash dot __ . __ . __ . __ . __ . __ . __ . __
 72
65
 73
4
 40
3.556
 49
2.54
 74
0
 49
-0.508
 74
0
 49
0.0
 74
0
 49
-0.508
 74
0
  0
LTYPE
  5
39
330
2
100
AcDbSymbolTableRecord
100
AcDbLinetypeTableRecord
  2
DASHDOTX2
 70
0
  3
Dash dot (2x) ____  .  ____  .  ____  .  ____
 72
65
 73
4
 40
6.096
 49
5.08
 74
0
 49
-0.508
 74
0
 49
0.0
 74
0
 49
-0.508
 74
0
  0
LTYPE
  5
3A
330
2
100
AcDbSymbolTableRecord
100
AcDbLinetypeTableRecord
  2
DASHDOT2
 70
0
  3
Dash dot (.5x) _ . _ . _ . _ . _ . _ . _ . _
 72
65
 73
4
 40
1.778
 49
1.27
 74
0
 49
-0.254
 74
0
 49
0.0
 74
0
 49
-0.254
 74
0
  0
LTYPE
  5
3B
330
2
100
AcDbSymbolTableRecord
100
AcDbLinetypeTableRecord
  2
DOT
 70
0
  3
Dot .  .  .  .  .  .  .  .  .  .  .  .  .  .  .  .
 72
65
 73
2
 40
0.508
 49
0.0
 74
0
 49
-0.508
 74
0
  0
LTYPE
  5
3C
330
2
100
AcDbSymbolTableRecord
100
AcDbLinetypeTableRecord
  2
DOTX2
 70
0
  3
Dot (2x) .    .    .    .    .    .    .    . 
 72
65
 73
2
 40
1.016
 49
0.0
 74
0
 49
-1.016
 74
0
  0
LTYPE
  5
3D
330
2
100
AcDbSymbolTableRecord
100
AcDbLinetypeTableRecord
  2
DOT2
 70
0
  3
Dot (.5) . . . . . . . . . . . . . . . . . . . 
 72
65
 73
2
 40
0.254
 49
0.0
 74
0
 49
-0.254
 74
0
  0
LTYPE
  5
3E
330
2
100
AcDbSymbolTableRecord
100
AcDbLinetypeTableRecord
  2
DIVIDE
 70
0
  3
Divide __ . . __ . . __ . . __ . . __ . . __
 72
65
 73
6
 40
4.064
 49
2.54
 74
0
 49
-0.508
 74
0
 49
0.0
 74
0
 49
-0.508
 74
0
 49
0.0
 74
0
 49
-0.508
 74
0
  0
LTYPE
  5
3F
330
2
100
AcDbSymbolTableRecord
100
AcDbLinetypeTableRecord
  2
DIVIDEX2
 70
0
  3
Divide (2x) ____  . .  ____  . .  ____  . .  ____
 72
65
 73
6
 40
6.604
 49
5.08
 74
0
 49
-0.508
 74
0
 49
0.0
 74
0
 49
-0.508
 74
0
 49
0.0
 74
0
 49
-0.508
 74
0
  0
LTYPE
  5
40
330
2
100
AcDbSymbolTableRecord
100
AcDbLinetypeTableRecord
  2
DIVIDE2
 70
0
  3
Divide(.5x) _ . _ . _ . _ . _ . _ . _ . _
 72
65
 73
6
 40
2.032
 49
1.27
 74
0
 49
-0.254
 74
0
 49
0.0
 74
0
 49
-0.254
 74
0
 49
0.0
 74
0
 49
-0.254
 74
0
  0
ENDTAB
  0
TABLE
  2
LAYER
  5
1
330
0
100
AcDbSymbolTable
 70
19
  0
LAYER
  5
27
330
1
100
AcDbSymbolTableRecord
100
AcDbLayerTableRecord
  2
0
 70
0
 62
7
  6
Continuous
370
-3
390
13
347
21
  0
LAYER
  5
28
330
1
100
AcDbSymbolTableRecord
100
AcDbLayerTableRecord
  2
Defpoints
 70
0
 62
7
  6
Continuous
290
0
370
-3
390
13
347
21
  0
LAYER
  5
8B
330
1
100
AcDbSymbolTableRecord
100
AcDbLayerTableRecord
  2
PAVE-OUTLINE
 70
0
 62
7
  6
Continuous
370
-3
390
13
347
21
  0
LAYER
  5
8C
330
1
100
AcDbSymbolTableRecord
100
AcDbLayerTableRecord
  2
PAVE-ANNO
 70
0
 62
2
  6
Continuous
370
-3
390
13
347
21
  0
LAYER
  5
8D
330
1
100
AcDbSymbolTableRecord
100
AcDbLayerTableRecord
  2
PAVE-DIM
 70
0
 62
3
  6
Continuous
370
-3
390
13
347
21
  0
LAYER
  5
8E
330
1
100
AcDbSymbolTableRecord
100
AcDbLayerTableRecord
  2
PAVE-TITLE
 70
0
 62
1
  6
Continuous
370
-3
390
13
347
21
  0
LAYER
  5
8F
330
1
100
AcDbSymbolTableRecord
100
AcDbLayerTableRecord
  2
PAVE-BREAK
 70
0
 62
7
  6
Continuous
370
-3
390
13
347
21
  0
LAYER
  5
90
330
1
100
AcDbSymbolTableRecord
100
AcDbLayerTableRecord
  2
PAVE-VOID
 70
0
 62
8
  6
Continuous
370
-3
390
13
347
21
  0
LAYER
  5
91
330
1
100
AcDbSymbolTableRecord
100
AcDbLayerTableRecord
  2
PAVE-PAVER
 70
0
 62
1
  6
Continuous
370
-3
390
13
347
21
  0
LAYER
  5
92
330
1
100
AcDbSymbolTableRecord
100
AcDbLayerTableRecord
  2
PAVE-MORTAR
 70
0
 62
8
  6
Continuous
370
-3
390
13
347
21
  0
LAYER
  5
93
330
1
100
AcDbSymbolTableRecord
100
AcDbLayerTableRecord
  2
PAVE-SCREED
 70
0
 62
9
  6
Continuous
370
-3
390
13
347
21
  0
LAYER
  5
94
330
1
100
AcDbSymbolTableRecord
100
AcDbLayerTableRecord
  2
PAVE-SAND
 70
0
 62
42
  6
Continuous
370
-3
390
13
347
21
  0
LAYER
  5
95
330
1
100
AcDbSymbolTableRecord
100
AcDbLayerTableRecord
  2
PAVE-CONC
 70
0
 62
8
  6
Continuous
370
-3
390
13
347
21
  0
LAYER
  5
96
330
1
100
AcDbSymbolTableRecord
100
AcDbLayerTableRecord
  2
PAVE-ASPHALT
 70
0
 62
250
  6
Continuous
370
-3
390
13
347
21
  0
LAYER
  5
97
330
1
100
AcDbSymbolTableRecord
100
AcDbLayerTableRecord
  2
PAVE-ROADBASE
 70
0
 62
8
  6
Continuous
370
-3
390
13
347
21
  0
LAYER
  5
98
330
1
100
AcDbSymbolTableRecord
100
AcDbLayerTableRecord
  2
PAVE-SUBBASE
 70
0
 62
33
  6
Continuous
370
-3
390
13
347
21
  0
LAYER
  5
99
330
1
100
AcDbSymbolTableRecord
100
AcDbLayerTableRecord
  2
PAVE-GRAVEL
 70
0
 62
33
  6
Continuous
370
-3
390
13
347
21
  0
LAYER
  5
9A
330
1
100
AcDbSymbolTableRecord
100
AcDbLayerTableRecord
  2
PAVE-SUBGRADE
 70
0
 62
8
  6
Continuous
370
-3
390
13
347
21
  0
LAYER
  5
9B
330
1
100
AcDbSymbolTableRecord
100
AcDbLayerTableRecord
  2
PAVE-SOIL
 70
0
 62
52
  6
Continuous
370
-3
390
13
347
21
  0
ENDTAB
  0
TABLE
  2
STYLE
  5
5
330
0
100
AcDbSymbolTable
 70
27
  0
STYLE
  5
29
330
5
100
AcDbSymbolTableRecord
100
AcDbTextStyleTableRecord
  2
Standard
 70
0
 40
0.0
 41
1.0
 50
0.0
 71
0
 42
2.5
  3
txt
  4

  0
STYLE
  5
41
330
5
100
AcDbSymbolTableRecord
100
AcDbTextStyleTableRecord
  2
OpenSans-Light
 70
0
 40
0.0
 41
1.0
 50
0.0
 71
0
 42
2.5
  3
OpenSans-Light.ttf
  4

  0
STYLE
  5
42
330
5
100
AcDbSymbolTableRecord
100
AcDbTextStyleTableRecord
  2
OpenSans-Light-Italic
 70
0
 40
0.0
 41
1.0
 50
0.0
 71
0
 42
2.5
  3
OpenSans-LightItalic.ttf
  4

  0
STYLE
  5
43
330
5
100
AcDbSymbolTableRecord
100
AcDbTextStyleTableRecord
  2
OpenSans
 70
0
 40
0.0
 41
1.0
 50
0.0
 71
0
 42
2.5
  3
OpenSans-Regular.ttf
  4

  0
STYLE
  5
44
330
5
100
AcDbSymbolTableRecord
100
AcDbTextStyleTableRecord
  2
OpenSans-Italic
 70
0
 40
0.0
 41
1.0
 50
0.0
 71
0
 42
2.5
  3
OpenSans-Italic.ttf
  4

  0
STYLE
  5
45
330
5
100
AcDbSymbolTableRecord
100
AcDbTextStyleTableRecord
  2
OpenSans-SemiBold
 70
0
 40
0.0
 41
1.0
 50
0.0
 71
0
 42
2.5
  3
OpenSans-SemiBold.ttf
  4

  0
STYLE
  5
46
330
5
100
AcDbSymbolTableRecord
100
AcDbTextStyleTableRecord
  2
OpenSans-SemiBoldItalic
 70
0
 40
0.0
 41
1.0
 50
0.0
 71
0
 42
2.5
  3
OpenSans-SemiBoldItalic.ttf
  4

  0
STYLE
  5
47
330
5
100
AcDbSymbolTableRecord
100
AcDbTextStyleTableRecord
  2
OpenSans-Bold
 70
0
 40
0.0
 41
1.0
 50
0.0
 71
0
 42
2.5
  3
OpenSans-Bold.ttf
  4

  0
STYLE
  5
48
330
5
100
AcDbSymbolTableRecord
100
AcDbTextStyleTableRecord
  2
OpenSans-BoldItalic
 70
0
 40
0.0
 41
1.0
 50
0.0
 71
0
 42
2.5
  3
OpenSans-BoldItalic.ttf
  4

  0
STYLE
  5
49
330
5
100
AcDbSymbolTableRecord
100
AcDbTextStyleTableRecord
  2
OpenSans-ExtraBold
 70
0
 40
0.0
 41
1.0
 50
0.0
 71
0
 42
2.5
  3
OpenSans-ExtraBold.ttf
  4

  0
STYLE
  5
4A
330
5
100
AcDbSymbolTableRecord
100
AcDbTextStyleTableRecord
  2
OpenSans-ExtraBoldItalic
 70
0
 40
0.0
 41
1.0
 50
0.0
 71
0
 42
2.5
  3
OpenSans-ExtraBoldItalic.ttf
  4

  0
STYLE
  5
4B
330
5
100
AcDbSymbolTableRecord
100
AcDbTextStyleTableRecord
  2
OpenSansCondensed-Bold
 70
0
 40
0.0
 41
1.0
 50
0.0
 71
0
 42
2.5
  3
OpenSansCondensed-Bold.ttf
  4

  0
STYLE
  5
4C
330
5
100
AcDbSymbolTableRecord
100
AcDbTextStyleTableRecord
  2
OpenSansCondensed-Light
 70
0
 40
0.0
 41
1.0
 50
0.0
 71
0
 42
2.5
  3
OpenSansCondensed-Light.ttf
  4

  0
STYLE
  5
4D
330
5
100
AcDbSymbolTableRecord
100
AcDbTextStyleTableRecord
  2
OpenSansCondensed-Italic
 70
0
 40
0.0
 41
1.0
 50
0.0
 71
0
 42
2.5
  3
OpenSansCondensed-LightItalic.ttf
  4

  0
STYLE
  5
4E
330
5
100
AcDbSymbolTableRecord
100
AcDbTextStyleTableRecord
  2
LiberationSans
 70
0
 40
0.0
 41
1.0
 50
0.0
 71
0
 42
2.5
  3
LiberationSans-Regular.ttf
  4

  0
STYLE
  5
4F
330
5
100
AcDbSymbolTableRecord
100
AcDbTextStyleTableRecord
  2
LiberationSans-Bold
 70
0
 40
0.0
 41
1.0
 50
0.0
 71
0
 42
2.5
  3
LiberationSans-Bold.ttf
  4

  0
STYLE
  5
50
330
5
100
AcDbSymbolTableRecord
100
AcDbTextStyleTableRecord
  2
LiberationSans-BoldItalic
 70
0
 40
0.0
 41
1.0
 50
0.0
 71
0
 42
2.5
  3
LiberationSans-BoldItalic.ttf
  4

  0
STYLE
  5
51
330
5
100
AcDbSymbolTableRecord
100
AcDbTextStyleTableRecord
  2
LiberationSans-Italic
 70
0
 40
0.0
 41
1.0
 50
0.0
 71
0
 42
2.5
  3
LiberationSans-Italic.ttf
  4

  0
STYLE
  5
52
330
5
100
AcDbSymbolTableRecord
100
AcDbTextStyleTableRecord
  2
LiberationSerif
 70
0
 40
0.0
 41
1.0
 50
0.0
 71
0
 42
2.5
  3
LiberationSerif-Regular.ttf
  4

  0
STYLE
  5
53
330
5
100
AcDbSymbolTableRecord
100
AcDbTextStyleTableRecord
  2
LiberationSerif-Bold
 70
0
 40
0.0
 41
1.0
 50
0.0
 71
0
 42
2.5
  3
LiberationSerif-Bold.ttf
  4

  0
STYLE
  5
54
330
5
100
AcDbSymbolTableRecord
100
AcDbTextStyleTableRecord
  2
LiberationSerif-BoldItalic
 70
0
 40
0.0
 41
1.0
 50
0.0
 71
0
 42
2.5
  3
LiberationSerif-BoldItalic.ttf
  4

  0
STYLE
  5
55
330
5
100
AcDbSymbolTableRecord
100
AcDbTextStyleTableRecord
  2
LiberationSerif-Italic
 70
0
 40
0.0
 41
1.0
 50
0.0
 71
0
 42
2.5
  3
LiberationSerif-Italic.ttf
  4

  0
STYLE
  5
56
330
5
100
AcDbSymbolTableRecord
100
AcDbTextStyleTableRecord
  2
LiberationMono
 70
0
 40
0.0
 41
1.0
 50
0.0
 71
0
 42
2.5
  3
LiberationMono-Regular.ttf
  4

  0
STYLE
  5
57
330
5
100
AcDbSymbolTableRecord
100
AcDbTextStyleTableRecord
  2
LiberationMono-Bold
 70
0
 40
0.0
 41
1.0
 50
0.0
 71
0
 42
2.5
  3
LiberationMono-Bold.ttf
  4

  0
STYLE
  5
58
330
5
100
AcDbSymbolTableRecord
100
AcDbTextStyleTableRecord
  2
LiberationMono-BoldItalic
 70
0
 40
0.0
 41
1.0
 50
0.0
 71
0
 42
2.5
  3
LiberationMono-BoldItalic.ttf
  4

  0
STYLE
  5
59
330
5
100
AcDbSymbolTableRecord
100
AcDbTextStyleTableRecord
  2
LiberationMono-Italic
 70
0
 40
0.0
 41
1.0
 50
0.0
 71
0
 42
2.5
  3
LiberationMono-Italic.ttf
  4

  0
STYLE
  5
8A
330
5
100
AcDbSymbolTableRecord
100
AcDbTextStyleTableRecord
  2
PAVE-TEXT
 70
0
 40
0.0
 41
1.0
 50
0.0
 71
0
 42
2.5
  3
arial.ttf
  4

  0
ENDTAB
  0
TABLE
  2
VIEW
  5
7
330
0
100
AcDbSymbolTable
 70
0
  0
ENDTAB
  0
TABLE
  2
UCS
  5
6
330
0
100
AcDbSymbolTable
 70
0
  0
ENDTAB
  0
TABLE
  2
APPID
  5
3
330
0
100
AcDbSymbolTable
 70
3
  0
APPID
  5
2A
330
3
100
AcDbSymbolTableRecord
100
AcDbRegAppTableRecord
  2
ACAD
 70
0
  0
APPID
  5
213
330
3
100
AcDbSymbolTableRecord
100
AcDbRegAppTableRecord
  2
HATCHBACKGROUNDCOLOR
 70
0
  0
APPID
  5
214
330
3
100
AcDbSymbolTableRecord
100
AcDbRegAppTableRecord
  2
EZDXF
 70
0
  0
ENDTAB
  0
TABLE
  2
DIMSTYLE
  5
4
330
0
100
AcDbSymbolTable
 70
12
100
AcDbDimStyleTable
  0
DIMSTYLE
105
2B
330
4
100
AcDbSymbolTableRecord
100
AcDbDimStyleTableRecord
  2
Standard
 70
0
 40
1.0
 41
2.5
 42
0.625
 43
3.75
 44
1.25
 45
0.0
 46
0.0
 47
0.0
 48
0.0
 49
2.5
140
2.5
141
2.5
142
0.0
143
0.03937007874
144
1.0
145
0.0
146
1.0
147
0.625
148
0.0
 69
0
 70
0
 71
0
 72
0
 73
0
 74
0
 75
0
 76
0
 77
1
 78
8
 79
3
170
0
171
3
172
1
173
0
174
0
175
0
176
0
177
0
178
0
179
2
271
2
272
2
273
2
274
3
275
0
276
0
277
2
278
44
279
0
280
0
281
0
282
0
283
0
284
8
285
0
286
0
288
0
289
3
290
0
371
-2
372
-2
  0
DIMSTYLE
105
73
330
4
100
AcDbSymbolTableRecord
100
AcDbDimStyleTableRecord
  2
EZDXF
 70
0
 40
1.0
 41
0.175
 42
0.125
 43
3.75
 44
0.375
 45
0.0
 46
0.0
 47
0.0
 48
0.0
 49
2.5
140
0.25
141
2.5
142
0.0
143
0.03937007874
144
100.0
145
0.0
146
0.5
147
0.1
148
0.0
 69
0
 70
0
 71
0
 72
0
 73
0
 74
0
 75
0
 76
0
 77
1
 78
12
 79
3
170
0
171
3
172
1
173
0
174
0
175
0
176
0
177
0
178
0
179
2
271
2
272
2
273
2
274
3
275
0
276
0
277
2
278
46
279
2
280
0
281
0
282
0
283
0
284
8
285
0
286
0
288
1
289
3
290
0
340
4C
342
74
371
-2
372
-2
  0
DIMSTYLE
105
7C
330
4
100
AcDbSymbolTableRecord
100
AcDbDimStyleTableRecord
  2
EZ_M_100_H25_CM
 70
0
 40
1.0
 41
0.25
 42
0.125
 43
3.75
 44
0.375
 45
0.0
 46
0.0
 47
0.0
 48
0.0
 49
2.5
140
0.25
141
2.5
142
0.125
143
0.03937007874
144
100.0
145
0.0
146
0.5
147
0.1
148
0.0
 69
0
 70
0
 71
0
 72
0
 73
0
 74
0
 75
0
 76
0
 77
1
 78
12
 79
3
170
0
171
3
172
1
173
0
174
0
175
0
176
0
177
0
178
0
179
2
271
2
272
2
273
2
274
3
275
0
276
0
277
2
278
46
279
2
280
0
281
0
282
0
283
0
284
8
285
0
286
0
288
1
289
3
290
0
340
4C
371
-2
372
-2
  0
DIMSTYLE
105
7D
330
4
100
AcDbSymbolTableRecord
100
AcDbDimStyleTableRecord
  2
EZ_M_50_H25_CM
 70
0
 40
1.0
 41
0.125
 42
0.0625
 43
3.75
 44
0.1875
 45
0.0
 46
0.0
 47
0.0
 48
0.0
 49
2.5
140
0.125
141
2.5
142
0.0625
143
0.03937007874
144
100.0
145
0.0
146
0.5
147
0.05
148
0.0
 69
0
 70
0
 71
0
 72
0
 73
0
 74
0
 75
0
 76
0
 77
1
 78
12
 79
3
170
0
171
3
172
1
173
0
174
0
175
0
176
0
177
0
178
0
179
2
271
2
272
2
273
2
274
3
275
0
276
0
277
2
278
46
279
2
280
0
281
0
282
0
283
0
284
8
285
0
286
0
288
1
289
3
290
0
340
4C
371
-2
372
-2
  0
DIMSTYLE
105
7E
330
4
100
AcDbSymbolTableRecord
100
AcDbDimStyleTableRecord
  2
EZ_M_25_H25_CM
 70
0
 40
1.0
 41
0.0625
 42
0.03125
 43
3.75
 44
0.09375
 45
0.0
 46
0.0
 47
0.0
 48
0.0
 49
2.5
140
0.0625
141
2.5
142
0.03125
143
0.03937007874
144
100.0
145
0.0
146
0.5
147
0.025
148
0.0
 69
0
 70
0
 71
0
 72
0
 73
0
 74
0
 75
0
 76
0
 77
1
 78
12
 79
3
170
0
171
3
172
1
173
0
174
0
175
0
176
0
177
0
178
0
179
2
271
2
272
2
273
2
274
3
275
0
276
0
277
2
278
46
279
2
280
0
281
0
282
0
283
0
284
8
285
0
286
0
288
1
289
3
290
0
340
4C
371
-2
372
-2
  0
DIMSTYLE
105
7F
330
4
100
AcDbSymbolTableRecord
100
AcDbDimStyleTableRecord
  2
EZ_M_20_H25_CM
 70
0
 40
1.0
 41
0.05
 42
0.025
 43
3.75
 44
0.07500000000000001
 45
0.0
 46
0.0
 47
0.0
 48
0.0
 49
2.5
140
0.05
141
2.5
142
0.025
143
0.03937007874
144
100.0
145
0.0
146
0.5
147
0.020000000000000004
148
0.0
 69
0
 70
0
 71
0
 72
0
 73
0
 74
0
 75
0
 76
0
 77
1
 78
12
 79
3
170
0
171
3
172
1
173
0
174
0
175
0
176
0
177
0
178
0
179
2
271
2
272
2
273
2
274
3
275
0
276
0
277
2
278
46
279
2
280
0
281
0
282
0
283
0
284
8
285
0
286
0
288
1
289
3
290
0
340
4C
371
-2
372
-2
  0
DIMSTYLE
105
80
330
4
100
AcDbSymbolTableRecord
100
AcDbDimStyleTableRecord
  2
EZ_M_10_H25_CM
 70
0
 40
1.0
 41
0.025
 42
0.0125
 43
3.75
 44
0.037500000000000006
 45
0.0
 46
0.0
 47
0.0
 48
0.0
 49
2.5
140
0.025
141
2.5
142
0.0125
143
0.03937007874
144
100.0
145
0.0
146
0.5
147
0.010000000000000002
148
0.0
 69
0
 70
0
 71
0
 72
0
 73
0
 74
0
 75
0
 76
0
 77
1
 78
12
 79
3
170
0
171
3
172
1
173
0
174
0
175
0
176
0
177
0
178
0
179
2
271
2
272
2
273
2
274
3
275
0
276
0
277
2
278
46
279
2
280
0
281
0
282
0
283
0
284
8
285
0
286
0
288
1
289
3
290
0
340
4C
371
-2
372
-2
  0
DIMSTYLE
105
81
330
4
100
AcDbSymbolTableRecord
100
AcDbDimStyleTableRecord
  2
EZ_M_5_H25_CM
 70
0
 40
1.0
 41
0.0125
 42
0.00625
 43
3.75
 44
0.018750000000000003
 45
0.0
 46
0.0
 47
0.0
 48
0.0
 49
2.5
140
0.0125
141
2.5
142
0.00625
143
0.03937007874
144
100.0
145
0.0
146
0.5
147
0.005000000000000001
148
0.0
 69
0
 70
0
 71
0
 72
0
 73
0
 74
0
 75
0
 76
0
 77
1
 78
12
 79
3
170
0
171
3
172
1
173
0
174
0
175
0
176
0
177
0
178
0
179
2
271
2
272
2
273
2
274
3
275
0
276
0
277
2
278
46
279
2
280
0
281
0
282
0
283
0
284
8
285
0
286
0
288
1
289
3
290
0
340
4C
371
-2
372
-2
  0
DIMSTYLE
105
82
330
4
100
AcDbSymbolTableRecord
100
AcDbDimStyleTableRecord
  2
EZ_M_1_H25_CM
 70
0
 40
1.0
 41
0.0025
 42
0.00125
 43
3.75
 44
0.00375
 45
0.0
 46
0.0
 47
0.0
 48
0.0
 49
2.5
140
0.0025
141
2.5
142
0.00125
143
0.03937007874
144
100.0
145
0.0
146
0.5
147
0.001
148
0.0
 69
0
 70
0
 71
0
 72
0
 73
0
 74
0
 75
0
 76
0
 77
1
 78
12
 79
3
170
0
171
3
172
1
173
0
174
0
175
0
176
0
177
0
178
0
179
2
271
2
272
2
273
2
274
3
275
0
276
0
277
2
278
46
279
2
280
0
281
0
282
0
283
0
284
8
285
0
286
0
288
1
289
3
290
0
340
4C
371
-2
372
-2
  0
DIMSTYLE
105
83
330
4
100
AcDbSymbolTableRecord
100
AcDbDimStyleTableRecord
  2
EZ_RADIUS
 70
0
 40
1.0
 41
0.25
 42
0.125
 43
3.75
 44
0.375
 45
0.0
 46
0.0
 47
0.0
 48
0.0
 49
2.5
140
0.25
141
0.0
142
0.0
143
0.03937007874
144
100.0
145
0.0
146
0.5
147
0.1
148
0.0
 69
0
 70
0
 71
0
 72
0
 73
0
 74
0
 75
0
 76
0
 77
1
 78
12
 79
3
170
0
171
3
172
0
173
0
174
0
175
0
176
0
177
0
178
0
179
2
271
2
272
2
273
2
274
3
275
0
276
0
277
2
278
46
279
1
280
0
281
0
282
0
283
0
284
8
285
0
286
0
288
1
289
3
290
0
340
4C
342
84
371
-2
372
-2
  0
DIMSTYLE
105
88
330
4
100
AcDbSymbolTableRecord
100
AcDbDimStyleTableRecord
  2
EZ_RADIUS_INSIDE
 70
0
 40
1.0
 41
0.25
 42
0.125
 43
3.75
 44
0.375
 45
0.0
 46
0.0
 47
0.0
 48
0.0
 49
2.5
140
0.25
141
0.0
142
0.0
143
0.03937007874
144
100.0
145
0.0
146
0.5
147
0.1
148
0.0
 69
0
 70
0
 71
0
 72
0
 73
0
 74
0
 75
0
 76
0
 77
0
 78
12
 79
3
170
0
171
3
172
0
173
0
174
1
175
0
176
0
177
0
178
0
179
2
271
2
272
2
273
2
274
3
275
0
276
0
277
2
278
46
279
0
280
0
281
0
282
0
283
0
284
8
285
0
286
0
288
1
289
0
290
0
340
4C
342
84
371
-2
372
-2
  0
DIMSTYLE
105
89
330
4
100
AcDbSymbolTableRecord
100
AcDbDimStyleTableRecord
  2
EZ_CURVED
 70
0
 40
1.0
 41
0.25
 42
0.125
 43
3.75
 44
0.375
 45
0.0
 46
0.0
 47
0.0
 48
0.0
 49
2.5
140
0.25
141
2.5
142
0.0
143
0.03937007874
144
100.0
145
0.0
146
0.5
147
0.1
148
0.0
 69
0
 70
0
 71
0
 72
0
 73
0
 74
0
 75
0
 76
0
 77
1
 78
12
 79
2
 90
2
170
0
171
3
172
1
173
0
174
0
175
0
176
0
177
0
178
0
179
2
271
2
272
2
273
2
274
3
275
0
276
0
277
2
278
46
279
2
280
0
281
0
282
0
283
0
284
8
285
0
286
0
288
1
289
3
290
0
340
4C
371
-2
372
-2
  0
ENDTAB
  0
TABLE
  2
BLOCK_RECORD
  5
9
330
0
100
AcDbSymbolTable
 70
5
  0
BLOCK_RECORD
  5
17
330
9
100
AcDbSymbolTableRecord
100
AcDbBlockTableRecord
  2
*Model_Space
340
1A
 70
0
280
1
281
0
  0
BLOCK_RECORD
  5
1B
330
9
100
AcDbSymbolTableRecord
100
AcDbBlockTableRecord
  2
*Paper_Space
340
1E
 70
0
280
1
281
0
  0
BLOCK_RECORD
  5
74
330
9
100
AcDbSymbolTableRecord
100
AcDbBlockTableRecord
  2
_ARCHTICK
340
0
 70
0
280
1
281
0
  0
BLOCK_RECORD
  5
78
330
9
100
AcDbSymbolTableRecord
100
AcDbBlockTableRecord
  2
_CLOSEDFILLED
340
0
 70
0
280
1
281
0
  0
BLOCK_RECORD
  5
84
330
9
100
AcDbSymbolTableRecord
100
AcDbBlockTableRecord
  2
_CLOSEDBLANK
340
0
 70
0
280
1
281
0
  0
ENDTAB
  0
ENDSEC
  0
SECTION
  2
BLOCKS
  0
BLOCK
  5
18
330
17
100
AcDbEntity
  8
0
100
AcDbBlockBegin
  2
*Model_Space
 70
0
 10
0.0
 20
0.0
 30
0.0
  3
*Model_Space
  1

  0
ENDBLK
  5
19
330
17
100
AcDbEntity
  8
0
100
AcDbBlockEnd
  0
BLOCK
  5
1C
330
1B
100
AcDbEntity
  8
0
100
AcDbBlockBegin
  2
*Paper_Space
 70
0
 10
0.0
 20
0.0
 30
0.0
  3
*Paper_Space
  1

  0
ENDBLK
  5
1D
330
1B
100
AcDbEntity
  8
0
100
AcDbBlockEnd
  0
BLOCK
  5
75
330
74
100
AcDbEntity
  8
0
100
AcDbBlockBegin
  2
_ARCHTICK
 70
0
 10
0.0
 20
0.0
 30
0.0
  3
_ARCHTICK
  1

  0
LWPOLYLINE
  5
77
330
74
100
AcDbEntity
  8
0
  6
BYBLOCK
 62
0
100
AcDbPolyline
 90
2
 70
0
 43
0.15
 10
-0.5
 20
-0.5
 10
0.5
 20
0.5
  0
ENDBLK
  5
76
330
74
100
AcDbEntity
  8
0
100
AcDbBlockEnd
  0
BLOCK
  5
79
330
78
100
AcDbEntity
  8
0
100
AcDbBlockBegin
  2
_CLOSEDFILLED
 70
0
 10
0.0
 20
0.0
 30
0.0
  3
_CLOSEDFILLED
  1

  0
SOLID
  5
7B
330
78
100
AcDbEntity
  8
0
  6
BYBLOCK
 62
0
100
AcDbTrace
 10
-1.0
 20
0.16439898372402537
 30
0.0
 11
0.0
 21
0.0
 31
0.0
 12
-1.0
 22
-0.16439898372402537
 32
0.0
 13
-1.0
 23
-0.16439898372402537
 33
0.0
  0
ENDBLK
  5
7A
330
78
100
AcDbEntity
  8
0
100
AcDbBlockEnd
  0
BLOCK
  5
85
330
84
100
AcDbEntity
  8
0
100
AcDbBlockBegin
  2
_CLOSEDBLANK
 70
0
 10
0.0
 20
0.0
 30
0.0
  3
_CLOSEDBLANK
  1

  0
LWPOLYLINE
  5
87
330
84
100
AcDbEntity
  8
0
  6
BYBLOCK
 62
0
100
AcDbPolyline
 90
3
 70
1
 10
-1.0
 20
0.16439898372402537
 10
0.0
 20
0.0
 10
-1.0
 20
-0.16439898372402537
  0
ENDBLK
  5
86
330
84
100
AcDbEntity
  8
0
100
AcDbBlockEnd
  0
ENDSEC
  0
SECTION
  2
ENTITIES
  0
HATCH
  5
9C
330
17
100
AcDbEntity
  8
PAVE-PAVER
100
AcDbHatch
 10
0.0
 20
0.0
 30
0.0
210
0.0
220
0.0
230
1.0
  2
ANSI31
 70
0
 71
0
 91
1
 92
3
 72
0
 73
1
 93
4
 10
400.0
 20
-400.0
 10
1400.0
 20
-400.0
 10
1400.0
 20
-460.0
 10
400.0
 20
-460.0
 97
0
 75
1
 76
1
 52
0.0
 41
20.0
 77
0
 78
1
 53
45.0
 43
0.0
 44
0.0
 45
-44.901280606
 46
44.901280606
 79
0
 98
0
  0
LINE
  5
9D
330
17
100
AcDbEntity
  8
PAVE-OUTLINE
100
AcDbLine
 10
400.0
 20
-400.0
 30
0.0
 11
1400.0
 21
-400.0
 31
0.0
  0
LINE
  5
9E
330
17
100
AcDbEntity
  8
PAVE-OUTLINE
100
AcDbLine
 10
400.0
 20
-460.0
 30
0.0
 11
1400.0
 21
-460.0
 31
0.0
  0
LINE
  5
9F
330
17
100
AcDbEntity
  8
PAVE-OUTLINE
100
AcDbLine
 10
500.0
 20
-400.0
 30
0.0
 11
500.0
 21
-460.0
 31
0.0
  0
LINE
  5
A0
330
17
100
AcDbEntity
  8
PAVE-OUTLINE
100
AcDbLine
 10
700.0
 20
-400.0
 30
0.0
 11
700.0
 21
-460.0
 31
0.0
  0
LINE
  5
A1
330
17
100
AcDbEntity
  8
PAVE-OUTLINE
100
AcDbLine
 10
900.0
 20
-400.0
 30
0.0
 11
900.0
 21
-460.0
 31
0.0
  0
LINE
  5
A2
330
17
100
AcDbEntity
  8
PAVE-OUTLINE
100
AcDbLine
 10
1100.0
 20
-400.0
 30
0.0
 11
1100.0
 21
-460.0
 31
0.0
  0
LINE
  5
A3
330
17
100
AcDbEntity
  8
PAVE-OUTLINE
100
AcDbLine
 10
1300.0
 20
-400.0
 30
0.0
 11
1300.0
 21
-460.0
 31
0.0
  0
HATCH
  5
A4
330
17
100
AcDbEntity
  8
PAVE-MORTAR
100
AcDbHatch
 10
0.0
 20
0.0
 30
0.0
210
0.0
220
0.0
230
1.0
  2
AR-SAND
 70
0
 71
0
 91
1
 92
3
 72
0
 73
1
 93
4
 10
400.0
 20
-460.0
 10
1400.0
 20
-460.0
 10
1400.0
 20
-490.0
 10
400.0
 20
-490.0
 97
0
 75
1
 76
1
 52
0.0
 41
1.0
 77
0
 78
4
 53
37.5
 43
0.0
 44
0.0
 45
-1.600031296
 46
48.9413237329
 79
6
 49
0.0
 49
-38.608
 49
0.0
 49
-43.18
 49
0.0
 49
-41.275
 53
7.5
 43
0.0
 44
0.0
 45
44.9523283138
 46
71.6825100568
 79
6
 49
0.0
 49
-20.828
 49
0.0
 49
-34.798
 49
0.0
 49
-13.335
 53
-32.5
 43
-31.242
 44
0.0
 45
79.0992370241
 46
0.1437184679
 79
6
 49
0.0
 49
-12.7
 49
0.0
 49
-45.72
 49
0.0
 49
-59.69
 53
-42.5
 43
-31.242
 44
0.0
 45
76.3556452472
 46
22.2929323257
 79
6
 49
0.0
 49
-6.35
 49
0.0
 49
-29.972
 49
0.0
 49
-34.29
 98
0
  0
LINE
  5
A5
330
17
100
AcDbEntity
  8
PAVE-OUTLINE
100
AcDbLine
 10
400.0
 20
-460.0
 30
0.0
 11
1400.0
 21
-460.0
 31
0.0
  0
LINE
  5
A6
330
17
100
AcDbEntity
  8
PAVE-OUTLINE
100
AcDbLine
 10
400.0
 20
-490.0
 30
0.0
 11
1400.0
 21
-490.0
 31
0.0
  0
HATCH
  5
A7
330
17
100
AcDbEntity
  8
PAVE-SCREED
100
AcDbHatch
 10
0.0
 20
0.0
 30
0.0
210
0.0
220
0.0
230
1.0
  2
AR-SAND
 70
0
 71
0
 91
1
 92
3
 72
0
 73
1
 93
4
 10
400.0
 20
-490.0
 10
1400.0
 20
-490.0
 10
1400.0
 20
-540.0
 10
400.0
 20
-540.0
 97
0
 75
1
 76
1
 52
0.0
 41
2.0
 77
0
 78
4
 53
37.5
 43
0.0
 44
0.0
 45
-3.200062592
 46
97.8826474658
 79
6
 49
0.0
 49
-77.216
 49
0.0
 49
-86.36
 49
0.0
 49
-82.55
 53
7.5
 43
0.0
 44
0.0
 45
89.9046566276
 46
143.3650201136
 79
6
 49
0.0
 49
-41.656
 49
0.0
 49
-69.596
 49
0.0
 49
-26.67
 53
-32.5
 43
-62.484
 44
0.0
 45
158.1984740482
 46
0.2874369358
 79
6
 49
0.0
 49
-25.4
 49
0.0
 49
-91.44
 49
0.0
 49
-119.38
 53
-42.5
 43
-62.484
 44
0.0
 45
152.7112904944
 46
44.5858646514
 79
6
 49
0.0
 49
-12.7
 49
0.0
 49
-59.944
 49
0.0
 49
-68.58
 98
0
  0
LINE
  5
A8
330
17
100
AcDbEntity
  8
PAVE-OUTLINE
100
AcDbLine
 10
400.0
 20
-490.0
 30
0.0
 11
1400.0
 21
-490.0
 31
0.0
  0
LINE
  5
A9
330
17
100
AcDbEntity
  8
PAVE-OUTLINE
100
AcDbLine
 10
400.0
 20
-540.0
 30
0.0
 11
1400.0
 21
-540.0
 31
0.0
  0
HATCH
  5
AA
330
17
100
AcDbEntity
  8
PAVE-CONC
100
AcDbHatch
 10
0.0
 20
0.0
 30
0.0
210
0.0
220
0.0
230
1.0
  2
AR-CONC
 70
0
 71
0
 91
1
 92
3
 72
0
 73
1
 93
4
 10
400.0
 20
-540.0
 10
1400.0
 20
-540.0
 10
1400.0
 20
-740.0
 10
400.0
 20
-740.0
 97
0
 75
1
 76
1
 52
0.0
 41
1.0
 77
0
 78
13
 53
50.0
 43
0.0
 44
0.0
 45
182.184668996
 46
-15.9390855389
 79
2
 49
19.05
 49
-209.55
 53
355.0
 43
0.0
 44
0.0
 45
-35.243421425
 46
191.056845239
 79
2
 49
15.24
 49
-167.64058417
 53
100.4514447
 43
15.182007
 44
-1.3282535
 45
146.9412470904
 46
175.1177519122
 79
2
 49
16.1900088
 49
-178.0902446
 53
46.1842
 43
0.0
 44
50.8
 45
271.0790408921
 46
-42.0423279327
 79
2
 49
28.575
 49
-314.325
 53
96.63555761
 43
22.5899
 44
47.2965
 45
237.4041340515
 46
247.4261245977
 79
2
 49
24.28502314
 49
-267.13560816
 53
351.18415117
 43
0.0
 44
50.8
 45
237.404134065
 46
247.4261245855
 79
2
 49
22.85996707
 49
-251.45973192
 53
21.0
 43
25.4
 44
38.1
 45
151.6143912691
 46
-102.2651981871
 79
2
 49
19.05
 49
-209.55
 53
326.0
 43
25.4
 44
38.1
 45
61.8020283476
 46
184.1879661223
 79
2
 49
15.24
 49
-167.64
 53
71.451445
 43
38.0345326
 44
29.5779001
 45
213.4164192787
 46
81.9227688859
 79
2
 49
16.1900088
 49
-178.0899376
 53
37.5
 43
0.0
 44
0.0
 45
3.0886032506
 46
84.5550388732
 79
6
 49
0.0
 49
-165.608
 49
0.0
 49
-170.18
 49
0.0
 49
-168.275
 53
7.5
 43
0.0
 44
0.0
 45
66.8196625103
 46
100.1805748181
 79
6
 49
0.0
 49
-97.028
 49
0.0
 49
-161.798
 49
0.0
 49
-64.135
 53
-32.5
 43
-56.642
 44
0.0
 45
135.5905951669
 46
-5.7287439927
 79
6
 49
0.0
 49
-63.5
 49
0.0
 49
-198.12
 49
0.0
 49
-262.89
 53
-42.5
 43
-82.042
 44
0.0
 45
148.129181386
 46
25.4264910333
 79
6
 49
0.0
 49
-82.55
 49
0.0
 49
-131.572
 49
0.0
 49
-186.69
 98
0
  0
LINE
  5
AB
330
17
100
AcDbEntity
  8
PAVE-OUTLINE
100
AcDbLine
 10
400.0
 20
-540.0
 30
0.0
 11
1400.0
 21
-540.0
 31
0.0
  0
LINE
  5
AC
330
17
100
AcDbEntity
  8
PAVE-OUTLINE
100
AcDbLine
 10
400.0
 20
-740.0
 30
0.0
 11
1400.0
 21
-740.0
 31
0.0
  0
LWPOLYLINE
  5
AD
330
17
100
AcDbEntity
  8
PAVE-BREAK
100
AcDbPolyline
 90
6
 70
0
 10
400.0
 20
-370.0
 10
400.0
 20
-540.0
 10
380.0
 20
-555.0
 10
420.0
 20
-585.0
 10
400.0
 20
-600.0
 10
400.0
 20
-770.0
  0
LWPOLYLINE
  5
AE
330
17
100
AcDbEntity
  8
PAVE-BREAK
100
AcDbPolyline
 90
6
 70
0
 10
1400.0
 20
-370.0
 10
1400.0
 20
-540.0
 10
1380.0
 20
-555.0
 10
1420.0
 20
-585.0
 10
1400.0
 20
-600.0
 10
1400.0
 20
-770.0
  0
LINE
  5
AF
330
17
100
AcDbEntity
  8
PAVE-DIM
100
AcDbLine
 10
280.0
 20
-400.0
 30
0.0
 11
280.0
 21
-460.0
 31
0.0
  0
LINE
  5
B0
330
17
100
AcDbEntity
  8
PAVE-DIM
100
AcDbLine
 10
240.0
 20
-400.0
 30
0.0
 11
295.0
 21
-400.0
 31
0.0
  0
LINE
  5
B1
330
17
100
AcDbEntity
  8
PAVE-DIM
100
AcDbLine
 10
268.0
 20
-412.0
 30
0.0
 11
292.0
 21
-388.0
 31
0.0
  0
LINE
  5
B2
330
17
100
AcDbEntity
  8
PAVE-DIM
100
AcDbLine
 10
240.0
 20
-460.0
 30
0.0
 11
295.0
 21
-460.0
 31
0.0
  0
LINE
  5
B3
330
17
100
AcDbEntity
  8
PAVE-DIM
100
AcDbLine
 10
268.0
 20
-472.0
 30
0.0
 11
292.0
 21
-448.0
 31
0.0
  0
TEXT
  5
B4
330
17
100
AcDbEntity
  8
PAVE-DIM
100
AcDbText
 10
230.0
 20
-430.0
 30
0.0
 40
25.0
  1
60
  7
PAVE-TEXT
 72
2
 11
230.0
 21
-430.0
 31
0.0
100
AcDbText
 73
2
  0
LINE
  5
B5
330
17
100
AcDbEntity
  8
PAVE-DIM
100
AcDbLine
 10
280.0
 20
-460.0
 30
0.0
 11
280.0
 21
-490.0
 31
0.0
  0
LINE
  5
B6
330
17
100
AcDbEntity
  8
PAVE-DIM
100
AcDbLine
 10
240.0
 20
-460.0
 30
0.0
 11
295.0
 21
-460.0
 31
0.0
  0
LINE
  5
B7
330
17
100
AcDbEntity
  8
PAVE-DIM
100
AcDbLine
 10
268.0
 20
-472.0
 30
0.0
 11
292.0
 21
-448.0
 31
0.0
  0
LINE
  5
B8
330
17
100
AcDbEntity
  8
PAVE-DIM
100
AcDbLine
 10
240.0
 20
-490.0
 30
0.0
 11
295.0
 21
-490.0
 31
0.0
  0
LINE
  5
B9
330
17
100
AcDbEntity
  8
PAVE-DIM
100
AcDbLine
 10
268.0
 20
-502.0
 30
0.0
 11
292.0
 21
-478.0
 31
0.0
  0
TEXT
  5
BA
330
17
100
AcDbEntity
  8
PAVE-DIM
100
AcDbText
 10
230.0
 20
-475.0
 30
0.0
 40
25.0
  1
30
  7
PAVE-TEXT
 72
2
 11
230.0
 21
-475.0
 31
0.0
100
AcDbText
 73
2
  0
LINE
  5
BB
330
17
100
AcDbEntity
  8
PAVE-DIM
100
AcDbLine
 10
280.0
 20
-490.0
 30
0.0
 11
280.0
 21
-540.0
 31
0.0
  0
LINE
  5
BC
330
17
100
AcDbEntity
  8
PAVE-DIM
100
AcDbLine
 10
240.0
 20
-490.0
 30
0.0
 11
295.0
 21
-490.0
 31
0.0
  0
LINE
  5
BD
330
17
100
AcDbEntity
  8
PAVE-DIM
100
AcDbLine
 10
268.0
 20
-502.0
 30
0.0
 11
292.0
 21
-478.0
 31
0.0
  0
LINE
  5
BE
330
17
100
AcDbEntity
  8
PAVE-DIM
100
AcDbLine
 10
240.0
 20
-540.0
 30
0.0
 11
295.0
 21
-540.0
 31
0.0
  0
LINE
  5
BF
330
17
100
AcDbEntity
  8
PAVE-DIM
100
AcDbLine
 10
268.0
 20
-552.0
 30
0.0
 11
292.0
 21
-528.0
 31
0.0
  0
TEXT
  5
C0
330
17
100
AcDbEntity
  8
PAVE-DIM
100
AcDbText
 10
230.0
 20
-515.0
 30
0.0
 40
25.0
  1
VAR.
  7
PAVE-TEXT
 72
2
 11
230.0
 21
-515.0
 31
0.0
100
AcDbText
 73
2
  0
LWPOLYLINE
  5
C1
330
17
100
AcDbEntity
  8
PAVE-ANNO
100
AcDbPolyline
 90
3
 70
1
 10
550.0
 20
-400.0
 10
520.0
 20
-358.0
 10
580.0
 20
-358.0
  0
LINE
  5
C2
330
17
100
AcDbEntity
  8
PAVE-ANNO
100
AcDbLine
 10
490.0
 20
-358.0
 30
0.0
 11
950.0
 21
-358.0
 31
0.0
  0
TEXT
  5
C3
330
17
100
AcDbEntity
  8
PAVE-ANNO
100
AcDbText
 10
595.0
 20
-348.0
 30
0.0
 40
25.0
  1
FINISHED SURFACE LEVEL
  7
PAVE-TEXT
 11
595.0
 21
-348.0
 31
0.0
100
AcDbText
 73
1
  0
CIRCLE
  5
C4
330
17
100
AcDbEntity
  8
PAVE-ANNO
100
AcDbCircle
 10
950.0
 20
-430.0
 30
0.0
 40
6.0
  0
HATCH
  5
C5
330
17
100
AcDbEntity
  8
PAVE-ANNO
100
AcDbHatch
 10
0.0
 20
0.0
 30
0.0
210
0.0
220
0.0
230
1.0
  2
SOLID
 70
1
 71
0
 91
1
 92
1
 93
1
 72
2
 10
950.0
 20
-430.0
 40
6
 50
0
 51
360
 73
1
 97
0
 75
0
 76
1
 98
0
  0
LWPOLYLINE
  5
C6
330
17
100
AcDbEntity
  8
PAVE-ANNO
100
AcDbPolyline
 90
3
 70
0
 10
950.0
 20
-430.0
 10
1520.0
 20
-430.0
 10
1685.0
 20
-430.0
  0
TEXT
  5
C7
330
17
100
AcDbEntity
  8
PAVE-ANNO
100
AcDbText
 10
1700.0
 20
-430.0
 30
0.0
 40
25.0
  1
60mm THICK PAVER, REFER LANDSCAPE SPECIFICATION
  7
PAVE-TEXT
 11
1700.0
 21
-430.0
 31
0.0
100
AcDbText
 73
2
  0
CIRCLE
  5
C8
330
17
100
AcDbEntity
  8
PAVE-ANNO
100
AcDbCircle
 10
1030.0
 20
-475.0
 30
0.0
 40
6.0
  0
HATCH
  5
C9
330
17
100
AcDbEntity
  8
PAVE-ANNO
100
AcDbHatch
 10
0.0
 20
0.0
 30
0.0
210
0.0
220
0.0
230
1.0
  2
SOLID
 70
1
 71
0
 91
1
 92
1
 93
1
 72
2
 10
1030.0
 20
-475.0
 40
6
 50
0
 51
360
 73
1
 97
0
 75
0
 76
1
 98
0
  0
LWPOLYLINE
  5
CA
330
17
100
AcDbEntity
  8
PAVE-ANNO
100
AcDbPolyline
 90
3
 70
0
 10
1030.0
 20
-475.0
 10
1520.0
 20
-490.0
 10
1685.0
 20
-490.0
  0
TEXT
  5
CB
330
17
100
AcDbEntity
  8
PAVE-ANNO
100
AcDbText
 10
1700.0
 20
-490.0
 30
0.0
 40
25.0
  1
30mm THICK MORTAR BED
  7
PAVE-TEXT
 11
1700.0
 21
-490.0
 31
0.0
100
AcDbText
 73
2
  0
CIRCLE
  5
CC
330
17
100
AcDbEntity
  8
PAVE-ANNO
100
AcDbCircle
 10
1110.0
 20
-515.0
 30
0.0
 40
6.0
  0
HATCH
  5
CD
330
17
100
AcDbEntity
  8
PAVE-ANNO
100
AcDbHatch
 10
0.0
 20
0.0
 30
0.0
210
0.0
220
0.0
230
1.0
  2
SOLID
 70
1
 71
0
 91
1
 92
1
 93
1
 72
2
 10
1110.0
 20
-515.0
 40
6
 50
0
 51
360
 73
1
 97
0
 75
0
 76
1
 98
0
  0
LWPOLYLINE
  5
CE
330
17
100
AcDbEntity
  8
PAVE-ANNO
100
AcDbPolyline
 90
3
 70
0
 10
1110.0
 20
-515.0
 10
1520.0
 20
-550.0
 10
1685.0
 20
-550.0
  0
TEXT
  5
CF
330
17
100
AcDbEntity
  8
PAVE-ANNO
100
AcDbText
 10
1700.0
 20
-550.0
 30
0.0
 40
25.0
  1
VARIABLE SCREED, REFER DRAWING CV-TTW-1030
  7
PAVE-TEXT
 11
1700.0
 21
-550.0
 31
0.0
100
AcDbText
 73
2
  0
CIRCLE
  5
D0
330
17
100
AcDbEntity
  8
PAVE-ANNO
100
AcDbCircle
 10
1190.0
 20
-640.0
 30
0.0
 40
6.0
  0
HATCH
  5
D1
330
17
100
AcDbEntity
  8
PAVE-ANNO
100
AcDbHatch
 10
0.0
 20
0.0
 30
0.0
210
0.0
220
0.0
230
1.0
  2
SOLID
 70
1
 71
0
 91
1
 92
1
 93
1
 72
2
 10
1190.0
 20
-640.0
 40
6
 50
0
 51
360
 73
1
 97
0
 75
0
 76
1
 98
0
  0
LWPOLYLINE
  5
D2
330
17
100
AcDbEntity
  8
PAVE-ANNO
100
AcDbPolyline
 90
3
 70
0
 10
1190.0
 20
-640.0
 10
1520.0
 20
-640.0
 10
1685.0
 20
-640.0
  0
TEXT
  5
D3
330
17
100
AcDbEntity
  8
PAVE-ANNO
100
AcDbText
 10
1700.0
 20
-640.0
 30
0.0
 40
25.0
  1
EXISTING CONCRETE SLAB (LEVELS TBC ON SITE)
  7
PAVE-TEXT
 11
1700.0
 21
-640.0
 31
0.0
100
AcDbText
 73
2
  0
LWPOLYLINE
  5
D4
330
17
100
AcDbEntity
  8
PAVE-TITLE
100
AcDbPolyline
 90
4
 70
1
 10
400.0
 20
-1250.0
 10
638.0
 20
-1250.0
 10
638.0
 20
-1404.0
 10
400.0
 20
-1404.0
  0
TEXT
  5
D5
330
17
100
AcDbEntity
  8
PAVE-TITLE
100
AcDbText
 10
519.0
 20
-1327.0
 30
0.0
 40
70.0
  1
P1-A
  7
PAVE-TEXT
 72
1
 11
519.0
 21
-1327.0
 31
0.0
100
AcDbText
 73
2
  0
TEXT
  5
D6
330
17
100
AcDbEntity
  8
PAVE-TITLE
100
AcDbText
 10
698.0
 20
-1303.9
 30
0.0
 40
50.0
  1
PAVER TYPE 1 - ON STRUCTURE
  7
PAVE-TEXT
 11
698.0
 21
-1303.9
 31
0.0
100
AcDbText
 73
2
  0
LINE
  5
D7
330
17
100
AcDbEntity
  8
PAVE-TITLE
100
AcDbLine
 10
698.0
 20
-1345.48
 30
0.0
 11
2900.0
 21
-1345.48
 31
0.0
  0
TEXT
  5
D8
330
17
100
AcDbEntity
  8
PAVE-TITLE
100
AcDbText
 10
698.0
 20
-1376.28
 30
0.0
 40
30.0
  1
SCALE 1:10
  7
PAVE-TEXT
 11
698.0
 21
-1376.28
 31
0.0
100
AcDbText
 73
2
  0
HATCH
  5
D9
330
17
100
AcDbEntity
  8
PAVE-PAVER
100
AcDbHatch
 10
0.0
 20
0.0
 30
0.0
210
0.0
220
0.0
230
1.0
  2
ANSI31
 70
0
 71
0
 91
1
 92
3
 72
0
 73
1
 93
4
 10
4000.0
 20
-400.0
 10
5000.0
 20
-400.0
 10
5000.0
 20
-460.0
 10
4000.0
 20
-460.0
 97
0
 75
1
 76
1
 52
0.0
 41
20.0
 77
0
 78
1
 53
45.0
 43
0.0
 44
0.0
 45
-44.901280606
 46
44.901280606
 79
0
 98
0
  0
LINE
  5
DA
330
17
100
AcDbEntity
  8
PAVE-OUTLINE
100
AcDbLine
 10
4000.0
 20
-400.0
 30
0.0
 11
5000.0
 21
-400.0
 31
0.0
  0
LINE
  5
DB
330
17
100
AcDbEntity
  8
PAVE-OUTLINE
100
AcDbLine
 10
4000.0
 20
-460.0
 30
0.0
 11
5000.0
 21
-460.0
 31
0.0
  0
LINE
  5
DC
330
17
100
AcDbEntity
  8
PAVE-OUTLINE
100
AcDbLine
 10
4100.0
 20
-400.0
 30
0.0
 11
4100.0
 21
-460.0
 31
0.0
  0
LINE
  5
DD
330
17
100
AcDbEntity
  8
PAVE-OUTLINE
100
AcDbLine
 10
4300.0
 20
-400.0
 30
0.0
 11
4300.0
 21
-460.0
 31
0.0
  0
LINE
  5
DE
330
17
100
AcDbEntity
  8
PAVE-OUTLINE
100
AcDbLine
 10
4500.0
 20
-400.0
 30
0.0
 11
4500.0
 21
-460.0
 31
0.0
  0
LINE
  5
DF
330
17
100
AcDbEntity
  8
PAVE-OUTLINE
100
AcDbLine
 10
4700.0
 20
-400.0
 30
0.0
 11
4700.0
 21
-460.0
 31
0.0
  0
LINE
  5
E0
330
17
100
AcDbEntity
  8
PAVE-OUTLINE
100
AcDbLine
 10
4900.0
 20
-400.0
 30
0.0
 11
4900.0
 21
-460.0
 31
0.0
  0
HATCH
  5
E1
330
17
100
AcDbEntity
  8
PAVE-MORTAR
100
AcDbHatch
 10
0.0
 20
0.0
 30
0.0
210
0.0
220
0.0
230
1.0
  2
AR-SAND
 70
0
 71
0
 91
1
 92
3
 72
0
 73
1
 93
4
 10
4000.0
 20
-460.0
 10
5000.0
 20
-460.0
 10
5000.0
 20
-490.0
 10
4000.0
 20
-490.0
 97
0
 75
1
 76
1
 52
0.0
 41
1.0
 77
0
 78
4
 53
37.5
 43
0.0
 44
0.0
 45
-1.600031296
 46
48.9413237329
 79
6
 49
0.0
 49
-38.608
 49
0.0
 49
-43.18
 49
0.0
 49
-41.275
 53
7.5
 43
0.0
 44
0.0
 45
44.9523283138
 46
71.6825100568
 79
6
 49
0.0
 49
-20.828
 49
0.0
 49
-34.798
 49
0.0
 49
-13.335
 53
-32.5
 43
-31.242
 44
0.0
 45
79.0992370241
 46
0.1437184679
 79
6
 49
0.0
 49
-12.7
 49
0.0
 49
-45.72
 49
0.0
 49
-59.69
 53
-42.5
 43
-31.242
 44
0.0
 45
76.3556452472
 46
22.2929323257
 79
6
 49
0.0
 49
-6.35
 49
0.0
 49
-29.972
 49
0.0
 49
-34.29
 98
0
  0
LINE
  5
E2
330
17
100
AcDbEntity
  8
PAVE-OUTLINE
100
AcDbLine
 10
4000.0
 20
-460.0
 30
0.0
 11
5000.0
 21
-460.0
 31
0.0
  0
LINE
  5
E3
330
17
100
AcDbEntity
  8
PAVE-OUTLINE
100
AcDbLine
 10
4000.0
 20
-490.0
 30
0.0
 11
5000.0
 21
-490.0
 31
0.0
  0
HATCH
  5
E4
330
17
100
AcDbEntity
  8
PAVE-ROADBASE
100
AcDbHatch
 10
0.0
 20
0.0
 30
0.0
210
0.0
220
0.0
230
1.0
  2
GRAVEL
 70
0
 71
0
 91
1
 92
3
 72
0
 73
1
 93
4
 10
4000.0
 20
-490.0
 10
5000.0
 20
-490.0
 10
5000.0
 20
-640.0
 10
4000.0
 20
-640.0
 97
0
 75
1
 76
1
 52
0.0
 41
8.0
 77
0
 78
41
 53
228.0127875
 43
146.304
 44
203.2
 45
-1625.600000128
 46
-1828.7999998864
 79
2
 49
27.3377152
 49
-2706.4386911648
 53
184.969741
 43
128.016
 44
182.88
 45
2438.3999990352
 46
203.200011576
 79
2
 49
46.9123776
 49
-4644.3239114816
 53
132.5104471
 43
81.28
 44
178.816
 45
2032.0000008584
 46
-2235.19999922
 79
2
 49
33.0785216
 49
-3274.777823528
 53
267.273689
 43
2.032
 44
128.016
 45
203.2000004256
 46
4063.9999999784
 79
2
 49
42.7203616
 49
-4229.3149940592
 53
292.83365418
 43
0.0
 44
85.344
 45
-1016.0000000848
 46
2438.3999999648
 79
2
 49
41.890696
 49
-4147.1846196272
 53
357.273689
 43
16.256
 44
46.736
 45
-4063.9999999784
 46
203.2000004256
 79
2
 49
42.7203616
 49
-4229.3149940592
 53
37.69424047
 43
58.928
 44
44.704
 45
-2641.5999998832
 46
-2032.000000152
 79
2
 49
56.4954928
 49
-5593.04922514
 53
72.25532837
 43
103.632
 44
79.248
 45
1422.4000003824
 46
4470.3999998784
 79
2
 49
53.3375616
 49
-5280.4205281528
 53
121.42956562
 43
119.888
 44
130.048
 45
-1625.6000002304
 46
2641.5999998584
 79
2
 49
42.86504
 49
-4243.6436558968
 53
175.2363583
 43
97.536
 44
166.624
 45
2235.199999968
 46
-203.2000003512
 79
2
 49
48.9370624
 49
-2397.914956
 53
222.3974378
 43
48.768
 44
170.688
 45
-2438.3999999216
 46
-2235.2000000848
 79
2
 49
63.2862336
 49
-6265.3418009744
 53
138.81407483
 43
203.2
 44
125.984
 45
-1422.3999999144
 46
1219.2000000992
 79
2
 49
21.6003632
 49
-2138.4452659472
 53
171.4692344
 43
186.944
 44
140.208
 45
2641.6000000712
 46
-406.3999995392
 79
2
 49
41.0945584
 49
-4068.3711197632
 53
225.0
 43
146.304
 44
146.304
 45
-0.0
 46
-203.2
 79
2
 49
28.7367472
 49
-258.6314486744
 53
203.19859051
 43
132.08
 44
170.688
 45
1016.000000028
 46
406.3999999288
 79
2
 49
15.4753056
 49
-1532.0497895112
 53
291.80140949
 43
117.856
 44
164.592
 45
-203.2000000424
 46
609.5999999856
 79
2
 49
21.8852496
 49
-1072.3802392
 53
30.96375653
 43
125.984
 44
144.272
 45
609.6000000152
 46
406.3999999776
 79
2
 49
35.5455728
 49
-1149.3038522328
 53
161.56505118
 43
156.464
 44
162.56
 45
406.4000000104
 46
-203.1999999784
 79
2
 49
25.7029712
 49
-616.8718493464
 53
16.389540334
 43
0.0
 44
164.592
 45
2032.0
 46
609.6
 79
2
 49
36.00704
 49
-3564.7061338032
 53
70.34617594
 43
34.544
 44
174.752
 45
-812.8000000744
 46
-2235.1999999736
 79
2
 49
30.2079152
 49
-2990.577254256
 53
293.19859051
 43
156.464
 44
203.2
 45
-406.3999999288
 46
1016.0000000288
 79
2
 49
30.950408
 49
-1516.5746871112
 53
343.61045967
 43
168.656
 44
174.752
 45
-2032.0000000424
 46
609.5999998576
 79
2
 49
36.00704
 49
-3564.7061338032
 53
339.44395478
 43
0.0
 44
38.608
 45
-1016.0
 46
406.4
 79
2
 49
34.722816
 49
-1701.4187450488
 53
294.7751406
 43
32.512
 44
26.416
 45
-1016.0000012096
 46
2235.1999994504
 79
2
 49
29.0937696
 49
-2880.2874704576
 53
66.80140949
 43
158.496
 44
0.0
 45
406.399999936
 46
1016.0000000256
 79
2
 49
30.950408
 49
-1516.5746871112
 53
17.35402464
 43
170.688
 44
28.448
 45
-2641.5999999472
 46
-812.8000001704
 79
2
 49
34.0626192
 49
-3372.190078416
 53
69.44395478
 43
58.928
 44
0.0
 45
-406.4000000072
 46
-1015.9999999968
 79
2
 49
17.361408
 49
-1718.7801530488
 53
101.309932474
 43
146.304
 44
0.0
 45
-203.2
 46
812.8
 79
2
 49
10.361168
 49
-1025.7595971624
 53
165.963756532
 43
144.272
 44
10.16
 45
609.6
 46
-203.2
 79
2
 49
41.890696
 49
-795.9243671256
 53
186.00900596
 43
103.632
 44
20.32
 45
2031.9999999896
 46
203.2000001064
 79
2
 49
38.82136
 49
-3843.3091890672
 53
303.69006753
 43
125.984
 44
125.984
 45
-203.200000028
 46
406.3999999856
 79
2
 49
29.3059104
 49
-703.3421087744
 53
353.15722659
 43
142.24
 44
101.6
 45
3454.4000000216
 46
-406.3999998192
 79
2
 49
51.1645408
 49
-5065.2807252024
 53
60.9453959
 43
193.04
 44
95.504
 45
-812.8000000224
 46
-1422.3999999872
 79
2
 49
20.9206592
 49
-2071.1513854488
 53
90.0
 43
203.2
 44
113.792
 45
-203.2
 46
203.2
 79
2
 49
12.192
 49
-191.008
 53
120.25643716
 43
99.568
 44
26.416
 45
812.7999999008
 46
-1422.4000000568
 79
2
 49
28.2293568
 49
-2794.715261856
 53
48.0127875
 43
85.344
 44
50.8
 45
1625.6000001344
 46
1828.7999998808
 79
2
 49
54.6754304
 49
-2679.1009759656
 53
0.0
 43
121.92
 44
91.44
 45
203.2
 46
203.2
 79
2
 49
52.832
 49
-150.368
 53
325.3048465
 43
174.752
 44
91.44
 45
2032.0000007696
 46
-1422.3999989
 79
2
 49
32.1287648
 49
-3180.7453379312
 53
254.0546041
 43
201.168
 44
73.152
 45
-203.1999999856
 46
-812.8000000032
 79
2
 49
29.5863264
 49
-1449.7320031016
 53
207.64597536
 43
193.04
 44
44.704
 45
-3860.8000001416
 46
-2031.9999997304
 79
2
 49
48.171608
 49
-4768.9971538352
 53
175.42607874
 43
150.368
 44
22.352
 45
-2641.6
 46
203.2
 79
2
 49
50.9623568
 49
-5045.2677164992
 98
0
  0
LINE
  5
E5
330
17
100
AcDbEntity
  8
PAVE-OUTLINE
100
AcDbLine
 10
4000.0
 20
-490.0
 30
0.0
 11
5000.0
 21
-490.0
 31
0.0
  0
LINE
  5
E6
330
17
100
AcDbEntity
  8
PAVE-OUTLINE
100
AcDbLine
 10
4000.0
 20
-640.0
 30
0.0
 11
5000.0
 21
-640.0
 31
0.0
  0
HATCH
  5
E7
330
17
100
AcDbEntity
  8
PAVE-ROADBASE
100
AcDbHatch
 10
0.0
 20
0.0
 30
0.0
210
0.0
220
0.0
230
1.0
  2
GRAVEL
 70
0
 71
0
 91
1
 92
3
 72
0
 73
1
 93
4
 10
4000.0
 20
-640.0
 10
5000.0
 20
-640.0
 10
5000.0
 20
-790.0
 10
4000.0
 20
-790.0
 97
0
 75
1
 76
1
 52
0.0
 41
8.0
 77
0
 78
41
 53
228.0127875
 43
146.304
 44
203.2
 45
-1625.600000128
 46
-1828.7999998864
 79
2
 49
27.3377152
 49
-2706.4386911648
 53
184.969741
 43
128.016
 44
182.88
 45
2438.3999990352
 46
203.200011576
 79
2
 49
46.9123776
 49
-4644.3239114816
 53
132.5104471
 43
81.28
 44
178.816
 45
2032.0000008584
 46
-2235.19999922
 79
2
 49
33.0785216
 49
-3274.777823528
 53
267.273689
 43
2.032
 44
128.016
 45
203.2000004256
 46
4063.9999999784
 79
2
 49
42.7203616
 49
-4229.3149940592
 53
292.83365418
 43
0.0
 44
85.344
 45
-1016.0000000848
 46
2438.3999999648
 79
2
 49
41.890696
 49
-4147.1846196272
 53
357.273689
 43
16.256
 44
46.736
 45
-4063.9999999784
 46
203.2000004256
 79
2
 49
42.7203616
 49
-4229.3149940592
 53
37.69424047
 43
58.928
 44
44.704
 45
-2641.5999998832
 46
-2032.000000152
 79
2
 49
56.4954928
 49
-5593.04922514
 53
72.25532837
 43
103.632
 44
79.248
 45
1422.4000003824
 46
4470.3999998784
 79
2
 49
53.3375616
 49
-5280.4205281528
 53
121.42956562
 43
119.888
 44
130.048
 45
-1625.6000002304
 46
2641.5999998584
 79
2
 49
42.86504
 49
-4243.6436558968
 53
175.2363583
 43
97.536
 44
166.624
 45
2235.199999968
 46
-203.2000003512
 79
2
 49
48.9370624
 49
-2397.914956
 53
222.3974378
 43
48.768
 44
170.688
 45
-2438.3999999216
 46
-2235.2000000848
 79
2
 49
63.2862336
 49
-6265.3418009744
 53
138.81407483
 43
203.2
 44
125.984
 45
-1422.3999999144
 46
1219.2000000992
 79
2
 49
21.6003632
 49
-2138.4452659472
 53
171.4692344
 43
186.944
 44
140.208
 45
2641.6000000712
 46
-406.3999995392
 79
2
 49
41.0945584
 49
-4068.3711197632
 53
225.0
 43
146.304
 44
146.304
 45
-0.0
 46
-203.2
 79
2
 49
28.7367472
 49
-258.6314486744
 53
203.19859051
 43
132.08
 44
170.688
 45
1016.000000028
 46
406.3999999288
 79
2
 49
15.4753056
 49
-1532.0497895112
 53
291.80140949
 43
117.856
 44
164.592
 45
-203.2000000424
 46
609.5999999856
 79
2
 49
21.8852496
 49
-1072.3802392
 53
30.96375653
 43
125.984
 44
144.272
 45
609.6000000152
 46
406.3999999776
 79
2
 49
35.5455728
 49
-1149.3038522328
 53
161.56505118
 43
156.464
 44
162.56
 45
406.4000000104
 46
-203.1999999784
 79
2
 49
25.7029712
 49
-616.8718493464
 53
16.389540334
 43
0.0
 44
164.592
 45
2032.0
 46
609.6
 79
2
 49
36.00704
 49
-3564.7061338032
 53
70.34617594
 43
34.544
 44
174.752
 45
-812.8000000744
 46
-2235.1999999736
 79
2
 49
30.2079152
 49
-2990.577254256
 53
293.19859051
 43
156.464
 44
203.2
 45
-406.3999999288
 46
1016.0000000288
 79
2
 49
30.950408
 49
-1516.5746871112
 53
343.61045967
 43
168.656
 44
174.752
 45
-2032.0000000424
 46
609.5999998576
 79
2
 49
36.00704
 49
-3564.7061338032
 53
339.44395478
 43
0.0
 44
38.608
 45
-1016.0
 46
406.4
 79
2
 49
34.722816
 49
-1701.4187450488
 53
294.7751406
 43
32.512
 44
26.416
 45
-1016.0000012096
 46
2235.1999994504
 79
2
 49
29.0937696
 49
-2880.2874704576
 53
66.80140949
 43
158.496
 44
0.0
 45
406.399999936
 46
1016.0000000256
 79
2
 49
30.950408
 49
-1516.5746871112
 53
17.35402464
 43
170.688
 44
28.448
 45
-2641.5999999472
 46
-812.8000001704
 79
2
 49
34.0626192
 49
-3372.190078416
 53
69.44395478
 43
58.928
 44
0.0
 45
-406.4000000072
 46
-1015.9999999968
 79
2
 49
17.361408
 49
-1718.7801530488
 53
101.309932474
 43
146.304
 44
0.0
 45
-203.2
 46
812.8
 79
2
 49
10.361168
 49
-1025.7595971624
 53
165.963756532
 43
144.272
 44
10.16
 45
609.6
 46
-203.2
 79
2
 49
41.890696
 49
-795.9243671256
 53
186.00900596
 43
103.632
 44
20.32
 45
2031.9999999896
 46
203.2000001064
 79
2
 49
38.82136
 49
-3843.3091890672
 53
303.69006753
 43
125.984
 44
125.984
 45
-203.200000028
 46
406.3999999856
 79
2
 49
29.3059104
 49
-703.3421087744
 53
353.15722659
 43
142.24
 44
101.6
 45
3454.4000000216
 46
-406.3999998192
 79
2
 49
51.1645408
 49
-5065.2807252024
 53
60.9453959
 43
193.04
 44
95.504
 45
-812.8000000224
 46
-1422.3999999872
 79
2
 49
20.9206592
 49
-2071.1513854488
 53
90.0
 43
203.2
 44
113.792
 45
-203.2
 46
203.2
 79
2
 49
12.192
 49
-191.008
 53
120.25643716
 43
99.568
 44
26.416
 45
812.7999999008
 46
-1422.4000000568
 79
2
 49
28.2293568
 49
-2794.715261856
 53
48.0127875
 43
85.344
 44
50.8
 45
1625.6000001344
 46
1828.7999998808
 79
2
 49
54.6754304
 49
-2679.1009759656
 53
0.0
 43
121.92
 44
91.44
 45
203.2
 46
203.2
 79
2
 49
52.832
 49
-150.368
 53
325.3048465
 43
174.752
 44
91.44
 45
2032.0000007696
 46
-1422.3999989
 79
2
 49
32.1287648
 49
-3180.7453379312
 53
254.0546041
 43
201.168
 44
73.152
 45
-203.1999999856
 46
-812.8000000032
 79
2
 49
29.5863264
 49
-1449.7320031016
 53
207.64597536
 43
193.04
 44
44.704
 45
-3860.8000001416
 46
-2031.9999997304
 79
2
 49
48.171608
 49
-4768.9971538352
 53
175.42607874
 43
150.368
 44
22.352
 45
-2641.6
 46
203.2
 79
2
 49
50.9623568
 49
-5045.2677164992
 98
0
  0
LINE
  5
E8
330
17
100
AcDbEntity
  8
PAVE-OUTLINE
100
AcDbLine
 10
4000.0
 20
-640.0
 30
0.0
 11
5000.0
 21
-640.0
 31
0.0
  0
LINE
  5
E9
330
17
100
AcDbEntity
  8
PAVE-OUTLINE
100
AcDbLine
 10
4000.0
 20
-790.0
 30
0.0
 11
5000.0
 21
-790.0
 31
0.0
  0
HATCH
  5
EA
330
17
100
AcDbEntity
  8
PAVE-SUBGRADE
100
AcDbHatch
 10
0.0
 20
0.0
 30
0.0
210
0.0
220
0.0
230
1.0
  2
EARTH
 70
0
 71
0
 91
1
 92
3
 72
0
 73
1
 93
4
 10
4000.0
 20
-790.0
 10
5000.0
 20
-790.0
 10
5000.0
 20
-990.0
 10
4000.0
 20
-990.0
 97
0
 75
1
 76
1
 52
45.0
 41
12.0
 77
0
 78
6
 53
45.0
 43
0.0
 44
0.0
 45
0.0
 46
107.7630734528
 79
2
 49
76.2
 49
-76.2
 53
45.0
 43
-20.2055762724
 44
20.2055762724
 45
0.0
 46
107.7630734528
 79
2
 49
76.2
 49
-76.2
 53
45.0
 43
-40.4111525448
 44
40.4111525448
 45
0.0
 46
107.7630734528
 79
2
 49
76.2
 49
-76.2
 53
135.0
 43
-40.4111525448
 44
53.8815367264
 45
-107.7630734528
 46
0.0
 79
2
 49
76.2
 49
-76.2
 53
135.0
 43
-20.2055762724
 44
74.0871129988
 45
-107.7630734528
 46
0.0
 79
2
 49
76.2
 49
-76.2
 53
135.0
 43
0.0
 44
94.2926892712
 45
-107.7630734528
 46
0.0
 79
2
 49
76.2
 49
-76.2
 98
0
  0
LINE
  5
EB
330
17
100
AcDbEntity
  8
PAVE-OUTLINE
100
AcDbLine
 10
4000.0
 20
-790.0
 30
0.0
 11
5000.0
 21
-790.0
 31
0.0
  0
LWPOLYLINE
  5
EC
330
17
100
AcDbEntity
  8
PAVE-BREAK
100
AcDbPolyline
 90
6
 70
0
 10
4000.0
 20
-370.0
 10
4000.0
 20
-665.0
 10
3980.0
 20
-680.0
 10
4020.0
 20
-710.0
 10
4000.0
 20
-725.0
 10
4000.0
 20
-1020.0
  0
LWPOLYLINE
  5
ED
330
17
100
AcDbEntity
  8
PAVE-BREAK
100
AcDbPolyline
 90
6
 70
0
 10
5000.0
 20
-370.0
 10
5000.0
 20
-665.0
 10
4980.0
 20
-680.0
 10
5020.0
 20
-710.0
 10
5000.0
 20
-725.0
 10
5000.0
 20
-1020.0
  0
LINE
  5
EE
330
17
100
AcDbEntity
  8
PAVE-DIM
100
AcDbLine
 10
3880.0
 20
-400.0
 30
0.0
 11
3880.0
 21
-460.0
 31
0.0
  0
LINE
  5
EF
330
17
100
AcDbEntity
  8
PAVE-DIM
100
AcDbLine
 10
3840.0
 20
-400.0
 30
0.0
 11
3895.0
 21
-400.0
 31
0.0
  0
LINE
  5
F0
330
17
100
AcDbEntity
  8
PAVE-DIM
100
AcDbLine
 10
3868.0
 20
-412.0
 30
0.0
 11
3892.0
 21
-388.0
 31
0.0
  0
LINE
  5
F1
330
17
100
AcDbEntity
  8
PAVE-DIM
100
AcDbLine
 10
3840.0
 20
-460.0
 30
0.0
 11
3895.0
 21
-460.0
 31
0.0
  0
LINE
  5
F2
330
17
100
AcDbEntity
  8
PAVE-DIM
100
AcDbLine
 10
3868.0
 20
-472.0
 30
0.0
 11
3892.0
 21
-448.0
 31
0.0
  0
TEXT
  5
F3
330
17
100
AcDbEntity
  8
PAVE-DIM
100
AcDbText
 10
3830.0
 20
-430.0
 30
0.0
 40
25.0
  1
60
  7
PAVE-TEXT
 72
2
 11
3830.0
 21
-430.0
 31
0.0
100
AcDbText
 73
2
  0
LINE
  5
F4
330
17
100
AcDbEntity
  8
PAVE-DIM
100
AcDbLine
 10
3880.0
 20
-460.0
 30
0.0
 11
3880.0
 21
-490.0
 31
0.0
  0
LINE
  5
F5
330
17
100
AcDbEntity
  8
PAVE-DIM
100
AcDbLine
 10
3840.0
 20
-460.0
 30
0.0
 11
3895.0
 21
-460.0
 31
0.0
  0
LINE
  5
F6
330
17
100
AcDbEntity
  8
PAVE-DIM
100
AcDbLine
 10
3868.0
 20
-472.0
 30
0.0
 11
3892.0
 21
-448.0
 31
0.0
  0
LINE
  5
F7
330
17
100
AcDbEntity
  8
PAVE-DIM
100
AcDbLine
 10
3840.0
 20
-490.0
 30
0.0
 11
3895.0
 21
-490.0
 31
0.0
  0
LINE
  5
F8
330
17
100
AcDbEntity
  8
PAVE-DIM
100
AcDbLine
 10
3868.0
 20
-502.0
 30
0.0
 11
3892.0
 21
-478.0
 31
0.0
  0
TEXT
  5
F9
330
17
100
AcDbEntity
  8
PAVE-DIM
100
AcDbText
 10
3830.0
 20
-475.0
 30
0.0
 40
25.0
  1
30
  7
PAVE-TEXT
 72
2
 11
3830.0
 21
-475.0
 31
0.0
100
AcDbText
 73
2
  0
LINE
  5
FA
330
17
100
AcDbEntity
  8
PAVE-DIM
100
AcDbLine
 10
3880.0
 20
-490.0
 30
0.0
 11
3880.0
 21
-640.0
 31
0.0
  0
LINE
  5
FB
330
17
100
AcDbEntity
  8
PAVE-DIM
100
AcDbLine
 10
3840.0
 20
-490.0
 30
0.0
 11
3895.0
 21
-490.0
 31
0.0
  0
LINE
  5
FC
330
17
100
AcDbEntity
  8
PAVE-DIM
100
AcDbLine
 10
3868.0
 20
-502.0
 30
0.0
 11
3892.0
 21
-478.0
 31
0.0
  0
LINE
  5
FD
330
17
100
AcDbEntity
  8
PAVE-DIM
100
AcDbLine
 10
3840.0
 20
-640.0
 30
0.0
 11
3895.0
 21
-640.0
 31
0.0
  0
LINE
  5
FE
330
17
100
AcDbEntity
  8
PAVE-DIM
100
AcDbLine
 10
3868.0
 20
-652.0
 30
0.0
 11
3892.0
 21
-628.0
 31
0.0
  0
TEXT
  5
FF
330
17
100
AcDbEntity
  8
PAVE-DIM
100
AcDbText
 10
3860.0
 20
-565.0
 30
0.0
 40
25.0
  1
150
 50
90.0
  7
PAVE-TEXT
 72
1
 11
3860.0
 21
-565.0
 31
0.0
100
AcDbText
 73
1
  0
LINE
  5
100
330
17
100
AcDbEntity
  8
PAVE-DIM
100
AcDbLine
 10
3880.0
 20
-640.0
 30
0.0
 11
3880.0
 21
-790.0
 31
0.0
  0
LINE
  5
101
330
17
100
AcDbEntity
  8
PAVE-DIM
100
AcDbLine
 10
3840.0
 20
-640.0
 30
0.0
 11
3895.0
 21
-640.0
 31
0.0
  0
LINE
  5
102
330
17
100
AcDbEntity
  8
PAVE-DIM
100
AcDbLine
 10
3868.0
 20
-652.0
 30
0.0
 11
3892.0
 21
-628.0
 31
0.0
  0
LINE
  5
103
330
17
100
AcDbEntity
  8
PAVE-DIM
100
AcDbLine
 10
3840.0
 20
-790.0
 30
0.0
 11
3895.0
 21
-790.0
 31
0.0
  0
LINE
  5
104
330
17
100
AcDbEntity
  8
PAVE-DIM
100
AcDbLine
 10
3868.0
 20
-802.0
 30
0.0
 11
3892.0
 21
-778.0
 31
0.0
  0
TEXT
  5
105
330
17
100
AcDbEntity
  8
PAVE-DIM
100
AcDbText
 10
3860.0
 20
-715.0
 30
0.0
 40
25.0
  1
150
 50
90.0
  7
PAVE-TEXT
 72
1
 11
3860.0
 21
-715.0
 31
0.0
100
AcDbText
 73
1
  0
LWPOLYLINE
  5
106
330
17
100
AcDbEntity
  8
PAVE-ANNO
100
AcDbPolyline
 90
3
 70
1
 10
4150.0
 20
-400.0
 10
4120.0
 20
-358.0
 10
4180.0
 20
-358.0
  0
LINE
  5
107
330
17
100
AcDbEntity
  8
PAVE-ANNO
100
AcDbLine
 10
4090.0
 20
-358.0
 30
0.0
 11
4550.0
 21
-358.0
 31
0.0
  0
TEXT
  5
108
330
17
100
AcDbEntity
  8
PAVE-ANNO
100
AcDbText
 10
4195.0
 20
-348.0
 30
0.0
 40
25.0
  1
FINISHED SURFACE LEVEL
  7
PAVE-TEXT
 11
4195.0
 21
-348.0
 31
0.0
100
AcDbText
 73
1
  0
CIRCLE
  5
109
330
17
100
AcDbEntity
  8
PAVE-ANNO
100
AcDbCircle
 10
4550.0
 20
-430.0
 30
0.0
 40
6.0
  0
HATCH
  5
10A
330
17
100
AcDbEntity
  8
PAVE-ANNO
100
AcDbHatch
 10
0.0
 20
0.0
 30
0.0
210
0.0
220
0.0
230
1.0
  2
SOLID
 70
1
 71
0
 91
1
 92
1
 93
1
 72
2
 10
4550.0
 20
-430.0
 40
6
 50
0
 51
360
 73
1
 97
0
 75
0
 76
1
 98
0
  0
LWPOLYLINE
  5
10B
330
17
100
AcDbEntity
  8
PAVE-ANNO
100
AcDbPolyline
 90
3
 70
0
 10
4550.0
 20
-430.0
 10
5120.0
 20
-430.0
 10
5285.0
 20
-430.0
  0
TEXT
  5
10C
330
17
100
AcDbEntity
  8
PAVE-ANNO
100
AcDbText
 10
5300.0
 20
-430.0
 30
0.0
 40
25.0
  1
60mm THICK PAVER, REFER LANDSCAPE SPECIFICATION
  7
PAVE-TEXT
 11
5300.0
 21
-430.0
 31
0.0
100
AcDbText
 73
2
  0
CIRCLE
  5
10D
330
17
100
AcDbEntity
  8
PAVE-ANNO
100
AcDbCircle
 10
4630.0
 20
-475.0
 30
0.0
 40
6.0
  0
HATCH
  5
10E
330
17
100
AcDbEntity
  8
PAVE-ANNO
100
AcDbHatch
 10
0.0
 20
0.0
 30
0.0
210
0.0
220
0.0
230
1.0
  2
SOLID
 70
1
 71
0
 91
1
 92
1
 93
1
 72
2
 10
4630.0
 20
-475.0
 40
6
 50
0
 51
360
 73
1
 97
0
 75
0
 76
1
 98
0
  0
LWPOLYLINE
  5
10F
330
17
100
AcDbEntity
  8
PAVE-ANNO
100
AcDbPolyline
 90
3
 70
0
 10
4630.0
 20
-475.0
 10
5120.0
 20
-490.0
 10
5285.0
 20
-490.0
  0
TEXT
  5
110
330
17
100
AcDbEntity
  8
PAVE-ANNO
100
AcDbText
 10
5300.0
 20
-490.0
 30
0.0
 40
25.0
  1
30mm THICK MORTAR BED
  7
PAVE-TEXT
 11
5300.0
 21
-490.0
 31
0.0
100
AcDbText
 73
2
  0
CIRCLE
  5
111
330
17
100
AcDbEntity
  8
PAVE-ANNO
100
AcDbCircle
 10
4710.0
 20
-565.0
 30
0.0
 40
6.0
  0
HATCH
  5
112
330
17
100
AcDbEntity
  8
PAVE-ANNO
100
AcDbHatch
 10
0.0
 20
0.0
 30
0.0
210
0.0
220
0.0
230
1.0
  2
SOLID
 70
1
 71
0
 91
1
 92
1
 93
1
 72
2
 10
4710.0
 20
-565.0
 40
6
 50
0
 51
360
 73
1
 97
0
 75
0
 76
1
 98
0
  0
LWPOLYLINE
  5
113
330
17
100
AcDbEntity
  8
PAVE-ANNO
100
AcDbPolyline
 90
3
 70
0
 10
4710.0
 20
-565.0
 10
5120.0
 20
-565.0
 10
5285.0
 20
-565.0
  0
TEXT
  5
114
330
17
100
AcDbEntity
  8
PAVE-ANNO
100
AcDbText
 10
5300.0
 20
-565.0
 30
0.0
 40
25.0
  1
150mm THICK DGB20 ROAD BASE
  7
PAVE-TEXT
 11
5300.0
 21
-565.0
 31
0.0
100
AcDbText
 73
2
  0
CIRCLE
  5
115
330
17
100
AcDbEntity
  8
PAVE-ANNO
100
AcDbCircle
 10
4790.0
 20
-715.0
 30
0.0
 40
6.0
  0
HATCH
  5
116
330
17
100
AcDbEntity
  8
PAVE-ANNO
100
AcDbHatch
 10
0.0
 20
0.0
 30
0.0
210
0.0
220
0.0
230
1.0
  2
SOLID
 70
1
 71
0
 91
1
 92
1
 93
1
 72
2
 10
4790.0
 20
-715.0
 40
6
 50
0
 51
360
 73
1
 97
0
 75
0
 76
1
 98
0
  0
LWPOLYLINE
  5
117
330
17
100
AcDbEntity
  8
PAVE-ANNO
100
AcDbPolyline
 90
3
 70
0
 10
4790.0
 20
-715.0
 10
5120.0
 20
-715.0
 10
5285.0
 20
-715.0
  0
TEXT
  5
118
330
17
100
AcDbEntity
  8
PAVE-ANNO
100
AcDbText
 10
5300.0
 20
-715.0
 30
0.0
 40
25.0
  1
150mm THICK DGB20 ROAD BASE
  7
PAVE-TEXT
 11
5300.0
 21
-715.0
 31
0.0
100
AcDbText
 73
2
  0
CIRCLE
  5
119
330
17
100
AcDbEntity
  8
PAVE-ANNO
100
AcDbCircle
 10
4870.0
 20
-890.0
 30
0.0
 40
6.0
  0
HATCH
  5
11A
330
17
100
AcDbEntity
  8
PAVE-ANNO
100
AcDbHatch
 10
0.0
 20
0.0
 30
0.0
210
0.0
220
0.0
230
1.0
  2
SOLID
 70
1
 71
0
 91
1
 92
1
 93
1
 72
2
 10
4870.0
 20
-890.0
 40
6
 50
0
 51
360
 73
1
 97
0
 75
0
 76
1
 98
0
  0
LWPOLYLINE
  5
11B
330
17
100
AcDbEntity
  8
PAVE-ANNO
100
AcDbPolyline
 90
3
 70
0
 10
4870.0
 20
-890.0
 10
5120.0
 20
-890.0
 10
5285.0
 20
-890.0
  0
TEXT
  5
11C
330
17
100
AcDbEntity
  8
PAVE-ANNO
100
AcDbText
 10
5300.0
 20
-890.0
 30
0.0
 40
25.0
  1
COMPACTED SUB-GRADE TO 98% MDD STANDARD
  7
PAVE-TEXT
 11
5300.0
 21
-890.0
 31
0.0
100
AcDbText
 73
2
  0
LWPOLYLINE
  5
11D
330
17
100
AcDbEntity
  8
PAVE-TITLE
100
AcDbPolyline
 90
4
 70
1
 10
4000.0
 20
-1250.0
 10
4238.0
 20
-1250.0
 10
4238.0
 20
-1404.0
 10
4000.0
 20
-1404.0
  0
TEXT
  5
11E
330
17
100
AcDbEntity
  8
PAVE-TITLE
100
AcDbText
 10
4119.0
 20
-1327.0
 30
0.0
 40
70.0
  1
P1-B
  7
PAVE-TEXT
 72
1
 11
4119.0
 21
-1327.0
 31
0.0
100
AcDbText
 73
2
  0
TEXT
  5
11F
330
17
100
AcDbEntity
  8
PAVE-TITLE
100
AcDbText
 10
4298.0
 20
-1303.9
 30
0.0
 40
50.0
  1
PAVER TYPE 1 - ON GRADE
  7
PAVE-TEXT
 11
4298.0
 21
-1303.9
 31
0.0
100
AcDbText
 73
2
  0
LINE
  5
120
330
17
100
AcDbEntity
  8
PAVE-TITLE
100
AcDbLine
 10
4298.0
 20
-1345.48
 30
0.0
 11
6500.0
 21
-1345.48
 31
0.0
  0
TEXT
  5
121
330
17
100
AcDbEntity
  8
PAVE-TITLE
100
AcDbText
 10
4298.0
 20
-1376.28
 30
0.0
 40
30.0
  1
SCALE 1:10
  7
PAVE-TEXT
 11
4298.0
 21
-1376.28
 31
0.0
100
AcDbText
 73
2
  0
HATCH
  5
122
330
17
100
AcDbEntity
  8
PAVE-PAVER
100
AcDbHatch
 10
0.0
 20
0.0
 30
0.0
210
0.0
220
0.0
230
1.0
  2
ANSI31
 70
0
 71
0
 91
1
 92
3
 72
0
 73
1
 93
4
 10
7600.0
 20
-400.0
 10
8600.0
 20
-400.0
 10
8600.0
 20
-460.0
 10
7600.0
 20
-460.0
 97
0
 75
1
 76
1
 52
0.0
 41
20.0
 77
0
 78
1
 53
45.0
 43
0.0
 44
0.0
 45
-44.901280606
 46
44.901280606
 79
0
 98
0
  0
LINE
  5
123
330
17
100
AcDbEntity
  8
PAVE-OUTLINE
100
AcDbLine
 10
7600.0
 20
-400.0
 30
0.0
 11
8600.0
 21
-400.0
 31
0.0
  0
LINE
  5
124
330
17
100
AcDbEntity
  8
PAVE-OUTLINE
100
AcDbLine
 10
7600.0
 20
-460.0
 30
0.0
 11
8600.0
 21
-460.0
 31
0.0
  0
LINE
  5
125
330
17
100
AcDbEntity
  8
PAVE-OUTLINE
100
AcDbLine
 10
7700.0
 20
-400.0
 30
0.0
 11
7700.0
 21
-460.0
 31
0.0
  0
LINE
  5
126
330
17
100
AcDbEntity
  8
PAVE-OUTLINE
100
AcDbLine
 10
7900.0
 20
-400.0
 30
0.0
 11
7900.0
 21
-460.0
 31
0.0
  0
LINE
  5
127
330
17
100
AcDbEntity
  8
PAVE-OUTLINE
100
AcDbLine
 10
8100.0
 20
-400.0
 30
0.0
 11
8100.0
 21
-460.0
 31
0.0
  0
LINE
  5
128
330
17
100
AcDbEntity
  8
PAVE-OUTLINE
100
AcDbLine
 10
8300.0
 20
-400.0
 30
0.0
 11
8300.0
 21
-460.0
 31
0.0
  0
LINE
  5
129
330
17
100
AcDbEntity
  8
PAVE-OUTLINE
100
AcDbLine
 10
8500.0
 20
-400.0
 30
0.0
 11
8500.0
 21
-460.0
 31
0.0
  0
HATCH
  5
12A
330
17
100
AcDbEntity
  8
PAVE-MORTAR
100
AcDbHatch
 10
0.0
 20
0.0
 30
0.0
210
0.0
220
0.0
230
1.0
  2
AR-SAND
 70
0
 71
0
 91
1
 92
3
 72
0
 73
1
 93
4
 10
7600.0
 20
-460.0
 10
8600.0
 20
-460.0
 10
8600.0
 20
-490.0
 10
7600.0
 20
-490.0
 97
0
 75
1
 76
1
 52
0.0
 41
1.0
 77
0
 78
4
 53
37.5
 43
0.0
 44
0.0
 45
-1.600031296
 46
48.9413237329
 79
6
 49
0.0
 49
-38.608
 49
0.0
 49
-43.18
 49
0.0
 49
-41.275
 53
7.5
 43
0.0
 44
0.0
 45
44.9523283138
 46
71.6825100568
 79
6
 49
0.0
 49
-20.828
 49
0.0
 49
-34.798
 49
0.0
 49
-13.335
 53
-32.5
 43
-31.242
 44
0.0
 45
79.0992370241
 46
0.1437184679
 79
6
 49
0.0
 49
-12.7
 49
0.0
 49
-45.72
 49
0.0
 49
-59.69
 53
-42.5
 43
-31.242
 44
0.0
 45
76.3556452472
 46
22.2929323257
 79
6
 49
0.0
 49
-6.35
 49
0.0
 49
-29.972
 49
0.0
 49
-34.29
 98
0
  0
LINE
  5
12B
330
17
100
AcDbEntity
  8
PAVE-OUTLINE
100
AcDbLine
 10
7600.0
 20
-460.0
 30
0.0
 11
8600.0
 21
-460.0
 31
0.0
  0
LINE
  5
12C
330
17
100
AcDbEntity
  8
PAVE-OUTLINE
100
AcDbLine
 10
7600.0
 20
-490.0
 30
0.0
 11
8600.0
 21
-490.0
 31
0.0
  0
HATCH
  5
12D
330
17
100
AcDbEntity
  8
PAVE-CONC
100
AcDbHatch
 10
0.0
 20
0.0
 30
0.0
210
0.0
220
0.0
230
1.0
  2
AR-CONC
 70
0
 71
0
 91
1
 92
3
 72
0
 73
1
 93
4
 10
7600.0
 20
-490.0
 10
8600.0
 20
-490.0
 10
8600.0
 20
-690.0
 10
7600.0
 20
-690.0
 97
0
 75
1
 76
1
 52
0.0
 41
1.0
 77
0
 78
13
 53
50.0
 43
0.0
 44
0.0
 45
182.184668996
 46
-15.9390855389
 79
2
 49
19.05
 49
-209.55
 53
355.0
 43
0.0
 44
0.0
 45
-35.243421425
 46
191.056845239
 79
2
 49
15.24
 49
-167.64058417
 53
100.4514447
 43
15.182007
 44
-1.3282535
 45
146.9412470904
 46
175.1177519122
 79
2
 49
16.1900088
 49
-178.0902446
 53
46.1842
 43
0.0
 44
50.8
 45
271.0790408921
 46
-42.0423279327
 79
2
 49
28.575
 49
-314.325
 53
96.63555761
 43
22.5899
 44
47.2965
 45
237.4041340515
 46
247.4261245977
 79
2
 49
24.28502314
 49
-267.13560816
 53
351.18415117
 43
0.0
 44
50.8
 45
237.404134065
 46
247.4261245855
 79
2
 49
22.85996707
 49
-251.45973192
 53
21.0
 43
25.4
 44
38.1
 45
151.6143912691
 46
-102.2651981871
 79
2
 49
19.05
 49
-209.55
 53
326.0
 43
25.4
 44
38.1
 45
61.8020283476
 46
184.1879661223
 79
2
 49
15.24
 49
-167.64
 53
71.451445
 43
38.0345326
 44
29.5779001
 45
213.4164192787
 46
81.9227688859
 79
2
 49
16.1900088
 49
-178.0899376
 53
37.5
 43
0.0
 44
0.0
 45
3.0886032506
 46
84.5550388732
 79
6
 49
0.0
 49
-165.608
 49
0.0
 49
-170.18
 49
0.0
 49
-168.275
 53
7.5
 43
0.0
 44
0.0
 45
66.8196625103
 46
100.1805748181
 79
6
 49
0.0
 49
-97.028
 49
0.0
 49
-161.798
 49
0.0
 49
-64.135
 53
-32.5
 43
-56.642
 44
0.0
 45
135.5905951669
 46
-5.7287439927
 79
6
 49
0.0
 49
-63.5
 49
0.0
 49
-198.12
 49
0.0
 49
-262.89
 53
-42.5
 43
-82.042
 44
0.0
 45
148.129181386
 46
25.4264910333
 79
6
 49
0.0
 49
-82.55
 49
0.0
 49
-131.572
 49
0.0
 49
-186.69
 98
0
  0
LINE
  5
12E
330
17
100
AcDbEntity
  8
PAVE-OUTLINE
100
AcDbLine
 10
7600.0
 20
-490.0
 30
0.0
 11
8600.0
 21
-490.0
 31
0.0
  0
LINE
  5
12F
330
17
100
AcDbEntity
  8
PAVE-OUTLINE
100
AcDbLine
 10
7600.0
 20
-690.0
 30
0.0
 11
8600.0
 21
-690.0
 31
0.0
  0
LWPOLYLINE
  5
130
330
17
100
AcDbEntity
  8
PAVE-VOID
  6
DASHED
100
AcDbPolyline
 90
4
 70
0
 10
7600.0
 20
-690.0
 10
7600.0
 20
-940.0
 10
8600.0
 20
-940.0
 10
8600.0
 20
-690.0
  0
TEXT
  5
131
330
17
100
AcDbEntity
  8
PAVE-VOID
100
AcDbText
 10
8100.0
 20
-815.0
 30
0.0
 40
35.0
  1
VOID
  7
PAVE-TEXT
 72
1
 11
8100.0
 21
-815.0
 31
0.0
100
AcDbText
 73
2
  0
LWPOLYLINE
  5
132
330
17
100
AcDbEntity
  8
PAVE-BREAK
100
AcDbPolyline
 90
6
 70
0
 10
7600.0
 20
-370.0
 10
7600.0
 20
-515.0
 10
7580.0
 20
-530.0
 10
7620.0
 20
-560.0
 10
7600.0
 20
-575.0
 10
7600.0
 20
-720.0
  0
LWPOLYLINE
  5
133
330
17
100
AcDbEntity
  8
PAVE-BREAK
100
AcDbPolyline
 90
6
 70
0
 10
8600.0
 20
-370.0
 10
8600.0
 20
-515.0
 10
8580.0
 20
-530.0
 10
8620.0
 20
-560.0
 10
8600.0
 20
-575.0
 10
8600.0
 20
-720.0
  0
LINE
  5
134
330
17
100
AcDbEntity
  8
PAVE-DIM
100
AcDbLine
 10
7480.0
 20
-400.0
 30
0.0
 11
7480.0
 21
-460.0
 31
0.0
  0
LINE
  5
135
330
17
100
AcDbEntity
  8
PAVE-DIM
100
AcDbLine
 10
7440.0
 20
-400.0
 30
0.0
 11
7495.0
 21
-400.0
 31
0.0
  0
LINE
  5
136
330
17
100
AcDbEntity
  8
PAVE-DIM
100
AcDbLine
 10
7468.0
 20
-412.0
 30
0.0
 11
7492.0
 21
-388.0
 31
0.0
  0
LINE
  5
137
330
17
100
AcDbEntity
  8
PAVE-DIM
100
AcDbLine
 10
7440.0
 20
-460.0
 30
0.0
 11
7495.0
 21
-460.0
 31
0.0
  0
LINE
  5
138
330
17
100
AcDbEntity
  8
PAVE-DIM
100
AcDbLine
 10
7468.0
 20
-472.0
 30
0.0
 11
7492.0
 21
-448.0
 31
0.0
  0
TEXT
  5
139
330
17
100
AcDbEntity
  8
PAVE-DIM
100
AcDbText
 10
7430.0
 20
-430.0
 30
0.0
 40
25.0
  1
60
  7
PAVE-TEXT
 72
2
 11
7430.0
 21
-430.0
 31
0.0
100
AcDbText
 73
2
  0
LINE
  5
13A
330
17
100
AcDbEntity
  8
PAVE-DIM
100
AcDbLine
 10
7480.0
 20
-460.0
 30
0.0
 11
7480.0
 21
-490.0
 31
0.0
  0
LINE
  5
13B
330
17
100
AcDbEntity
  8
PAVE-DIM
100
AcDbLine
 10
7440.0
 20
-460.0
 30
0.0
 11
7495.0
 21
-460.0
 31
0.0
  0
LINE
  5
13C
330
17
100
AcDbEntity
  8
PAVE-DIM
100
AcDbLine
 10
7468.0
 20
-472.0
 30
0.0
 11
7492.0
 21
-448.0
 31
0.0
  0
LINE
  5
13D
330
17
100
AcDbEntity
  8
PAVE-DIM
100
AcDbLine
 10
7440.0
 20
-490.0
 30
0.0
 11
7495.0
 21
-490.0
 31
0.0
  0
LINE
  5
13E
330
17
100
AcDbEntity
  8
PAVE-DIM
100
AcDbLine
 10
7468.0
 20
-502.0
 30
0.0
 11
7492.0
 21
-478.0
 31
0.0
  0
TEXT
  5
13F
330
17
100
AcDbEntity
  8
PAVE-DIM
100
AcDbText
 10
7430.0
 20
-475.0
 30
0.0
 40
25.0
  1
30
  7
PAVE-TEXT
 72
2
 11
7430.0
 21
-475.0
 31
0.0
100
AcDbText
 73
2
  0
LWPOLYLINE
  5
140
330
17
100
AcDbEntity
  8
PAVE-ANNO
100
AcDbPolyline
 90
3
 70
1
 10
7750.0
 20
-400.0
 10
7720.0
 20
-358.0
 10
7780.0
 20
-358.0
  0
LINE
  5
141
330
17
100
AcDbEntity
  8
PAVE-ANNO
100
AcDbLine
 10
7690.0
 20
-358.0
 30
0.0
 11
8150.0
 21
-358.0
 31
0.0
  0
TEXT
  5
142
330
17
100
AcDbEntity
  8
PAVE-ANNO
100
AcDbText
 10
7795.0
 20
-348.0
 30
0.0
 40
25.0
  1
FINISHED SURFACE LEVEL
  7
PAVE-TEXT
 11
7795.0
 21
-348.0
 31
0.0
100
AcDbText
 73
1
  0
CIRCLE
  5
143
330
17
100
AcDbEntity
  8
PAVE-ANNO
100
AcDbCircle
 10
8150.0
 20
-430.0
 30
0.0
 40
6.0
  0
HATCH
  5
144
330
17
100
AcDbEntity
  8
PAVE-ANNO
100
AcDbHatch
 10
0.0
 20
0.0
 30
0.0
210
0.0
220
0.0
230
1.0
  2
SOLID
 70
1
 71
0
 91
1
 92
1
 93
1
 72
2
 10
8150.0
 20
-430.0
 40
6
 50
0
 51
360
 73
1
 97
0
 75
0
 76
1
 98
0
  0
LWPOLYLINE
  5
145
330
17
100
AcDbEntity
  8
PAVE-ANNO
100
AcDbPolyline
 90
3
 70
0
 10
8150.0
 20
-430.0
 10
8720.0
 20
-430.0
 10
8885.0
 20
-430.0
  0
TEXT
  5
146
330
17
100
AcDbEntity
  8
PAVE-ANNO
100
AcDbText
 10
8900.0
 20
-430.0
 30
0.0
 40
25.0
  1
60mm THICK PAVER, REFER LANDSCAPE SPECIFICATION
  7
PAVE-TEXT
 11
8900.0
 21
-430.0
 31
0.0
100
AcDbText
 73
2
  0
CIRCLE
  5
147
330
17
100
AcDbEntity
  8
PAVE-ANNO
100
AcDbCircle
 10
8230.0
 20
-475.0
 30
0.0
 40
6.0
  0
HATCH
  5
148
330
17
100
AcDbEntity
  8
PAVE-ANNO
100
AcDbHatch
 10
0.0
 20
0.0
 30
0.0
210
0.0
220
0.0
230
1.0
  2
SOLID
 70
1
 71
0
 91
1
 92
1
 93
1
 72
2
 10
8230.0
 20
-475.0
 40
6
 50
0
 51
360
 73
1
 97
0
 75
0
 76
1
 98
0
  0
LWPOLYLINE
  5
149
330
17
100
AcDbEntity
  8
PAVE-ANNO
100
AcDbPolyline
 90
3
 70
0
 10
8230.0
 20
-475.0
 10
8720.0
 20
-490.0
 10
8885.0
 20
-490.0
  0
TEXT
  5
14A
330
17
100
AcDbEntity
  8
PAVE-ANNO
100
AcDbText
 10
8900.0
 20
-490.0
 30
0.0
 40
25.0
  1
30mm THICK MORTAR BED
  7
PAVE-TEXT
 11
8900.0
 21
-490.0
 31
0.0
100
AcDbText
 73
2
  0
CIRCLE
  5
14B
330
17
100
AcDbEntity
  8
PAVE-ANNO
100
AcDbCircle
 10
8310.0
 20
-590.0
 30
0.0
 40
6.0
  0
HATCH
  5
14C
330
17
100
AcDbEntity
  8
PAVE-ANNO
100
AcDbHatch
 10
0.0
 20
0.0
 30
0.0
210
0.0
220
0.0
230
1.0
  2
SOLID
 70
1
 71
0
 91
1
 92
1
 93
1
 72
2
 10
8310.0
 20
-590.0
 40
6
 50
0
 51
360
 73
1
 97
0
 75
0
 76
1
 98
0
  0
LWPOLYLINE
  5
14D
330
17
100
AcDbEntity
  8
PAVE-ANNO
100
AcDbPolyline
 90
3
 70
0
 10
8310.0
 20
-590.0
 10
8720.0
 20
-590.0
 10
8885.0
 20
-590.0
  0
TEXT
  5
14E
330
17
100
AcDbEntity
  8
PAVE-ANNO
100
AcDbText
 10
8900.0
 20
-590.0
 30
0.0
 40
25.0
  1
NEW SLAB TO STRUCTURAL ENGINEER'S SPECIFICATION
  7
PAVE-TEXT
 11
8900.0
 21
-590.0
 31
0.0
100
AcDbText
 73
2
  0
LWPOLYLINE
  5
14F
330
17
100
AcDbEntity
  8
PAVE-TITLE
100
AcDbPolyline
 90
4
 70
1
 10
7600.0
 20
-1250.0
 10
7838.0
 20
-1250.0
 10
7838.0
 20
-1404.0
 10
7600.0
 20
-1404.0
  0
TEXT
  5
150
330
17
100
AcDbEntity
  8
PAVE-TITLE
100
AcDbText
 10
7719.0
 20
-1327.0
 30
0.0
 40
70.0
  1
P1-C
  7
PAVE-TEXT
 72
1
 11
7719.0
 21
-1327.0
 31
0.0
100
AcDbText
 73
2
  0
TEXT
  5
151
330
17
100
AcDbEntity
  8
PAVE-TITLE
100
AcDbText
 10
7898.0
 20
-1303.9
 30
0.0
 40
50.0
  1
PAVER TYPE 1 - OVER VOID
  7
PAVE-TEXT
 11
7898.0
 21
-1303.9
 31
0.0
100
AcDbText
 73
2
  0
LINE
  5
152
330
17
100
AcDbEntity
  8
PAVE-TITLE
100
AcDbLine
 10
7898.0
 20
-1345.48
 30
0.0
 11
10100.0
 21
-1345.48
 31
0.0
  0
TEXT
  5
153
330
17
100
AcDbEntity
  8
PAVE-TITLE
100
AcDbText
 10
7898.0
 20
-1376.28
 30
0.0
 40
30.0
  1
SCALE 1:10
  7
PAVE-TEXT
 11
7898.0
 21
-1376.28
 31
0.0
100
AcDbText
 73
2
  0
HATCH
  5
154
330
17
100
AcDbEntity
  8
PAVE-PAVER
100
AcDbHatch
 10
0.0
 20
0.0
 30
0.0
210
0.0
220
0.0
230
1.0
  2
ANSI31
 70
0
 71
0
 91
1
 92
3
 72
0
 73
1
 93
4
 10
400.0
 20
-2300.0
 10
1400.0
 20
-2300.0
 10
1400.0
 20
-2360.0
 10
400.0
 20
-2360.0
 97
0
 75
1
 76
1
 52
0.0
 41
20.0
 77
0
 78
1
 53
45.0
 43
0.0
 44
0.0
 45
-44.901280606
 46
44.901280606
 79
0
 98
0
  0
LINE
  5
155
330
17
100
AcDbEntity
  8
PAVE-OUTLINE
100
AcDbLine
 10
400.0
 20
-2300.0
 30
0.0
 11
1400.0
 21
-2300.0
 31
0.0
  0
LINE
  5
156
330
17
100
AcDbEntity
  8
PAVE-OUTLINE
100
AcDbLine
 10
400.0
 20
-2360.0
 30
0.0
 11
1400.0
 21
-2360.0
 31
0.0
  0
LINE
  5
157
330
17
100
AcDbEntity
  8
PAVE-OUTLINE
100
AcDbLine
 10
500.0
 20
-2300.0
 30
0.0
 11
500.0
 21
-2360.0
 31
0.0
  0
LINE
  5
158
330
17
100
AcDbEntity
  8
PAVE-OUTLINE
100
AcDbLine
 10
700.0
 20
-2300.0
 30
0.0
 11
700.0
 21
-2360.0
 31
0.0
  0
LINE
  5
159
330
17
100
AcDbEntity
  8
PAVE-OUTLINE
100
AcDbLine
 10
900.0
 20
-2300.0
 30
0.0
 11
900.0
 21
-2360.0
 31
0.0
  0
LINE
  5
15A
330
17
100
AcDbEntity
  8
PAVE-OUTLINE
100
AcDbLine
 10
1100.0
 20
-2300.0
 30
0.0
 11
1100.0
 21
-2360.0
 31
0.0
  0
LINE
  5
15B
330
17
100
AcDbEntity
  8
PAVE-OUTLINE
100
AcDbLine
 10
1300.0
 20
-2300.0
 30
0.0
 11
1300.0
 21
-2360.0
 31
0.0
  0
HATCH
  5
15C
330
17
100
AcDbEntity
  8
PAVE-MORTAR
100
AcDbHatch
 10
0.0
 20
0.0
 30
0.0
210
0.0
220
0.0
230
1.0
  2
AR-SAND
 70
0
 71
0
 91
1
 92
3
 72
0
 73
1
 93
4
 10
400.0
 20
-2360.0
 10
1400.0
 20
-2360.0
 10
1400.0
 20
-2390.0
 10
400.0
 20
-2390.0
 97
0
 75
1
 76
1
 52
0.0
 41
1.0
 77
0
 78
4
 53
37.5
 43
0.0
 44
0.0
 45
-1.600031296
 46
48.9413237329
 79
6
 49
0.0
 49
-38.608
 49
0.0
 49
-43.18
 49
0.0
 49
-41.275
 53
7.5
 43
0.0
 44
0.0
 45
44.9523283138
 46
71.6825100568
 79
6
 49
0.0
 49
-20.828
 49
0.0
 49
-34.798
 49
0.0
 49
-13.335
 53
-32.5
 43
-31.242
 44
0.0
 45
79.0992370241
 46
0.1437184679
 79
6
 49
0.0
 49
-12.7
 49
0.0
 49
-45.72
 49
0.0
 49
-59.69
 53
-42.5
 43
-31.242
 44
0.0
 45
76.3556452472
 46
22.2929323257
 79
6
 49
0.0
 49
-6.35
 49
0.0
 49
-29.972
 49
0.0
 49
-34.29
 98
0
  0
LINE
  5
15D
330
17
100
AcDbEntity
  8
PAVE-OUTLINE
100
AcDbLine
 10
400.0
 20
-2360.0
 30
0.0
 11
1400.0
 21
-2360.0
 31
0.0
  0
LINE
  5
15E
330
17
100
AcDbEntity
  8
PAVE-OUTLINE
100
AcDbLine
 10
400.0
 20
-2390.0
 30
0.0
 11
1400.0
 21
-2390.0
 31
0.0
  0
HATCH
  5
15F
330
17
100
AcDbEntity
  8
PAVE-SCREED
100
AcDbHatch
 10
0.0
 20
0.0
 30
0.0
210
0.0
220
0.0
230
1.0
  2
AR-SAND
 70
0
 71
0
 91
1
 92
3
 72
0
 73
1
 93
4
 10
400.0
 20
-2390.0
 10
1400.0
 20
-2390.0
 10
1400.0
 20
-2440.0
 10
400.0
 20
-2440.0
 97
0
 75
1
 76
1
 52
0.0
 41
2.0
 77
0
 78
4
 53
37.5
 43
0.0
 44
0.0
 45
-3.200062592
 46
97.8826474658
 79
6
 49
0.0
 49
-77.216
 49
0.0
 49
-86.36
 49
0.0
 49
-82.55
 53
7.5
 43
0.0
 44
0.0
 45
89.9046566276
 46
143.3650201136
 79
6
 49
0.0
 49
-41.656
 49
0.0
 49
-69.596
 49
0.0
 49
-26.67
 53
-32.5
 43
-62.484
 44
0.0
 45
158.1984740482
 46
0.2874369358
 79
6
 49
0.0
 49
-25.4
 49
0.0
 49
-91.44
 49
0.0
 49
-119.38
 53
-42.5
 43
-62.484
 44
0.0
 45
152.7112904944
 46
44.5858646514
 79
6
 49
0.0
 49
-12.7
 49
0.0
 49
-59.944
 49
0.0
 49
-68.58
 98
0
  0
LINE
  5
160
330
17
100
AcDbEntity
  8
PAVE-OUTLINE
100
AcDbLine
 10
400.0
 20
-2390.0
 30
0.0
 11
1400.0
 21
-2390.0
 31
0.0
  0
LINE
  5
161
330
17
100
AcDbEntity
  8
PAVE-OUTLINE
100
AcDbLine
 10
400.0
 20
-2440.0
 30
0.0
 11
1400.0
 21
-2440.0
 31
0.0
  0
HATCH
  5
162
330
17
100
AcDbEntity
  8
PAVE-CONC
100
AcDbHatch
 10
0.0
 20
0.0
 30
0.0
210
0.0
220
0.0
230
1.0
  2
AR-CONC
 70
0
 71
0
 91
1
 92
3
 72
0
 73
1
 93
4
 10
400.0
 20
-2440.0
 10
1400.0
 20
-2440.0
 10
1400.0
 20
-2640.0
 10
400.0
 20
-2640.0
 97
0
 75
1
 76
1
 52
0.0
 41
1.0
 77
0
 78
13
 53
50.0
 43
0.0
 44
0.0
 45
182.184668996
 46
-15.9390855389
 79
2
 49
19.05
 49
-209.55
 53
355.0
 43
0.0
 44
0.0
 45
-35.243421425
 46
191.056845239
 79
2
 49
15.24
 49
-167.64058417
 53
100.4514447
 43
15.182007
 44
-1.3282535
 45
146.9412470904
 46
175.1177519122
 79
2
 49
16.1900088
 49
-178.0902446
 53
46.1842
 43
0.0
 44
50.8
 45
271.0790408921
 46
-42.0423279327
 79
2
 49
28.575
 49
-314.325
 53
96.63555761
 43
22.5899
 44
47.2965
 45
237.4041340515
 46
247.4261245977
 79
2
 49
24.28502314
 49
-267.13560816
 53
351.18415117
 43
0.0
 44
50.8
 45
237.404134065
 46
247.4261245855
 79
2
 49
22.85996707
 49
-251.45973192
 53
21.0
 43
25.4
 44
38.1
 45
151.6143912691
 46
-102.2651981871
 79
2
 49
19.05
 49
-209.55
 53
326.0
 43
25.4
 44
38.1
 45
61.8020283476
 46
184.1879661223
 79
2
 49
15.24
 49
-167.64
 53
71.451445
 43
38.0345326
 44
29.5779001
 45
213.4164192787
 46
81.9227688859
 79
2
 49
16.1900088
 49
-178.0899376
 53
37.5
 43
0.0
 44
0.0
 45
3.0886032506
 46
84.5550388732
 79
6
 49
0.0
 49
-165.608
 49
0.0
 49
-170.18
 49
0.0
 49
-168.275
 53
7.5
 43
0.0
 44
0.0
 45
66.8196625103
 46
100.1805748181
 79
6
 49
0.0
 49
-97.028
 49
0.0
 49
-161.798
 49
0.0
 49
-64.135
 53
-32.5
 43
-56.642
 44
0.0
 45
135.5905951669
 46
-5.7287439927
 79
6
 49
0.0
 49
-63.5
 49
0.0
 49
-198.12
 49
0.0
 49
-262.89
 53
-42.5
 43
-82.042
 44
0.0
 45
148.129181386
 46
25.4264910333
 79
6
 49
0.0
 49
-82.55
 49
0.0
 49
-131.572
 49
0.0
 49
-186.69
 98
0
  0
LINE
  5
163
330
17
100
AcDbEntity
  8
PAVE-OUTLINE
100
AcDbLine
 10
400.0
 20
-2440.0
 30
0.0
 11
1400.0
 21
-2440.0
 31
0.0
  0
LINE
  5
164
330
17
100
AcDbEntity
  8
PAVE-OUTLINE
100
AcDbLine
 10
400.0
 20
-2640.0
 30
0.0
 11
1400.0
 21
-2640.0
 31
0.0
  0
LWPOLYLINE
  5
165
330
17
100
AcDbEntity
  8
PAVE-BREAK
100
AcDbPolyline
 90
6
 70
0
 10
400.0
 20
-2270.0
 10
400.0
 20
-2440.0
 10
380.0
 20
-2455.0
 10
420.0
 20
-2485.0
 10
400.0
 20
-2500.0
 10
400.0
 20
-2670.0
  0
LWPOLYLINE
  5
166
330
17
100
AcDbEntity
  8
PAVE-BREAK
100
AcDbPolyline
 90
6
 70
0
 10
1400.0
 20
-2270.0
 10
1400.0
 20
-2440.0
 10
1380.0
 20
-2455.0
 10
1420.0
 20
-2485.0
 10
1400.0
 20
-2500.0
 10
1400.0
 20
-2670.0
  0
LINE
  5
167
330
17
100
AcDbEntity
  8
PAVE-DIM
100
AcDbLine
 10
280.0
 20
-2300.0
 30
0.0
 11
280.0
 21
-2360.0
 31
0.0
  0
LINE
  5
168
330
17
100
AcDbEntity
  8
PAVE-DIM
100
AcDbLine
 10
240.0
 20
-2300.0
 30
0.0
 11
295.0
 21
-2300.0
 31
0.0
  0
LINE
  5
169
330
17
100
AcDbEntity
  8
PAVE-DIM
100
AcDbLine
 10
268.0
 20
-2312.0
 30
0.0
 11
292.0
 21
-2288.0
 31
0.0
  0
LINE
  5
16A
330
17
100
AcDbEntity
  8
PAVE-DIM
100
AcDbLine
 10
240.0
 20
-2360.0
 30
0.0
 11
295.0
 21
-2360.0
 31
0.0
  0
LINE
  5
16B
330
17
100
AcDbEntity
  8
PAVE-DIM
100
AcDbLine
 10
268.0
 20
-2372.0
 30
0.0
 11
292.0
 21
-2348.0
 31
0.0
  0
TEXT
  5
16C
330
17
100
AcDbEntity
  8
PAVE-DIM
100
AcDbText
 10
230.0
 20
-2330.0
 30
0.0
 40
25.0
  1
60
  7
PAVE-TEXT
 72
2
 11
230.0
 21
-2330.0
 31
0.0
100
AcDbText
 73
2
  0
LINE
  5
16D
330
17
100
AcDbEntity
  8
PAVE-DIM
100
AcDbLine
 10
280.0
 20
-2360.0
 30
0.0
 11
280.0
 21
-2390.0
 31
0.0
  0
LINE
  5
16E
330
17
100
AcDbEntity
  8
PAVE-DIM
100
AcDbLine
 10
240.0
 20
-2360.0
 30
0.0
 11
295.0
 21
-2360.0
 31
0.0
  0
LINE
  5
16F
330
17
100
AcDbEntity
  8
PAVE-DIM
100
AcDbLine
 10
268.0
 20
-2372.0
 30
0.0
 11
292.0
 21
-2348.0
 31
0.0
  0
LINE
  5
170
330
17
100
AcDbEntity
  8
PAVE-DIM
100
AcDbLine
 10
240.0
 20
-2390.0
 30
0.0
 11
295.0
 21
-2390.0
 31
0.0
  0
LINE
  5
171
330
17
100
AcDbEntity
  8
PAVE-DIM
100
AcDbLine
 10
268.0
 20
-2402.0
 30
0.0
 11
292.0
 21
-2378.0
 31
0.0
  0
TEXT
  5
172
330
17
100
AcDbEntity
  8
PAVE-DIM
100
AcDbText
 10
230.0
 20
-2375.0
 30
0.0
 40
25.0
  1
30
  7
PAVE-TEXT
 72
2
 11
230.0
 21
-2375.0
 31
0.0
100
AcDbText
 73
2
  0
LINE
  5
173
330
17
100
AcDbEntity
  8
PAVE-DIM
100
AcDbLine
 10
280.0
 20
-2390.0
 30
0.0
 11
280.0
 21
-2440.0
 31
0.0
  0
LINE
  5
174
330
17
100
AcDbEntity
  8
PAVE-DIM
100
AcDbLine
 10
240.0
 20
-2390.0
 30
0.0
 11
295.0
 21
-2390.0
 31
0.0
  0
LINE
  5
175
330
17
100
AcDbEntity
  8
PAVE-DIM
100
AcDbLine
 10
268.0
 20
-2402.0
 30
0.0
 11
292.0
 21
-2378.0
 31
0.0
  0
LINE
  5
176
330
17
100
AcDbEntity
  8
PAVE-DIM
100
AcDbLine
 10
240.0
 20
-2440.0
 30
0.0
 11
295.0
 21
-2440.0
 31
0.0
  0
LINE
  5
177
330
17
100
AcDbEntity
  8
PAVE-DIM
100
AcDbLine
 10
268.0
 20
-2452.0
 30
0.0
 11
292.0
 21
-2428.0
 31
0.0
  0
TEXT
  5
178
330
17
100
AcDbEntity
  8
PAVE-DIM
100
AcDbText
 10
230.0
 20
-2415.0
 30
0.0
 40
25.0
  1
VAR.
  7
PAVE-TEXT
 72
2
 11
230.0
 21
-2415.0
 31
0.0
100
AcDbText
 73
2
  0
LWPOLYLINE
  5
179
330
17
100
AcDbEntity
  8
PAVE-ANNO
100
AcDbPolyline
 90
3
 70
1
 10
550.0
 20
-2300.0
 10
520.0
 20
-2258.0
 10
580.0
 20
-2258.0
  0
LINE
  5
17A
330
17
100
AcDbEntity
  8
PAVE-ANNO
100
AcDbLine
 10
490.0
 20
-2258.0
 30
0.0
 11
950.0
 21
-2258.0
 31
0.0
  0
TEXT
  5
17B
330
17
100
AcDbEntity
  8
PAVE-ANNO
100
AcDbText
 10
595.0
 20
-2248.0
 30
0.0
 40
25.0
  1
FINISHED SURFACE LEVEL
  7
PAVE-TEXT
 11
595.0
 21
-2248.0
 31
0.0
100
AcDbText
 73
1
  0
CIRCLE
  5
17C
330
17
100
AcDbEntity
  8
PAVE-ANNO
100
AcDbCircle
 10
950.0
 20
-2330.0
 30
0.0
 40
6.0
  0
HATCH
  5
17D
330
17
100
AcDbEntity
  8
PAVE-ANNO
100
AcDbHatch
 10
0.0
 20
0.0
 30
0.0
210
0.0
220
0.0
230
1.0
  2
SOLID
 70
1
 71
0
 91
1
 92
1
 93
1
 72
2
 10
950.0
 20
-2330.0
 40
6
 50
0
 51
360
 73
1
 97
0
 75
0
 76
1
 98
0
  0
LWPOLYLINE
  5
17E
330
17
100
AcDbEntity
  8
PAVE-ANNO
100
AcDbPolyline
 90
3
 70
0
 10
950.0
 20
-2330.0
 10
1520.0
 20
-2330.0
 10
1685.0
 20
-2330.0
  0
TEXT
  5
17F
330
17
100
AcDbEntity
  8
PAVE-ANNO
100
AcDbText
 10
1700.0
 20
-2330.0
 30
0.0
 40
25.0
  1
60mm THICK PAVER, REFER LANDSCAPE SPECIFICATION
  7
PAVE-TEXT
 11
1700.0
 21
-2330.0
 31
0.0
100
AcDbText
 73
2
  0
CIRCLE
  5
180
330
17
100
AcDbEntity
  8
PAVE-ANNO
100
AcDbCircle
 10
1030.0
 20
-2375.0
 30
0.0
 40
6.0
  0
HATCH
  5
181
330
17
100
AcDbEntity
  8
PAVE-ANNO
100
AcDbHatch
 10
0.0
 20
0.0
 30
0.0
210
0.0
220
0.0
230
1.0
  2
SOLID
 70
1
 71
0
 91
1
 92
1
 93
1
 72
2
 10
1030.0
 20
-2375.0
 40
6
 50
0
 51
360
 73
1
 97
0
 75
0
 76
1
 98
0
  0
LWPOLYLINE
  5
182
330
17
100
AcDbEntity
  8
PAVE-ANNO
100
AcDbPolyline
 90
3
 70
0
 10
1030.0
 20
-2375.0
 10
1520.0
 20
-2390.0
 10
1685.0
 20
-2390.0
  0
TEXT
  5
183
330
17
100
AcDbEntity
  8
PAVE-ANNO
100
AcDbText
 10
1700.0
 20
-2390.0
 30
0.0
 40
25.0
  1
30mm THICK MORTAR BED
  7
PAVE-TEXT
 11
1700.0
 21
-2390.0
 31
0.0
100
AcDbText
 73
2
  0
CIRCLE
  5
184
330
17
100
AcDbEntity
  8
PAVE-ANNO
100
AcDbCircle
 10
1110.0
 20
-2415.0
 30
0.0
 40
6.0
  0
HATCH
  5
185
330
17
100
AcDbEntity
  8
PAVE-ANNO
100
AcDbHatch
 10
0.0
 20
0.0
 30
0.0
210
0.0
220
0.0
230
1.0
  2
SOLID
 70
1
 71
0
 91
1
 92
1
 93
1
 72
2
 10
1110.0
 20
-2415.0
 40
6
 50
0
 51
360
 73
1
 97
0
 75
0
 76
1
 98
0
  0
LWPOLYLINE
  5
186
330
17
100
AcDbEntity
  8
PAVE-ANNO
100
AcDbPolyline
 90
3
 70
0
 10
1110.0
 20
-2415.0
 10
1520.0
 20
-2450.0
 10
1685.0
 20
-2450.0
  0
TEXT
  5
187
330
17
100
AcDbEntity
  8
PAVE-ANNO
100
AcDbText
 10
1700.0
 20
-2450.0
 30
0.0
 40
25.0
  1
VARIABLE SCREED, REFER DRAWING CV-TTW-1030
  7
PAVE-TEXT
 11
1700.0
 21
-2450.0
 31
0.0
100
AcDbText
 73
2
  0
CIRCLE
  5
188
330
17
100
AcDbEntity
  8
PAVE-ANNO
100
AcDbCircle
 10
1190.0
 20
-2540.0
 30
0.0
 40
6.0
  0
HATCH
  5
189
330
17
100
AcDbEntity
  8
PAVE-ANNO
100
AcDbHatch
 10
0.0
 20
0.0
 30
0.0
210
0.0
220
0.0
230
1.0
  2
SOLID
 70
1
 71
0
 91
1
 92
1
 93
1
 72
2
 10
1190.0
 20
-2540.0
 40
6
 50
0
 51
360
 73
1
 97
0
 75
0
 76
1
 98
0
  0
LWPOLYLINE
  5
18A
330
17
100
AcDbEntity
  8
PAVE-ANNO
100
AcDbPolyline
 90
3
 70
0
 10
1190.0
 20
-2540.0
 10
1520.0
 20
-2540.0
 10
1685.0
 20
-2540.0
  0
TEXT
  5
18B
330
17
100
AcDbEntity
  8
PAVE-ANNO
100
AcDbText
 10
1700.0
 20
-2540.0
 30
0.0
 40
25.0
  1
EXISTING CONCRETE SLAB (LEVELS TBC ON SITE)
  7
PAVE-TEXT
 11
1700.0
 21
-2540.0
 31
0.0
100
AcDbText
 73
2
  0
LWPOLYLINE
  5
18C
330
17
100
AcDbEntity
  8
PAVE-TITLE
100
AcDbPolyline
 90
4
 70
1
 10
400.0
 20
-3150.0
 10
638.0
 20
-3150.0
 10
638.0
 20
-3304.0
 10
400.0
 20
-3304.0
  0
TEXT
  5
18D
330
17
100
AcDbEntity
  8
PAVE-TITLE
100
AcDbText
 10
519.0
 20
-3227.0
 30
0.0
 40
70.0
  1
P2-A
  7
PAVE-TEXT
 72
1
 11
519.0
 21
-3227.0
 31
0.0
100
AcDbText
 73
2
  0
TEXT
  5
18E
330
17
100
AcDbEntity
  8
PAVE-TITLE
100
AcDbText
 10
698.0
 20
-3203.9
 30
0.0
 40
50.0
  1
PAVER TYPE 2 - ON STRUCTURE
  7
PAVE-TEXT
 11
698.0
 21
-3203.9
 31
0.0
100
AcDbText
 73
2
  0
LINE
  5
18F
330
17
100
AcDbEntity
  8
PAVE-TITLE
100
AcDbLine
 10
698.0
 20
-3245.48
 30
0.0
 11
2900.0
 21
-3245.48
 31
0.0
  0
TEXT
  5
190
330
17
100
AcDbEntity
  8
PAVE-TITLE
100
AcDbText
 10
698.0
 20
-3276.28
 30
0.0
 40
30.0
  1
SCALE 1:10
  7
PAVE-TEXT
 11
698.0
 21
-3276.28
 31
0.0
100
AcDbText
 73
2
  0
HATCH
  5
191
330
17
100
AcDbEntity
  8
PAVE-PAVER
100
AcDbHatch
 10
0.0
 20
0.0
 30
0.0
210
0.0
220
0.0
230
1.0
  2
ANSI31
 70
0
 71
0
 91
1
 92
3
 72
0
 73
1
 93
4
 10
4000.0
 20
-2300.0
 10
5000.0
 20
-2300.0
 10
5000.0
 20
-2360.0
 10
4000.0
 20
-2360.0
 97
0
 75
1
 76
1
 52
0.0
 41
20.0
 77
0
 78
1
 53
45.0
 43
0.0
 44
0.0
 45
-44.901280606
 46
44.901280606
 79
0
 98
0
  0
LINE
  5
192
330
17
100
AcDbEntity
  8
PAVE-OUTLINE
100
AcDbLine
 10
4000.0
 20
-2300.0
 30
0.0
 11
5000.0
 21
-2300.0
 31
0.0
  0
LINE
  5
193
330
17
100
AcDbEntity
  8
PAVE-OUTLINE
100
AcDbLine
 10
4000.0
 20
-2360.0
 30
0.0
 11
5000.0
 21
-2360.0
 31
0.0
  0
LINE
  5
194
330
17
100
AcDbEntity
  8
PAVE-OUTLINE
100
AcDbLine
 10
4100.0
 20
-2300.0
 30
0.0
 11
4100.0
 21
-2360.0
 31
0.0
  0
LINE
  5
195
330
17
100
AcDbEntity
  8
PAVE-OUTLINE
100
AcDbLine
 10
4300.0
 20
-2300.0
 30
0.0
 11
4300.0
 21
-2360.0
 31
0.0
  0
LINE
  5
196
330
17
100
AcDbEntity
  8
PAVE-OUTLINE
100
AcDbLine
 10
4500.0
 20
-2300.0
 30
0.0
 11
4500.0
 21
-2360.0
 31
0.0
  0
LINE
  5
197
330
17
100
AcDbEntity
  8
PAVE-OUTLINE
100
AcDbLine
 10
4700.0
 20
-2300.0
 30
0.0
 11
4700.0
 21
-2360.0
 31
0.0
  0
LINE
  5
198
330
17
100
AcDbEntity
  8
PAVE-OUTLINE
100
AcDbLine
 10
4900.0
 20
-2300.0
 30
0.0
 11
4900.0
 21
-2360.0
 31
0.0
  0
HATCH
  5
199
330
17
100
AcDbEntity
  8
PAVE-MORTAR
100
AcDbHatch
 10
0.0
 20
0.0
 30
0.0
210
0.0
220
0.0
230
1.0
  2
AR-SAND
 70
0
 71
0
 91
1
 92
3
 72
0
 73
1
 93
4
 10
4000.0
 20
-2360.0
 10
5000.0
 20
-2360.0
 10
5000.0
 20
-2390.0
 10
4000.0
 20
-2390.0
 97
0
 75
1
 76
1
 52
0.0
 41
1.0
 77
0
 78
4
 53
37.5
 43
0.0
 44
0.0
 45
-1.600031296
 46
48.9413237329
 79
6
 49
0.0
 49
-38.608
 49
0.0
 49
-43.18
 49
0.0
 49
-41.275
 53
7.5
 43
0.0
 44
0.0
 45
44.9523283138
 46
71.6825100568
 79
6
 49
0.0
 49
-20.828
 49
0.0
 49
-34.798
 49
0.0
 49
-13.335
 53
-32.5
 43
-31.242
 44
0.0
 45
79.0992370241
 46
0.1437184679
 79
6
 49
0.0
 49
-12.7
 49
0.0
 49
-45.72
 49
0.0
 49
-59.69
 53
-42.5
 43
-31.242
 44
0.0
 45
76.3556452472
 46
22.2929323257
 79
6
 49
0.0
 49
-6.35
 49
0.0
 49
-29.972
 49
0.0
 49
-34.29
 98
0
  0
LINE
  5
19A
330
17
100
AcDbEntity
  8
PAVE-OUTLINE
100
AcDbLine
 10
4000.0
 20
-2360.0
 30
0.0
 11
5000.0
 21
-2360.0
 31
0.0
  0
LINE
  5
19B
330
17
100
AcDbEntity
  8
PAVE-OUTLINE
100
AcDbLine
 10
4000.0
 20
-2390.0
 30
0.0
 11
5000.0
 21
-2390.0
 31
0.0
  0
HATCH
  5
19C
330
17
100
AcDbEntity
  8
PAVE-ROADBASE
100
AcDbHatch
 10
0.0
 20
0.0
 30
0.0
210
0.0
220
0.0
230
1.0
  2
GRAVEL
 70
0
 71
0
 91
1
 92
3
 72
0
 73
1
 93
4
 10
4000.0
 20
-2390.0
 10
5000.0
 20
-2390.0
 10
5000.0
 20
-2540.0
 10
4000.0
 20
-2540.0
 97
0
 75
1
 76
1
 52
0.0
 41
8.0
 77
0
 78
41
 53
228.0127875
 43
146.304
 44
203.2
 45
-1625.600000128
 46
-1828.7999998864
 79
2
 49
27.3377152
 49
-2706.4386911648
 53
184.969741
 43
128.016
 44
182.88
 45
2438.3999990352
 46
203.200011576
 79
2
 49
46.9123776
 49
-4644.3239114816
 53
132.5104471
 43
81.28
 44
178.816
 45
2032.0000008584
 46
-2235.19999922
 79
2
 49
33.0785216
 49
-3274.777823528
 53
267.273689
 43
2.032
 44
128.016
 45
203.2000004256
 46
4063.9999999784
 79
2
 49
42.7203616
 49
-4229.3149940592
 53
292.83365418
 43
0.0
 44
85.344
 45
-1016.0000000848
 46
2438.3999999648
 79
2
 49
41.890696
 49
-4147.1846196272
 53
357.273689
 43
16.256
 44
46.736
 45
-4063.9999999784
 46
203.2000004256
 79
2
 49
42.7203616
 49
-4229.3149940592
 53
37.69424047
 43
58.928
 44
44.704
 45
-2641.5999998832
 46
-2032.000000152
 79
2
 49
56.4954928
 49
-5593.04922514
 53
72.25532837
 43
103.632
 44
79.248
 45
1422.4000003824
 46
4470.3999998784
 79
2
 49
53.3375616
 49
-5280.4205281528
 53
121.42956562
 43
119.888
 44
130.048
 45
-1625.6000002304
 46
2641.5999998584
 79
2
 49
42.86504
 49
-4243.6436558968
 53
175.2363583
 43
97.536
 44
166.624
 45
2235.199999968
 46
-203.2000003512
 79
2
 49
48.9370624
 49
-2397.914956
 53
222.3974378
 43
48.768
 44
170.688
 45
-2438.3999999216
 46
-2235.2000000848
 79
2
 49
63.2862336
 49
-6265.3418009744
 53
138.81407483
 43
203.2
 44
125.984
 45
-1422.3999999144
 46
1219.2000000992
 79
2
 49
21.6003632
 49
-2138.4452659472
 53
171.4692344
 43
186.944
 44
140.208
 45
2641.6000000712
 46
-406.3999995392
 79
2
 49
41.0945584
 49
-4068.3711197632
 53
225.0
 43
146.304
 44
146.304
 45
-0.0
 46
-203.2
 79
2
 49
28.7367472
 49
-258.6314486744
 53
203.19859051
 43
132.08
 44
170.688
 45
1016.000000028
 46
406.3999999288
 79
2
 49
15.4753056
 49
-1532.0497895112
 53
291.80140949
 43
117.856
 44
164.592
 45
-203.2000000424
 46
609.5999999856
 79
2
 49
21.8852496
 49
-1072.3802392
 53
30.96375653
 43
125.984
 44
144.272
 45
609.6000000152
 46
406.3999999776
 79
2
 49
35.5455728
 49
-1149.3038522328
 53
161.56505118
 43
156.464
 44
162.56
 45
406.4000000104
 46
-203.1999999784
 79
2
 49
25.7029712
 49
-616.8718493464
 53
16.389540334
 43
0.0
 44
164.592
 45
2032.0
 46
609.6
 79
2
 49
36.00704
 49
-3564.7061338032
 53
70.34617594
 43
34.544
 44
174.752
 45
-812.8000000744
 46
-2235.1999999736
 79
2
 49
30.2079152
 49
-2990.577254256
 53
293.19859051
 43
156.464
 44
203.2
 45
-406.3999999288
 46
1016.0000000288
 79
2
 49
30.950408
 49
-1516.5746871112
 53
343.61045967
 43
168.656
 44
174.752
 45
-2032.0000000424
 46
609.5999998576
 79
2
 49
36.00704
 49
-3564.7061338032
 53
339.44395478
 43
0.0
 44
38.608
 45
-1016.0
 46
406.4
 79
2
 49
34.722816
 49
-1701.4187450488
 53
294.7751406
 43
32.512
 44
26.416
 45
-1016.0000012096
 46
2235.1999994504
 79
2
 49
29.0937696
 49
-2880.2874704576
 53
66.80140949
 43
158.496
 44
0.0
 45
406.399999936
 46
1016.0000000256
 79
2
 49
30.950408
 49
-1516.5746871112
 53
17.35402464
 43
170.688
 44
28.448
 45
-2641.5999999472
 46
-812.8000001704
 79
2
 49
34.0626192
 49
-3372.190078416
 53
69.44395478
 43
58.928
 44
0.0
 45
-406.4000000072
 46
-1015.9999999968
 79
2
 49
17.361408
 49
-1718.7801530488
 53
101.309932474
 43
146.304
 44
0.0
 45
-203.2
 46
812.8
 79
2
 49
10.361168
 49
-1025.7595971624
 53
165.963756532
 43
144.272
 44
10.16
 45
609.6
 46
-203.2
 79
2
 49
41.890696
 49
-795.9243671256
 53
186.00900596
 43
103.632
 44
20.32
 45
2031.9999999896
 46
203.2000001064
 79
2
 49
38.82136
 49
-3843.3091890672
 53
303.69006753
 43
125.984
 44
125.984
 45
-203.200000028
 46
406.3999999856
 79
2
 49
29.3059104
 49
-703.3421087744
 53
353.15722659
 43
142.24
 44
101.6
 45
3454.4000000216
 46
-406.3999998192
 79
2
 49
51.1645408
 49
-5065.2807252024
 53
60.9453959
 43
193.04
 44
95.504
 45
-812.8000000224
 46
-1422.3999999872
 79
2
 49
20.9206592
 49
-2071.1513854488
 53
90.0
 43
203.2
 44
113.792
 45
-203.2
 46
203.2
 79
2
 49
12.192
 49
-191.008
 53
120.25643716
 43
99.568
 44
26.416
 45
812.7999999008
 46
-1422.4000000568
 79
2
 49
28.2293568
 49
-2794.715261856
 53
48.0127875
 43
85.344
 44
50.8
 45
1625.6000001344
 46
1828.7999998808
 79
2
 49
54.6754304
 49
-2679.1009759656
 53
0.0
 43
121.92
 44
91.44
 45
203.2
 46
203.2
 79
2
 49
52.832
 49
-150.368
 53
325.3048465
 43
174.752
 44
91.44
 45
2032.0000007696
 46
-1422.3999989
 79
2
 49
32.1287648
 49
-3180.7453379312
 53
254.0546041
 43
201.168
 44
73.152
 45
-203.1999999856
 46
-812.8000000032
 79
2
 49
29.5863264
 49
-1449.7320031016
 53
207.64597536
 43
193.04
 44
44.704
 45
-3860.8000001416
 46
-2031.9999997304
 79
2
 49
48.171608
 49
-4768.9971538352
 53
175.42607874
 43
150.368
 44
22.352
 45
-2641.6
 46
203.2
 79
2
 49
50.9623568
 49
-5045.2677164992
 98
0
  0
LINE
  5
19D
330
17
100
AcDbEntity
  8
PAVE-OUTLINE
100
AcDbLine
 10
4000.0
 20
-2390.0
 30
0.0
 11
5000.0
 21
-2390.0
 31
0.0
  0
LINE
  5
19E
330
17
100
AcDbEntity
  8
PAVE-OUTLINE
100
AcDbLine
 10
4000.0
 20
-2540.0
 30
0.0
 11
5000.0
 21
-2540.0
 31
0.0
  0
HATCH
  5
19F
330
17
100
AcDbEntity
  8
PAVE-ROADBASE
100
AcDbHatch
 10
0.0
 20
0.0
 30
0.0
210
0.0
220
0.0
230
1.0
  2
GRAVEL
 70
0
 71
0
 91
1
 92
3
 72
0
 73
1
 93
4
 10
4000.0
 20
-2540.0
 10
5000.0
 20
-2540.0
 10
5000.0
 20
-2690.0
 10
4000.0
 20
-2690.0
 97
0
 75
1
 76
1
 52
0.0
 41
8.0
 77
0
 78
41
 53
228.0127875
 43
146.304
 44
203.2
 45
-1625.600000128
 46
-1828.7999998864
 79
2
 49
27.3377152
 49
-2706.4386911648
 53
184.969741
 43
128.016
 44
182.88
 45
2438.3999990352
 46
203.200011576
 79
2
 49
46.9123776
 49
-4644.3239114816
 53
132.5104471
 43
81.28
 44
178.816
 45
2032.0000008584
 46
-2235.19999922
 79
2
 49
33.0785216
 49
-3274.777823528
 53
267.273689
 43
2.032
 44
128.016
 45
203.2000004256
 46
4063.9999999784
 79
2
 49
42.7203616
 49
-4229.3149940592
 53
292.83365418
 43
0.0
 44
85.344
 45
-1016.0000000848
 46
2438.3999999648
 79
2
 49
41.890696
 49
-4147.1846196272
 53
357.273689
 43
16.256
 44
46.736
 45
-4063.9999999784
 46
203.2000004256
 79
2
 49
42.7203616
 49
-4229.3149940592
 53
37.69424047
 43
58.928
 44
44.704
 45
-2641.5999998832
 46
-2032.000000152
 79
2
 49
56.4954928
 49
-5593.04922514
 53
72.25532837
 43
103.632
 44
79.248
 45
1422.4000003824
 46
4470.3999998784
 79
2
 49
53.3375616
 49
-5280.4205281528
 53
121.42956562
 43
119.888
 44
130.048
 45
-1625.6000002304
 46
2641.5999998584
 79
2
 49
42.86504
 49
-4243.6436558968
 53
175.2363583
 43
97.536
 44
166.624
 45
2235.199999968
 46
-203.2000003512
 79
2
 49
48.9370624
 49
-2397.914956
 53
222.3974378
 43
48.768
 44
170.688
 45
-2438.3999999216
 46
-2235.2000000848
 79
2
 49
63.2862336
 49
-6265.3418009744
 53
138.81407483
 43
203.2
 44
125.984
 45
-1422.3999999144
 46
1219.2000000992
 79
2
 49
21.6003632
 49
-2138.4452659472
 53
171.4692344
 43
186.944
 44
140.208
 45
2641.6000000712
 46
-406.3999995392
 79
2
 49
41.0945584
 49
-4068.3711197632
 53
225.0
 43
146.304
 44
146.304
 45
-0.0
 46
-203.2
 79
2
 49
28.7367472
 49
-258.6314486744
 53
203.19859051
 43
132.08
 44
170.688
 45
1016.000000028
 46
406.3999999288
 79
2
 49
15.4753056
 49
-1532.0497895112
 53
291.80140949
 43
117.856
 44
164.592
 45
-203.2000000424
 46
609.5999999856
 79
2
 49
21.8852496
 49
-1072.3802392
 53
30.96375653
 43
125.984
 44
144.272
 45
609.6000000152
 46
406.3999999776
 79
2
 49
35.5455728
 49
-1149.3038522328
 53
161.56505118
 43
156.464
 44
162.56
 45
406.4000000104
 46
-203.1999999784
 79
2
 49
25.7029712
 49
-616.8718493464
 53
16.389540334
 43
0.0
 44
164.592
 45
2032.0
 46
609.6
 79
2
 49
36.00704
 49
-3564.7061338032
 53
70.34617594
 43
34.544
 44
174.752
 45
-812.8000000744
 46
-2235.1999999736
 79
2
 49
30.2079152
 49
-2990.577254256
 53
293.19859051
 43
156.464
 44
203.2
 45
-406.3999999288
 46
1016.0000000288
 79
2
 49
30.950408
 49
-1516.5746871112
 53
343.61045967
 43
168.656
 44
174.752
 45
-2032.0000000424
 46
609.5999998576
 79
2
 49
36.00704
 49
-3564.7061338032
 53
339.44395478
 43
0.0
 44
38.608
 45
-1016.0
 46
406.4
 79
2
 49
34.722816
 49
-1701.4187450488
 53
294.7751406
 43
32.512
 44
26.416
 45
-1016.0000012096
 46
2235.1999994504
 79
2
 49
29.0937696
 49
-2880.2874704576
 53
66.80140949
 43
158.496
 44
0.0
 45
406.399999936
 46
1016.0000000256
 79
2
 49
30.950408
 49
-1516.5746871112
 53
17.35402464
 43
170.688
 44
28.448
 45
-2641.5999999472
 46
-812.8000001704
 79
2
 49
34.0626192
 49
-3372.190078416
 53
69.44395478
 43
58.928
 44
0.0
 45
-406.4000000072
 46
-1015.9999999968
 79
2
 49
17.361408
 49
-1718.7801530488
 53
101.309932474
 43
146.304
 44
0.0
 45
-203.2
 46
812.8
 79
2
 49
10.361168
 49
-1025.7595971624
 53
165.963756532
 43
144.272
 44
10.16
 45
609.6
 46
-203.2
 79
2
 49
41.890696
 49
-795.9243671256
 53
186.00900596
 43
103.632
 44
20.32
 45
2031.9999999896
 46
203.2000001064
 79
2
 49
38.82136
 49
-3843.3091890672
 53
303.69006753
 43
125.984
 44
125.984
 45
-203.200000028
 46
406.3999999856
 79
2
 49
29.3059104
 49
-703.3421087744
 53
353.15722659
 43
142.24
 44
101.6
 45
3454.4000000216
 46
-406.3999998192
 79
2
 49
51.1645408
 49
-5065.2807252024
 53
60.9453959
 43
193.04
 44
95.504
 45
-812.8000000224
 46
-1422.3999999872
 79
2
 49
20.9206592
 49
-2071.1513854488
 53
90.0
 43
203.2
 44
113.792
 45
-203.2
 46
203.2
 79
2
 49
12.192
 49
-191.008
 53
120.25643716
 43
99.568
 44
26.416
 45
812.7999999008
 46
-1422.4000000568
 79
2
 49
28.2293568
 49
-2794.715261856
 53
48.0127875
 43
85.344
 44
50.8
 45
1625.6000001344
 46
1828.7999998808
 79
2
 49
54.6754304
 49
-2679.1009759656
 53
0.0
 43
121.92
 44
91.44
 45
203.2
 46
203.2
 79
2
 49
52.832
 49
-150.368
 53
325.3048465
 43
174.752
 44
91.44
 45
2032.0000007696
 46
-1422.3999989
 79
2
 49
32.1287648
 49
-3180.7453379312
 53
254.0546041
 43
201.168
 44
73.152
 45
-203.1999999856
 46
-812.8000000032
 79
2
 49
29.5863264
 49
-1449.7320031016
 53
207.64597536
 43
193.04
 44
44.704
 45
-3860.8000001416
 46
-2031.9999997304
 79
2
 49
48.171608
 49
-4768.9971538352
 53
175.42607874
 43
150.368
 44
22.352
 45
-2641.6
 46
203.2
 79
2
 49
50.9623568
 49
-5045.2677164992
 98
0
  0
LINE
  5
1A0
330
17
100
AcDbEntity
  8
PAVE-OUTLINE
100
AcDbLine
 10
4000.0
 20
-2540.0
 30
0.0
 11
5000.0
 21
-2540.0
 31
0.0
  0
LINE
  5
1A1
330
17
100
AcDbEntity
  8
PAVE-OUTLINE
100
AcDbLine
 10
4000.0
 20
-2690.0
 30
0.0
 11
5000.0
 21
-2690.0
 31
0.0
  0
HATCH
  5
1A2
330
17
100
AcDbEntity
  8
PAVE-SUBGRADE
100
AcDbHatch
 10
0.0
 20
0.0
 30
0.0
210
0.0
220
0.0
230
1.0
  2
EARTH
 70
0
 71
0
 91
1
 92
3
 72
0
 73
1
 93
4
 10
4000.0
 20
-2690.0
 10
5000.0
 20
-2690.0
 10
5000.0
 20
-2890.0
 10
4000.0
 20
-2890.0
 97
0
 75
1
 76
1
 52
45.0
 41
12.0
 77
0
 78
6
 53
45.0
 43
0.0
 44
0.0
 45
0.0
 46
107.7630734528
 79
2
 49
76.2
 49
-76.2
 53
45.0
 43
-20.2055762724
 44
20.2055762724
 45
0.0
 46
107.7630734528
 79
2
 49
76.2
 49
-76.2
 53
45.0
 43
-40.4111525448
 44
40.4111525448
 45
0.0
 46
107.7630734528
 79
2
 49
76.2
 49
-76.2
 53
135.0
 43
-40.4111525448
 44
53.8815367264
 45
-107.7630734528
 46
0.0
 79
2
 49
76.2
 49
-76.2
 53
135.0
 43
-20.2055762724
 44
74.0871129988
 45
-107.7630734528
 46
0.0
 79
2
 49
76.2
 49
-76.2
 53
135.0
 43
0.0
 44
94.2926892712
 45
-107.7630734528
 46
0.0
 79
2
 49
76.2
 49
-76.2
 98
0
  0
LINE
  5
1A3
330
17
100
AcDbEntity
  8
PAVE-OUTLINE
100
AcDbLine
 10
4000.0
 20
-2690.0
 30
0.0
 11
5000.0
 21
-2690.0
 31
0.0
  0
LWPOLYLINE
  5
1A4
330
17
100
AcDbEntity
  8
PAVE-BREAK
100
AcDbPolyline
 90
6
 70
0
 10
4000.0
 20
-2270.0
 10
4000.0
 20
-2565.0
 10
3980.0
 20
-2580.0
 10
4020.0
 20
-2610.0
 10
4000.0
 20
-2625.0
 10
4000.0
 20
-2920.0
  0
LWPOLYLINE
  5
1A5
330
17
100
AcDbEntity
  8
PAVE-BREAK
100
AcDbPolyline
 90
6
 70
0
 10
5000.0
 20
-2270.0
 10
5000.0
 20
-2565.0
 10
4980.0
 20
-2580.0
 10
5020.0
 20
-2610.0
 10
5000.0
 20
-2625.0
 10
5000.0
 20
-2920.0
  0
LINE
  5
1A6
330
17
100
AcDbEntity
  8
PAVE-DIM
100
AcDbLine
 10
3880.0
 20
-2300.0
 30
0.0
 11
3880.0
 21
-2360.0
 31
0.0
  0
LINE
  5
1A7
330
17
100
AcDbEntity
  8
PAVE-DIM
100
AcDbLine
 10
3840.0
 20
-2300.0
 30
0.0
 11
3895.0
 21
-2300.0
 31
0.0
  0
LINE
  5
1A8
330
17
100
AcDbEntity
  8
PAVE-DIM
100
AcDbLine
 10
3868.0
 20
-2312.0
 30
0.0
 11
3892.0
 21
-2288.0
 31
0.0
  0
LINE
  5
1A9
330
17
100
AcDbEntity
  8
PAVE-DIM
100
AcDbLine
 10
3840.0
 20
-2360.0
 30
0.0
 11
3895.0
 21
-2360.0
 31
0.0
  0
LINE
  5
1AA
330
17
100
AcDbEntity
  8
PAVE-DIM
100
AcDbLine
 10
3868.0
 20
-2372.0
 30
0.0
 11
3892.0
 21
-2348.0
 31
0.0
  0
TEXT
  5
1AB
330
17
100
AcDbEntity
  8
PAVE-DIM
100
AcDbText
 10
3830.0
 20
-2330.0
 30
0.0
 40
25.0
  1
60
  7
PAVE-TEXT
 72
2
 11
3830.0
 21
-2330.0
 31
0.0
100
AcDbText
 73
2
  0
LINE
  5
1AC
330
17
100
AcDbEntity
  8
PAVE-DIM
100
AcDbLine
 10
3880.0
 20
-2360.0
 30
0.0
 11
3880.0
 21
-2390.0
 31
0.0
  0
LINE
  5
1AD
330
17
100
AcDbEntity
  8
PAVE-DIM
100
AcDbLine
 10
3840.0
 20
-2360.0
 30
0.0
 11
3895.0
 21
-2360.0
 31
0.0
  0
LINE
  5
1AE
330
17
100
AcDbEntity
  8
PAVE-DIM
100
AcDbLine
 10
3868.0
 20
-2372.0
 30
0.0
 11
3892.0
 21
-2348.0
 31
0.0
  0
LINE
  5
1AF
330
17
100
AcDbEntity
  8
PAVE-DIM
100
AcDbLine
 10
3840.0
 20
-2390.0
 30
0.0
 11
3895.0
 21
-2390.0
 31
0.0
  0
LINE
  5
1B0
330
17
100
AcDbEntity
  8
PAVE-DIM
100
AcDbLine
 10
3868.0
 20
-2402.0
 30
0.0
 11
3892.0
 21
-2378.0
 31
0.0
  0
TEXT
  5
1B1
330
17
100
AcDbEntity
  8
PAVE-DIM
100
AcDbText
 10
3830.0
 20
-2375.0
 30
0.0
 40
25.0
  1
30
  7
PAVE-TEXT
 72
2
 11
3830.0
 21
-2375.0
 31
0.0
100
AcDbText
 73
2
  0
LINE
  5
1B2
330
17
100
AcDbEntity
  8
PAVE-DIM
100
AcDbLine
 10
3880.0
 20
-2390.0
 30
0.0
 11
3880.0
 21
-2540.0
 31
0.0
  0
LINE
  5
1B3
330
17
100
AcDbEntity
  8
PAVE-DIM
100
AcDbLine
 10
3840.0
 20
-2390.0
 30
0.0
 11
3895.0
 21
-2390.0
 31
0.0
  0
LINE
  5
1B4
330
17
100
AcDbEntity
  8
PAVE-DIM
100
AcDbLine
 10
3868.0
 20
-2402.0
 30
0.0
 11
3892.0
 21
-2378.0
 31
0.0
  0
LINE
  5
1B5
330
17
100
AcDbEntity
  8
PAVE-DIM
100
AcDbLine
 10
3840.0
 20
-2540.0
 30
0.0
 11
3895.0
 21
-2540.0
 31
0.0
  0
LINE
  5
1B6
330
17
100
AcDbEntity
  8
PAVE-DIM
100
AcDbLine
 10
3868.0
 20
-2552.0
 30
0.0
 11
3892.0
 21
-2528.0
 31
0.0
  0
TEXT
  5
1B7
330
17
100
AcDbEntity
  8
PAVE-DIM
100
AcDbText
 10
3860.0
 20
-2465.0
 30
0.0
 40
25.0
  1
150
 50
90.0
  7
PAVE-TEXT
 72
1
 11
3860.0
 21
-2465.0
 31
0.0
100
AcDbText
 73
1
  0
LINE
  5
1B8
330
17
100
AcDbEntity
  8
PAVE-DIM
100
AcDbLine
 10
3880.0
 20
-2540.0
 30
0.0
 11
3880.0
 21
-2690.0
 31
0.0
  0
LINE
  5
1B9
330
17
100
AcDbEntity
  8
PAVE-DIM
100
AcDbLine
 10
3840.0
 20
-2540.0
 30
0.0
 11
3895.0
 21
-2540.0
 31
0.0
  0
LINE
  5
1BA
330
17
100
AcDbEntity
  8
PAVE-DIM
100
AcDbLine
 10
3868.0
 20
-2552.0
 30
0.0
 11
3892.0
 21
-2528.0
 31
0.0
  0
LINE
  5
1BB
330
17
100
AcDbEntity
  8
PAVE-DIM
100
AcDbLine
 10
3840.0
 20
-2690.0
 30
0.0
 11
3895.0
 21
-2690.0
 31
0.0
  0
LINE
  5
1BC
330
17
100
AcDbEntity
  8
PAVE-DIM
100
AcDbLine
 10
3868.0
 20
-2702.0
 30
0.0
 11
3892.0
 21
-2678.0
 31
0.0
  0
TEXT
  5
1BD
330
17
100
AcDbEntity
  8
PAVE-DIM
100
AcDbText
 10
3860.0
 20
-2615.0
 30
0.0
 40
25.0
  1
150
 50
90.0
  7
PAVE-TEXT
 72
1
 11
3860.0
 21
-2615.0
 31
0.0
100
AcDbText
 73
1
  0
LWPOLYLINE
  5
1BE
330
17
100
AcDbEntity
  8
PAVE-ANNO
100
AcDbPolyline
 90
3
 70
1
 10
4150.0
 20
-2300.0
 10
4120.0
 20
-2258.0
 10
4180.0
 20
-2258.0
  0
LINE
  5
1BF
330
17
100
AcDbEntity
  8
PAVE-ANNO
100
AcDbLine
 10
4090.0
 20
-2258.0
 30
0.0
 11
4550.0
 21
-2258.0
 31
0.0
  0
TEXT
  5
1C0
330
17
100
AcDbEntity
  8
PAVE-ANNO
100
AcDbText
 10
4195.0
 20
-2248.0
 30
0.0
 40
25.0
  1
FINISHED SURFACE LEVEL
  7
PAVE-TEXT
 11
4195.0
 21
-2248.0
 31
0.0
100
AcDbText
 73
1
  0
CIRCLE
  5
1C1
330
17
100
AcDbEntity
  8
PAVE-ANNO
100
AcDbCircle
 10
4550.0
 20
-2330.0
 30
0.0
 40
6.0
  0
HATCH
  5
1C2
330
17
100
AcDbEntity
  8
PAVE-ANNO
100
AcDbHatch
 10
0.0
 20
0.0
 30
0.0
210
0.0
220
0.0
230
1.0
  2
SOLID
 70
1
 71
0
 91
1
 92
1
 93
1
 72
2
 10
4550.0
 20
-2330.0
 40
6
 50
0
 51
360
 73
1
 97
0
 75
0
 76
1
 98
0
  0
LWPOLYLINE
  5
1C3
330
17
100
AcDbEntity
  8
PAVE-ANNO
100
AcDbPolyline
 90
3
 70
0
 10
4550.0
 20
-2330.0
 10
5120.0
 20
-2330.0
 10
5285.0
 20
-2330.0
  0
TEXT
  5
1C4
330
17
100
AcDbEntity
  8
PAVE-ANNO
100
AcDbText
 10
5300.0
 20
-2330.0
 30
0.0
 40
25.0
  1
60mm THICK PAVER, REFER LANDSCAPE SPECIFICATION
  7
PAVE-TEXT
 11
5300.0
 21
-2330.0
 31
0.0
100
AcDbText
 73
2
  0
CIRCLE
  5
1C5
330
17
100
AcDbEntity
  8
PAVE-ANNO
100
AcDbCircle
 10
4630.0
 20
-2375.0
 30
0.0
 40
6.0
  0
HATCH
  5
1C6
330
17
100
AcDbEntity
  8
PAVE-ANNO
100
AcDbHatch
 10
0.0
 20
0.0
 30
0.0
210
0.0
220
0.0
230
1.0
  2
SOLID
 70
1
 71
0
 91
1
 92
1
 93
1
 72
2
 10
4630.0
 20
-2375.0
 40
6
 50
0
 51
360
 73
1
 97
0
 75
0
 76
1
 98
0
  0
LWPOLYLINE
  5
1C7
330
17
100
AcDbEntity
  8
PAVE-ANNO
100
AcDbPolyline
 90
3
 70
0
 10
4630.0
 20
-2375.0
 10
5120.0
 20
-2390.0
 10
5285.0
 20
-2390.0
  0
TEXT
  5
1C8
330
17
100
AcDbEntity
  8
PAVE-ANNO
100
AcDbText
 10
5300.0
 20
-2390.0
 30
0.0
 40
25.0
  1
30mm THICK MORTAR BED
  7
PAVE-TEXT
 11
5300.0
 21
-2390.0
 31
0.0
100
AcDbText
 73
2
  0
CIRCLE
  5
1C9
330
17
100
AcDbEntity
  8
PAVE-ANNO
100
AcDbCircle
 10
4710.0
 20
-2465.0
 30
0.0
 40
6.0
  0
HATCH
  5
1CA
330
17
100
AcDbEntity
  8
PAVE-ANNO
100
AcDbHatch
 10
0.0
 20
0.0
 30
0.0
210
0.0
220
0.0
230
1.0
  2
SOLID
 70
1
 71
0
 91
1
 92
1
 93
1
 72
2
 10
4710.0
 20
-2465.0
 40
6
 50
0
 51
360
 73
1
 97
0
 75
0
 76
1
 98
0
  0
LWPOLYLINE
  5
1CB
330
17
100
AcDbEntity
  8
PAVE-ANNO
100
AcDbPolyline
 90
3
 70
0
 10
4710.0
 20
-2465.0
 10
5120.0
 20
-2465.0
 10
5285.0
 20
-2465.0
  0
TEXT
  5
1CC
330
17
100
AcDbEntity
  8
PAVE-ANNO
100
AcDbText
 10
5300.0
 20
-2465.0
 30
0.0
 40
25.0
  1
150mm THICK DGB20 ROAD BASE
  7
PAVE-TEXT
 11
5300.0
 21
-2465.0
 31
0.0
100
AcDbText
 73
2
  0
CIRCLE
  5
1CD
330
17
100
AcDbEntity
  8
PAVE-ANNO
100
AcDbCircle
 10
4790.0
 20
-2615.0
 30
0.0
 40
6.0
  0
HATCH
  5
1CE
330
17
100
AcDbEntity
  8
PAVE-ANNO
100
AcDbHatch
 10
0.0
 20
0.0
 30
0.0
210
0.0
220
0.0
230
1.0
  2
SOLID
 70
1
 71
0
 91
1
 92
1
 93
1
 72
2
 10
4790.0
 20
-2615.0
 40
6
 50
0
 51
360
 73
1
 97
0
 75
0
 76
1
 98
0
  0
LWPOLYLINE
  5
1CF
330
17
100
AcDbEntity
  8
PAVE-ANNO
100
AcDbPolyline
 90
3
 70
0
 10
4790.0
 20
-2615.0
 10
5120.0
 20
-2615.0
 10
5285.0
 20
-2615.0
  0
TEXT
  5
1D0
330
17
100
AcDbEntity
  8
PAVE-ANNO
100
AcDbText
 10
5300.0
 20
-2615.0
 30
0.0
 40
25.0
  1
150mm THICK DGB20 ROAD BASE
  7
PAVE-TEXT
 11
5300.0
 21
-2615.0
 31
0.0
100
AcDbText
 73
2
  0
CIRCLE
  5
1D1
330
17
100
AcDbEntity
  8
PAVE-ANNO
100
AcDbCircle
 10
4870.0
 20
-2790.0
 30
0.0
 40
6.0
  0
HATCH
  5
1D2
330
17
100
AcDbEntity
  8
PAVE-ANNO
100
AcDbHatch
 10
0.0
 20
0.0
 30
0.0
210
0.0
220
0.0
230
1.0
  2
SOLID
 70
1
 71
0
 91
1
 92
1
 93
1
 72
2
 10
4870.0
 20
-2790.0
 40
6
 50
0
 51
360
 73
1
 97
0
 75
0
 76
1
 98
0
  0
LWPOLYLINE
  5
1D3
330
17
100
AcDbEntity
  8
PAVE-ANNO
100
AcDbPolyline
 90
3
 70
0
 10
4870.0
 20
-2790.0
 10
5120.0
 20
-2790.0
 10
5285.0
 20
-2790.0
  0
TEXT
  5
1D4
330
17
100
AcDbEntity
  8
PAVE-ANNO
100
AcDbText
 10
5300.0
 20
-2790.0
 30
0.0
 40
25.0
  1
COMPACTED SUB-GRADE TO 98% MDD STANDARD
  7
PAVE-TEXT
 11
5300.0
 21
-2790.0
 31
0.0
100
AcDbText
 73
2
  0
LWPOLYLINE
  5
1D5
330
17
100
AcDbEntity
  8
PAVE-TITLE
100
AcDbPolyline
 90
4
 70
1
 10
4000.0
 20
-3150.0
 10
4238.0
 20
-3150.0
 10
4238.0
 20
-3304.0
 10
4000.0
 20
-3304.0
  0
TEXT
  5
1D6
330
17
100
AcDbEntity
  8
PAVE-TITLE
100
AcDbText
 10
4119.0
 20
-3227.0
 30
0.0
 40
70.0
  1
P2-B
  7
PAVE-TEXT
 72
1
 11
4119.0
 21
-3227.0
 31
0.0
100
AcDbText
 73
2
  0
TEXT
  5
1D7
330
17
100
AcDbEntity
  8
PAVE-TITLE
100
AcDbText
 10
4298.0
 20
-3203.9
 30
0.0
 40
50.0
  1
PAVER TYPE 2 - ON GRADE
  7
PAVE-TEXT
 11
4298.0
 21
-3203.9
 31
0.0
100
AcDbText
 73
2
  0
LINE
  5
1D8
330
17
100
AcDbEntity
  8
PAVE-TITLE
100
AcDbLine
 10
4298.0
 20
-3245.48
 30
0.0
 11
6500.0
 21
-3245.48
 31
0.0
  0
TEXT
  5
1D9
330
17
100
AcDbEntity
  8
PAVE-TITLE
100
AcDbText
 10
4298.0
 20
-3276.28
 30
0.0
 40
30.0
  1
SCALE 1:10
  7
PAVE-TEXT
 11
4298.0
 21
-3276.28
 31
0.0
100
AcDbText
 73
2
  0
HATCH
  5
1DA
330
17
100
AcDbEntity
  8
PAVE-SOIL
100
AcDbHatch
 10
0.0
 20
0.0
 30
0.0
210
0.0
220
0.0
230
1.0
  2
EARTH
 70
0
 71
0
 91
1
 92
3
 72
0
 73
1
 93
4
 10
7600.0
 20
-2300.0
 10
8600.0
 20
-2300.0
 10
8600.0
 20
-2700.0
 10
7600.0
 20
-2700.0
 97
0
 75
1
 76
1
 52
45.0
 41
12.0
 77
0
 78
6
 53
45.0
 43
0.0
 44
0.0
 45
0.0
 46
107.7630734528
 79
2
 49
76.2
 49
-76.2
 53
45.0
 43
-20.2055762724
 44
20.2055762724
 45
0.0
 46
107.7630734528
 79
2
 49
76.2
 49
-76.2
 53
45.0
 43
-40.4111525448
 44
40.4111525448
 45
0.0
 46
107.7630734528
 79
2
 49
76.2
 49
-76.2
 53
135.0
 43
-40.4111525448
 44
53.8815367264
 45
-107.7630734528
 46
0.0
 79
2
 49
76.2
 49
-76.2
 53
135.0
 43
-20.2055762724
 44
74.0871129988
 45
-107.7630734528
 46
0.0
 79
2
 49
76.2
 49
-76.2
 53
135.0
 43
0.0
 44
94.2926892712
 45
-107.7630734528
 46
0.0
 79
2
 49
76.2
 49
-76.2
 98
0
  0
LINE
  5
1DB
330
17
100
AcDbEntity
  8
PAVE-OUTLINE
100
AcDbLine
 10
7600.0
 20
-2300.0
 30
0.0
 11
8600.0
 21
-2300.0
 31
0.0
  0
LWPOLYLINE
  5
1DC
330
17
100
AcDbEntity
  8
PAVE-BREAK
100
AcDbPolyline
 90
6
 70
0
 10
7600.0
 20
-2270.0
 10
7600.0
 20
-2470.0
 10
7580.0
 20
-2485.0
 10
7620.0
 20
-2515.0
 10
7600.0
 20
-2530.0
 10
7600.0
 20
-2730.0
  0
LWPOLYLINE
  5
1DD
330
17
100
AcDbEntity
  8
PAVE-BREAK
100
AcDbPolyline
 90
6
 70
0
 10
8600.0
 20
-2270.0
 10
8600.0
 20
-2470.0
 10
8580.0
 20
-2485.0
 10
8620.0
 20
-2515.0
 10
8600.0
 20
-2530.0
 10
8600.0
 20
-2730.0
  0
LWPOLYLINE
  5
1DE
330
17
100
AcDbEntity
  8
PAVE-ANNO
100
AcDbPolyline
 90
3
 70
1
 10
7750.0
 20
-2300.0
 10
7720.0
 20
-2258.0
 10
7780.0
 20
-2258.0
  0
LINE
  5
1DF
330
17
100
AcDbEntity
  8
PAVE-ANNO
100
AcDbLine
 10
7690.0
 20
-2258.0
 30
0.0
 11
8150.0
 21
-2258.0
 31
0.0
  0
TEXT
  5
1E0
330
17
100
AcDbEntity
  8
PAVE-ANNO
100
AcDbText
 10
7795.0
 20
-2248.0
 30
0.0
 40
25.0
  1
FINISHED SURFACE LEVEL
  7
PAVE-TEXT
 11
7795.0
 21
-2248.0
 31
0.0
100
AcDbText
 73
1
  0
CIRCLE
  5
1E1
330
17
100
AcDbEntity
  8
PAVE-ANNO
100
AcDbCircle
 10
8150.0
 20
-2500.0
 30
0.0
 40
6.0
  0
HATCH
  5
1E2
330
17
100
AcDbEntity
  8
PAVE-ANNO
100
AcDbHatch
 10
0.0
 20
0.0
 30
0.0
210
0.0
220
0.0
230
1.0
  2
SOLID
 70
1
 71
0
 91
1
 92
1
 93
1
 72
2
 10
8150.0
 20
-2500.0
 40
6
 50
0
 51
360
 73
1
 97
0
 75
0
 76
1
 98
0
  0
LWPOLYLINE
  5
1E3
330
17
100
AcDbEntity
  8
PAVE-ANNO
100
AcDbPolyline
 90
3
 70
0
 10
8150.0
 20
-2500.0
 10
8720.0
 20
-2500.0
 10
8885.0
 20
-2500.0
  0
TEXT
  5
1E4
330
17
100
AcDbEntity
  8
PAVE-ANNO
100
AcDbText
 10
8900.0
 20
-2500.0
 30
0.0
 40
25.0
  1
LANDSCAPING, REFER LANDSCAPE SPECIFICATION
  7
PAVE-TEXT
 11
8900.0
 21
-2500.0
 31
0.0
100
AcDbText
 73
2
  0
LWPOLYLINE
  5
1E5
330
17
100
AcDbEntity
  8
PAVE-TITLE
100
AcDbPolyline
 90
4
 70
1
 10
7600.0
 20
-3150.0
 10
7838.0
 20
-3150.0
 10
7838.0
 20
-3304.0
 10
7600.0
 20
-3304.0
  0
TEXT
  5
1E6
330
17
100
AcDbEntity
  8
PAVE-TITLE
100
AcDbText
 10
7719.0
 20
-3227.0
 30
0.0
 40
70.0
  1
L1
  7
PAVE-TEXT
 72
1
 11
7719.0
 21
-3227.0
 31
0.0
100
AcDbText
 73
2
  0
TEXT
  5
1E7
330
17
100
AcDbEntity
  8
PAVE-TITLE
100
AcDbText
 10
7898.0
 20
-3203.9
 30
0.0
 40
50.0
  1
LANDSCAPING
  7
PAVE-TEXT
 11
7898.0
 21
-3203.9
 31
0.0
100
AcDbText
 73
2
  0
LINE
  5
1E8
330
17
100
AcDbEntity
  8
PAVE-TITLE
100
AcDbLine
 10
7898.0
 20
-3245.48
 30
0.0
 11
10100.0
 21
-3245.48
 31
0.0
  0
TEXT
  5
1E9
330
17
100
AcDbEntity
  8
PAVE-TITLE
100
AcDbText
 10
7898.0
 20
-3276.28
 30
0.0
 40
30.0
  1
SCALE 1:10
  7
PAVE-TEXT
 11
7898.0
 21
-3276.28
 31
0.0
100
AcDbText
 73
2
  0
TEXT
  5
1EA
330
17
100
AcDbEntity
  8
PAVE-TITLE
100
AcDbText
 10
11200.0
 20
-300.0
 30
0.0
 40
50.0
  1
PAVEMENT SCHEDULE
  7
PAVE-TEXT
 11
11200.0
 21
-300.0
 31
0.0
100
AcDbText
 73
1
  0
LWPOLYLINE
  5
1EB
330
17
100
AcDbEntity
  8
PAVE-TITLE
100
AcDbPolyline
 90
4
 70
1
 10
11200.0
 20
-450.0
 10
11438.0
 20
-450.0
 10
11438.0
 20
-604.0
 10
11200.0
 20
-604.0
  0
TEXT
  5
1EC
330
17
100
AcDbEntity
  8
PAVE-TITLE
100
AcDbText
 10
11319.0
 20
-527.0
 30
0.0
 40
70.0
  1
P1-A
  7
PAVE-TEXT
 72
1
 11
11319.0
 21
-527.0
 31
0.0
100
AcDbText
 73
2
  0
TEXT
  5
1ED
330
17
100
AcDbEntity
  8
PAVE-TITLE
100
AcDbText
 10
11498.0
 20
-485.0
 30
0.0
 40
40.0
  1
PAVER TYPE 1 - ON STRUCTURE
  7
PAVE-TEXT
 11
11498.0
 21
-485.0
 31
0.0
100
AcDbText
 73
2
  0
TEXT
  5
1EE
330
17
100
AcDbEntity
  8
PAVE-TITLE
100
AcDbText
 10
11498.0
 20
-540.0
 30
0.0
 40
25.0
  1
60mm THICK PAVER, REFER LANDSCAPE SPECIFICATION, ON
  7
PAVE-TEXT
 11
11498.0
 21
-540.0
 31
0.0
100
AcDbText
 73
2
  0
TEXT
  5
1EF
330
17
100
AcDbEntity
  8
PAVE-TITLE
100
AcDbText
 10
11498.0
 20
-580.0
 30
0.0
 40
25.0
  1
30mm THICK MORTAR BED, ON
  7
PAVE-TEXT
 11
11498.0
 21
-580.0
 31
0.0
100
AcDbText
 73
2
  0
TEXT
  5
1F0
330
17
100
AcDbEntity
  8
PAVE-TITLE
100
AcDbText
 10
11498.0
 20
-620.0
 30
0.0
 40
25.0
  1
VARIABLE SCREED, REFER DRAWING CV-TTW-1030, ON
  7
PAVE-TEXT
 11
11498.0
 21
-620.0
 31
0.0
100
AcDbText
 73
2
  0
TEXT
  5
1F1
330
17
100
AcDbEntity
  8
PAVE-TITLE
100
AcDbText
 10
11498.0
 20
-660.0
 30
0.0
 40
25.0
  1
EXISTING CONCRETE SLAB (LEVELS TBC ON SITE).
  7
PAVE-TEXT
 11
11498.0
 21
-660.0
 31
0.0
100
AcDbText
 73
2
  0
LWPOLYLINE
  5
1F2
330
17
100
AcDbEntity
  8
PAVE-TITLE
100
AcDbPolyline
 90
4
 70
1
 10
11200.0
 20
-820.0
 10
11438.0
 20
-820.0
 10
11438.0
 20
-974.0
 10
11200.0
 20
-974.0
  0
TEXT
  5
1F3
330
17
100
AcDbEntity
  8
PAVE-TITLE
100
AcDbText
 10
11319.0
 20
-897.0
 30
0.0
 40
70.0
  1
P1-B
  7
PAVE-TEXT
 72
1
 11
11319.0
 21
-897.0
 31
0.0
100
AcDbText
 73
2
  0
TEXT
  5
1F4
330
17
100
AcDbEntity
  8
PAVE-TITLE
100
AcDbText
 10
11498.0
 20
-855.0
 30
0.0
 40
40.0
  1
PAVER TYPE 1 - ON GRADE
  7
PAVE-TEXT
 11
11498.0
 21
-855.0
 31
0.0
100
AcDbText
 73
2
  0
TEXT
  5
1F5
330
17
100
AcDbEntity
  8
PAVE-TITLE
100
AcDbText
 10
11498.0
 20
-910.0
 30
0.0
 40
25.0
  1
60mm THICK PAVER, REFER LANDSCAPE SPECIFICATION, ON
  7
PAVE-TEXT
 11
11498.0
 21
-910.0
 31
0.0
100
AcDbText
 73
2
  0
TEXT
  5
1F6
330
17
100
AcDbEntity
  8
PAVE-TITLE
100
AcDbText
 10
11498.0
 20
-950.0
 30
0.0
 40
25.0
  1
30mm THICK MORTAR BED, ON
  7
PAVE-TEXT
 11
11498.0
 21
-950.0
 31
0.0
100
AcDbText
 73
2
  0
TEXT
  5
1F7
330
17
100
AcDbEntity
  8
PAVE-TITLE
100
AcDbText
 10
11498.0
 20
-990.0
 30
0.0
 40
25.0
  1
150mm THICK DGB20 ROAD BASE, ON
  7
PAVE-TEXT
 11
11498.0
 21
-990.0
 31
0.0
100
AcDbText
 73
2
  0
TEXT
  5
1F8
330
17
100
AcDbEntity
  8
PAVE-TITLE
100
AcDbText
 10
11498.0
 20
-1030.0
 30
0.0
 40
25.0
  1
150mm THICK DGB20 ROAD BASE, ON
  7
PAVE-TEXT
 11
11498.0
 21
-1030.0
 31
0.0
100
AcDbText
 73
2
  0
TEXT
  5
1F9
330
17
100
AcDbEntity
  8
PAVE-TITLE
100
AcDbText
 10
11498.0
 20
-1070.0
 30
0.0
 40
25.0
  1
COMPACTED SUB-GRADE TO 98% MDD STANDARD.
  7
PAVE-TEXT
 11
11498.0
 21
-1070.0
 31
0.0
100
AcDbText
 73
2
  0
LWPOLYLINE
  5
1FA
330
17
100
AcDbEntity
  8
PAVE-TITLE
100
AcDbPolyline
 90
4
 70
1
 10
11200.0
 20
-1230.0
 10
11438.0
 20
-1230.0
 10
11438.0
 20
-1384.0
 10
11200.0
 20
-1384.0
  0
TEXT
  5
1FB
330
17
100
AcDbEntity
  8
PAVE-TITLE
100
AcDbText
 10
11319.0
 20
-1307.0
 30
0.0
 40
70.0
  1
P1-C
  7
PAVE-TEXT
 72
1
 11
11319.0
 21
-1307.0
 31
0.0
100
AcDbText
 73
2
  0
TEXT
  5
1FC
330
17
100
AcDbEntity
  8
PAVE-TITLE
100
AcDbText
 10
11498.0
 20
-1265.0
 30
0.0
 40
40.0
  1
PAVER TYPE 1 - OVER VOID
  7
PAVE-TEXT
 11
11498.0
 21
-1265.0
 31
0.0
100
AcDbText
 73
2
  0
TEXT
  5
1FD
330
17
100
AcDbEntity
  8
PAVE-TITLE
100
AcDbText
 10
11498.0
 20
-1320.0
 30
0.0
 40
25.0
  1
60mm THICK PAVER, REFER LANDSCAPE SPECIFICATION, ON
  7
PAVE-TEXT
 11
11498.0
 21
-1320.0
 31
0.0
100
AcDbText
 73
2
  0
TEXT
  5
1FE
330
17
100
AcDbEntity
  8
PAVE-TITLE
100
AcDbText
 10
11498.0
 20
-1360.0
 30
0.0
 40
25.0
  1
30mm THICK MORTAR BED, ON
  7
PAVE-TEXT
 11
11498.0
 21
-1360.0
 31
0.0
100
AcDbText
 73
2
  0
TEXT
  5
1FF
330
17
100
AcDbEntity
  8
PAVE-TITLE
100
AcDbText
 10
11498.0
 20
-1400.0
 30
0.0
 40
25.0
  1
NEW SLAB TO STRUCTURAL ENGINEER'S SPECIFICATION.
  7
PAVE-TEXT
 11
11498.0
 21
-1400.0
 31
0.0
100
AcDbText
 73
2
  0
LWPOLYLINE
  5
200
330
17
100
AcDbEntity
  8
PAVE-TITLE
100
AcDbPolyline
 90
4
 70
1
 10
11200.0
 20
-1560.0
 10
11438.0
 20
-1560.0
 10
11438.0
 20
-1714.0
 10
11200.0
 20
-1714.0
  0
TEXT
  5
201
330
17
100
AcDbEntity
  8
PAVE-TITLE
100
AcDbText
 10
11319.0
 20
-1637.0
 30
0.0
 40
70.0
  1
P2-A
  7
PAVE-TEXT
 72
1
 11
11319.0
 21
-1637.0
 31
0.0
100
AcDbText
 73
2
  0
TEXT
  5
202
330
17
100
AcDbEntity
  8
PAVE-TITLE
100
AcDbText
 10
11498.0
 20
-1595.0
 30
0.0
 40
40.0
  1
PAVER TYPE 2 - ON STRUCTURE
  7
PAVE-TEXT
 11
11498.0
 21
-1595.0
 31
0.0
100
AcDbText
 73
2
  0
TEXT
  5
203
330
17
100
AcDbEntity
  8
PAVE-TITLE
100
AcDbText
 10
11498.0
 20
-1650.0
 30
0.0
 40
25.0
  1
60mm THICK PAVER, REFER LANDSCAPE SPECIFICATION, ON
  7
PAVE-TEXT
 11
11498.0
 21
-1650.0
 31
0.0
100
AcDbText
 73
2
  0
TEXT
  5
204
330
17
100
AcDbEntity
  8
PAVE-TITLE
100
AcDbText
 10
11498.0
 20
-1690.0
 30
0.0
 40
25.0
  1
30mm THICK MORTAR BED, ON
  7
PAVE-TEXT
 11
11498.0
 21
-1690.0
 31
0.0
100
AcDbText
 73
2
  0
TEXT
  5
205
330
17
100
AcDbEntity
  8
PAVE-TITLE
100
AcDbText
 10
11498.0
 20
-1730.0
 30
0.0
 40
25.0
  1
VARIABLE SCREED, REFER DRAWING CV-TTW-1030, ON
  7
PAVE-TEXT
 11
11498.0
 21
-1730.0
 31
0.0
100
AcDbText
 73
2
  0
TEXT
  5
206
330
17
100
AcDbEntity
  8
PAVE-TITLE
100
AcDbText
 10
11498.0
 20
-1770.0
 30
0.0
 40
25.0
  1
EXISTING CONCRETE SLAB (LEVELS TBC ON SITE).
  7
PAVE-TEXT
 11
11498.0
 21
-1770.0
 31
0.0
100
AcDbText
 73
2
  0
LWPOLYLINE
  5
207
330
17
100
AcDbEntity
  8
PAVE-TITLE
100
AcDbPolyline
 90
4
 70
1
 10
11200.0
 20
-1930.0
 10
11438.0
 20
-1930.0
 10
11438.0
 20
-2084.0
 10
11200.0
 20
-2084.0
  0
TEXT
  5
208
330
17
100
AcDbEntity
  8
PAVE-TITLE
100
AcDbText
 10
11319.0
 20
-2007.0
 30
0.0
 40
70.0
  1
P2-B
  7
PAVE-TEXT
 72
1
 11
11319.0
 21
-2007.0
 31
0.0
100
AcDbText
 73
2
  0
TEXT
  5
209
330
17
100
AcDbEntity
  8
PAVE-TITLE
100
AcDbText
 10
11498.0
 20
-1965.0
 30
0.0
 40
40.0
  1
PAVER TYPE 2 - ON GRADE
  7
PAVE-TEXT
 11
11498.0
 21
-1965.0
 31
0.0
100
AcDbText
 73
2
  0
TEXT
  5
20A
330
17
100
AcDbEntity
  8
PAVE-TITLE
100
AcDbText
 10
11498.0
 20
-2020.0
 30
0.0
 40
25.0
  1
60mm THICK PAVER, REFER LANDSCAPE SPECIFICATION, ON
  7
PAVE-TEXT
 11
11498.0
 21
-2020.0
 31
0.0
100
AcDbText
 73
2
  0
TEXT
  5
20B
330
17
100
AcDbEntity
  8
PAVE-TITLE
100
AcDbText
 10
11498.0
 20
-2060.0
 30
0.0
 40
25.0
  1
30mm THICK MORTAR BED, ON
  7
PAVE-TEXT
 11
11498.0
 21
-2060.0
 31
0.0
100
AcDbText
 73
2
  0
TEXT
  5
20C
330
17
100
AcDbEntity
  8
PAVE-TITLE
100
AcDbText
 10
11498.0
 20
-2100.0
 30
0.0
 40
25.0
  1
150mm THICK DGB20 ROAD BASE, ON
  7
PAVE-TEXT
 11
11498.0
 21
-2100.0
 31
0.0
100
AcDbText
 73
2
  0
TEXT
  5
20D
330
17
100
AcDbEntity
  8
PAVE-TITLE
100
AcDbText
 10
11498.0
 20
-2140.0
 30
0.0
 40
25.0
  1
150mm THICK DGB20 ROAD BASE, ON
  7
PAVE-TEXT
 11
11498.0
 21
-2140.0
 31
0.0
100
AcDbText
 73
2
  0
TEXT
  5
20E
330
17
100
AcDbEntity
  8
PAVE-TITLE
100
AcDbText
 10
11498.0
 20
-2180.0
 30
0.0
 40
25.0
  1
COMPACTED SUB-GRADE TO 98% MDD STANDARD.
  7
PAVE-TEXT
 11
11498.0
 21
-2180.0
 31
0.0
100
AcDbText
 73
2
  0
LWPOLYLINE
  5
20F
330
17
100
AcDbEntity
  8
PAVE-TITLE
100
AcDbPolyline
 90
4
 70
1
 10
11200.0
 20
-2340.0
 10
11438.0
 20
-2340.0
 10
11438.0
 20
-2494.0
 10
11200.0
 20
-2494.0
  0
TEXT
  5
210
330
17
100
AcDbEntity
  8
PAVE-TITLE
100
AcDbText
 10
11319.0
 20
-2417.0
 30
0.0
 40
70.0
  1
L1
  7
PAVE-TEXT
 72
1
 11
11319.0
 21
-2417.0
 31
0.0
100
AcDbText
 73
2
  0
TEXT
  5
211
330
17
100
AcDbEntity
  8
PAVE-TITLE
100
AcDbText
 10
11498.0
 20
-2375.0
 30
0.0
 40
40.0
  1
LANDSCAPING
  7
PAVE-TEXT
 11
11498.0
 21
-2375.0
 31
0.0
100
AcDbText
 73
2
  0
TEXT
  5
212
330
17
100
AcDbEntity
  8
PAVE-TITLE
100
AcDbText
 10
11498.0
 20
-2430.0
 30
0.0
 40
25.0
  1
LANDSCAPING, REFER LANDSCAPE SPECIFICATION.
  7
PAVE-TEXT
 11
11498.0
 21
-2430.0
 31
0.0
100
AcDbText
 73
2
  0
ENDSEC
  0
SECTION
  2
OBJECTS
  0
DICTIONARY
  5
A
330
0
100
AcDbDictionary
281
1
  3
ACAD_COLOR
350
B
  3
ACAD_GROUP
350
C
  3
ACAD_LAYOUT
350
D
  3
ACAD_MATERIAL
350
E
  3
ACAD_MLEADERSTYLE
350
F
  3
ACAD_MLINESTYLE
350
10
  3
ACAD_PLOTSETTINGS
350
11
  3
ACAD_PLOTSTYLENAME
350
12
  3
ACAD_SCALELIST
350
14
  3
ACAD_TABLESTYLE
350
15
  3
ACAD_VISUALSTYLE
350
16
  3
EZDXF_META
350
2D
  0
DICTIONARY
  5
B
330
A
100
AcDbDictionary
281
1
  0
DICTIONARY
  5
C
330
A
100
AcDbDictionary
281
1
  0
DICTIONARY
  5
D
330
A
100
AcDbDictionary
281
1
  3
Model
350
1A
  3
Layout1
350
1E
  0
DICTIONARY
  5
E
330
A
100
AcDbDictionary
281
1
  3
ByBlock
350
1F
  3
ByLayer
350
20
  3
Global
350
21
  0
DICTIONARY
  5
F
330
A
100
AcDbDictionary
281
1
  3
Standard
350
2C
  0
DICTIONARY
  5
10
330
A
100
AcDbDictionary
281
1
  3
Standard
350
22
  0
DICTIONARY
  5
11
330
A
100
AcDbDictionary
281
1
  0
ACDBDICTIONARYWDFLT
  5
12
330
A
100
AcDbDictionary
281
1
  3
Normal
350
13
100
AcDbDictionaryWithDefault
340
13
  0
ACDBPLACEHOLDER
  5
13
330
12
  0
DICTIONARY
  5
14
330
A
100
AcDbDictionary
281
1
  0
DICTIONARY
  5
15
330
A
100
AcDbDictionary
281
1
  0
DICTIONARY
  5
16
330
A
100
AcDbDictionary
281
1
  3
2dWireframe
350
5A
  3
Basic
350
5B
  3
Brighten
350
5C
  3
ColorChange
350
5D
  3
Conceptual
350
5E
  3
Dim
350
5F
  3
EdgeColorOff
350
60
  3
Facepattern
350
61
  3
Flat
350
62
  3
FlatWithEdges
350
63
  3
Gouraud
350
64
  3
GouraudWithEdges
350
65
  3
Hidden
350
66
  3
JitterOff
350
67
  3
Linepattern
350
68
  3
Modeling
350
69
  3
OverhangOff
350
6A
  3
Realistic
350
6B
  3
Shaded
350
6C
  3
Shaded with edges
350
6D
  3
Shades of Gray
350
6E
  3
Sketchy
350
6F
  3
Thicken
350
70
  3
Wireframe
350
71
  3
X-Ray
350
72
  0
LAYOUT
  5
1A
330
D
100
AcDbPlotSettings
  1

  4
A3
  6

 40
7.5
 41
20.0
 42
7.5
 43
20.0
 44
420.0
 45
297.0
 46
0.0
 47
0.0
 48
0.0
 49
0.0
140
0.0
141
0.0
142
1.0
143
1.0
 70
1024
 72
1
 73
0
 74
5
  7

 75
16
 76
0
 77
2
 78
300
147
1.0
148
0.0
149
0.0
100
AcDbLayout
  1
Model
 70
1
 71
0
 10
0.0
 20
0.0
 11
420.0
 21
297.0
 12
0.0
 22
0.0
 32
0.0
 14
1e+20
 24
1e+20
 34
1e+20
 15
-1e+20
 25
-1e+20
 35
-1e+20
146
0.0
 13
0.0
 23
0.0
 33
0.0
 16
1.0
 26
0.0
 36
0.0
 17
0.0
 27
1.0
 37
0.0
 76
1
330
17
  0
LAYOUT
  5
1E
330
D
100
AcDbPlotSettings
  1

  4
A3
  6

 40
7.5
 41
20.0
 42
7.5
 43
20.0
 44
420.0
 45
297.0
 46
0.0
 47
0.0
 48
0.0
 49
0.0
140
0.0
141
0.0
142
1.0
143
1.0
 70
0
 72
1
 73
0
 74
5
  7

 75
16
 76
0
 77
2
 78
300
147
1.0
148
0.0
149
0.0
100
AcDbLayout
  1
Layout1
 70
1
 71
1
 10
0.0
 20
0.0
 11
420.0
 21
297.0
 12
0.0
 22
0.0
 32
0.0
 14
1e+20
 24
1e+20
 34
1e+20
 15
-1e+20
 25
-1e+20
 35
-1e+20
146
0.0
 13
0.0
 23
0.0
 33
0.0
 16
1.0
 26
0.0
 36
0.0
 17
0.0
 27
1.0
 37
0.0
 76
1
330
1B
  0
MATERIAL
  5
1F
102
{ACAD_REACTORS
330
E
102
}
330
E
100
AcDbMaterial
  1
ByBlock
  2

 70
0
 40
1.0
 71
1
 41
1.0
 91
-1023410177
 42
1.0
 72
1
  3

 73
1
 74
1
 75
1
 44
0.5
 73
0
 45
1.0
 46
1.0
 77
1
  4

 78
1
 79
1
170
1
 48
1.0
171
1
  6

172
1
173
1
174
1
140
1.0
141
1.0
175
1
  7

176
1
177
1
178
1
143
1.0
179
1
  8

270
1
271
1
272
1
145
1.0
146
1.0
273
1
  9

274
1
275
1
276
1
 42
1.0
 72
1
  3

 73
1
 74
1
 75
1
 94
63
  0
MATERIAL
  5
20
102
{ACAD_REACTORS
330
E
102
}
330
E
100
AcDbMaterial
  1
ByLayer
  2

 70
0
 40
1.0
 71
1
 41
1.0
 91
-1023410177
 42
1.0
 72
1
  3

 73
1
 74
1
 75
1
 44
0.5
 73
0
 45
1.0
 46
1.0
 77
1
  4

 78
1
 79
1
170
1
 48
1.0
171
1
  6

172
1
173
1
174
1
140
1.0
141
1.0
175
1
  7

176
1
177
1
178
1
143
1.0
179
1
  8

270
1
271
1
272
1
145
1.0
146
1.0
273
1
  9

274
1
275
1
276
1
 42
1.0
 72
1
  3

 73
1
 74
1
 75
1
 94
63
  0
MATERIAL
  5
21
102
{ACAD_REACTORS
330
E
102
}
330
E
100
AcDbMaterial
  1
Global
  2

 70
0
 40
1.0
 71
1
 41
1.0
 91
-1023410177
 42
1.0
 72
1
  3

 73
1
 74
1
 75
1
 44
0.5
 73
0
 45
1.0
 46
1.0
 77
1
  4

 78
1
 79
1
170
1
 48
1.0
171
1
  6

172
1
173
1
174
1
140
1.0
141
1.0
175
1
  7

176
1
177
1
178
1
143
1.0
179
1
  8

270
1
271
1
272
1
145
1.0
146
1.0
273
1
  9

274
1
275
1
276
1
 42
1.0
 72
1
  3

 73
1
 74
1
 75
1
 94
63
  0
MLINESTYLE
  5
22
102
{ACAD_REACTORS
330
10
102
}
330
10
100
AcDbMlineStyle
  2
Standard
 70
0
  3

 62
256
 51
90.0
 52
90.0
 71
2
 49
0.5
 62
256
  6
BYLAYER
 49
-0.5
 62
256
  6
BYLAYER
  0
MLEADERSTYLE
  5
2C
102
{ACAD_REACTORS
330
F
102
}
330
F
100
AcDbMLeaderStyle
179
2
170
2
171
1
172
0
 90
2
 40
0.0
 41
0.0
173
1
 91
-1056964608
 92
-2
290
1
 42
2.0
291
1
 43
8.0
  3
Standard
 44
4.0
300

342
29
174
1
175
1
176
0
178
1
 93
-1056964608
 45
4.0
292
0
297
0
 46
4.0
 94
-1056964608
 47
1.0
 49
1.0
140
1.0
294
1
141
0.0
177
0
142
1.0
295
0
296
0
143
3.75
271
0
272
9
273
9
  0
DICTIONARY
  5
2D
330
A
100
AcDbDictionary
280
1
281
1
  3
CREATED_BY_EZDXF
350
2E
  3
WRITTEN_BY_EZDXF
350
215
  0
DICTIONARYVAR
  5
2E
330
2D
100
DictionaryVariables
280
0
  1
1.4.4 @ 2026-10-02T05:05:24.136418+00:00
  0
VISUALSTYLE
  5
5A
102
{ACAD_REACTORS
330
16
102
}
330
16
100
AcDbVisualStyle
  2
2dWireframe
 70
4
177
3
291
0
 70
58
 90
2
176
1
 90
2
176
1
 90
0
176
1
 90
0
176
1
 40
0.6
176
1
 40
30.0
176
1
 62
7
420
16777215
176
1
 90
1
176
1
 90
4
176
1
 62
7
176
1
 62
257
176
1
 90
1
176
1
 90
1
176
1
 40
1.0
176
1
 90
8
176
1
 62
7
176
1
 40
1.0
176
1
 90
1
176
1
 90
6
176
1
 90
2
176
1
 62
7
176
1
 90
5
176
1
 90
0
176
1
 90
0
176
1
290
0
176
1
 90
1
176
1
 40
0.0
176
1
 90
0
176
1
290
1
176
1
290
1
176
1
290
0
176
1
290
0
176
1
290
0
176
1
290
0
176
1
290
0
176
1
290
0
176
1
290
0
176
1
 90
50
176
1
 40
0.0
176
1
 40
1.0
176
1
 90
0
176
1
 62
18
420
0
176
1
 90
50
176
1
 90
3
176
1
 62
5
420
255
176
1
290
0
176
1
 90
50
176
1
 90
50
176
1
 90
50
176
1
290
0
176
1
 90
50
176
1
 62
256
176
0
 40
1.0
176
0
 90
2
176
1
  1
strokes_ogs.tif
176
1
290
0
176
1
 40
1.0
176
1
 40
1.0
176
1
  0
VISUALSTYLE
  5
5B
102
{ACAD_REACTORS
330
16
102
}
330
16
100
AcDbVisualStyle
  2
Basic
 70
7
177
3
291
1
 70
58
 90
2
176
1
 90
2
176
1
 90
0
176
1
 90
1
176
1
 40
0.6
176
1
 40
30.0
176
1
 62
7
420
16777215
176
1
 90
1
176
1
 90
4
176
1
 62
7
176
1
 62
257
176
1
 90
1
176
1
 90
1
176
1
 40
1.0
176
1
 90
8
176
1
 62
7
176
1
 40
1.0
176
1
 90
1
176
1
 90
6
176
1
 90
2
176
1
 62
7
176
1
 90
5
176
1
 90
0
176
1
 90
0
176
1
290
0
176
1
 90
1
176
1
 40
0.0
176
1
 90
0
176
1
290
0
176
1
290
1
176
1
290
1
176
1
290
0
176
1
290
0
176
1
290
0
176
1
290
0
176
1
290
0
176
1
290
0
176
1
 90
50
176
1
 40
0.0
176
1
 40
1.0
176
1
 90
0
176
1
 62
18
420
0
176
1
 90
50
176
1
 90
3
176
1
 62
5
420
255
176
1
290
0
176
1
 90
50
176
1
 90
50
176
1
 90
50
176
1
290
0
176
1
 90
50
176
1
 62
256
176
0
 40
1.0
176
0
 90
2
176
1
  1
strokes_ogs.tif
176
1
290
0
176
1
 40
1.0
176
1
 40
1.0
176
1
  0
VISUALSTYLE
  5
5C
102
{ACAD_REACTORS
330
16
102
}
330
16
100
AcDbVisualStyle
  2
Brighten
 70
12
177
3
291
1
 70
58
 90
2
176
1
 90
2
176
1
 90
0
176
1
 90
2
176
1
 40
0.6
176
1
 40
30.0
176
1
 62
7
420
16777215
176
1
 90
1
176
1
 90
4
176
1
 62
7
176
1
 62
257
176
1
 90
1
176
1
 90
1
176
1
 40
1.0
176
1
 90
8
176
1
 62
7
176
1
 40
1.0
176
1
 90
1
176
1
 90
6
176
1
 90
2
176
1
 62
7
176
1
 90
5
176
1
 90
0
176
1
 90
0
176
1
290
0
176
1
 90
1
176
1
 40
0.0
176
1
 90
0
176
1
290
0
176
1
290
1
176
1
290
1
176
1
290
0
176
1
290
0
176
1
290
0
176
1
290
0
176
1
290
0
176
1
290
0
176
1
 90
50
176
1
 40
0.0
176
1
 40
1.0
176
1
 90
0
176
1
 62
18
420
0
176
1
 90
50
176
1
 90
3
176
1
 62
5
420
255
176
1
290
0
176
1
 90
50
176
1
 90
50
176
1
 90
50
176
1
290
0
176
1
 90
50
176
1
 62
256
176
0
 40
1.0
176
0
 90
2
176
1
  1
strokes_ogs.tif
176
1
290
0
176
1
 40
1.0
176
1
 40
1.0
176
1
  0
VISUALSTYLE
  5
5D
102
{ACAD_REACTORS
330
16
102
}
330
16
100
AcDbVisualStyle
  2
ColorChange
 70
16
177
3
291
1
 70
58
 90
2
176
1
 90
2
176
1
 90
0
176
1
 90
2
176
1
 40
0.6
176
1
 40
30.0
176
1
 62
7
420
16777215
176
1
 90
1
176
1
 90
4
176
1
 62
7
176
1
 62
257
176
1
 90
1
176
1
 90
1
176
1
 40
1.0
176
1
 90
8
176
1
 62
7
176
1
 40
1.0
176
1
 90
1
176
1
 90
6
176
1
 90
2
176
1
 62
7
176
1
 90
5
176
1
 90
0
176
1
 90
0
176
1
290
0
176
1
 90
1
176
1
 40
0.0
176
1
 90
0
176
1
290
0
176
1
290
1
176
1
290
1
176
1
290
0
176
1
290
0
176
1
290
0
176
1
290
0
176
1
290
0
176
1
290
0
176
1
 90
50
176
1
 40
0.0
176
1
 40
1.0
176
1
 90
0
176
1
 62
18
420
0
176
1
 90
50
176
1
 90
3
176
1
 62
5
420
255
176
1
290
0
176
1
 90
50
176
1
 90
50
176
1
 90
50
176
1
290
0
176
1
 90
50
176
1
 62
256
176
0
 40
1.0
176
0
 90
2
176
1
  1
strokes_ogs.tif
176
1
290
0
176
1
 40
1.0
176
1
 40
1.0
176
1
  0
VISUALSTYLE
  5
5E
102
{ACAD_REACTORS
330
16
102
}
330
16
100
AcDbVisualStyle
  2
Conceptual
 70
9
177
3
291
0
 70
58
 90
2
176
1
 90
2
176
1
 90
0
176
1
 90
3
176
1
 40
0.6
176
1
 40
30.0
176
1
 62
7
420
16777215
176
1
 90
1
176
1
 90
4
176
1
 62
7
176
1
 62
257
176
1
 90
1
176
1
 90
1
176
1
 40
1.0
176
1
 90
8
176
1
 62
7
176
1
 40
1.0
176
1
 90
1
176
1
 90
6
176
1
 90
2
176
1
 62
7
176
1
 90
5
176
1
 90
0
176
1
 90
0
176
1
290
0
176
1
 90
1
176
1
 40
0.0
176
1
 90
0
176
1
290
0
176
1
290
1
176
1
290
1
176
1
290
0
176
1
290
0
176
1
290
0
176
1
290
0
176
1
290
0
176
1
290
0
176
1
 90
50
176
1
 40
0.0
176
1
 40
1.0
176
1
 90
0
176
1
 62
18
420
0
176
1
 90
50
176
1
 90
3
176
1
 62
5
420
255
176
1
290
0
176
1
 90
50
176
1
 90
50
176
1
 90
50
176
1
290
0
176
1
 90
50
176
1
 62
256
176
0
 40
1.0
176
0
 90
2
176
1
  1
strokes_ogs.tif
176
1
290
0
176
1
 40
1.0
176
1
 40
1.0
176
1
  0
VISUALSTYLE
  5
5F
102
{ACAD_REACTORS
330
16
102
}
330
16
100
AcDbVisualStyle
  2
Dim
 70
11
177
3
291
1
 70
58
 90
2
176
1
 90
2
176
1
 90
0
176
1
 90
2
176
1
 40
0.6
176
1
 40
30.0
176
1
 62
7
420
16777215
176
1
 90
1
176
1
 90
4
176
1
 62
7
176
1
 62
257
176
1
 90
1
176
1
 90
1
176
1
 40
1.0
176
1
 90
8
176
1
 62
7
176
1
 40
1.0
176
1
 90
1
176
1
 90
6
176
1
 90
2
176
1
 62
7
176
1
 90
5
176
1
 90
0
176
1
 90
0
176
1
290
0
176
1
 90
1
176
1
 40
0.0
176
1
 90
0
176
1
290
0
176
1
290
1
176
1
290
1
176
1
290
0
176
1
290
0
176
1
290
0
176
1
290
0
176
1
290
0
176
1
290
0
176
1
 90
50
176
1
 40
0.0
176
1
 40
1.0
176
1
 90
0
176
1
 62
18
420
0
176
1
 90
50
176
1
 90
3
176
1
 62
5
420
255
176
1
290
0
176
1
 90
50
176
1
 90
50
176
1
 90
50
176
1
290
0
176
1
 90
50
176
1
 62
256
176
0
 40
1.0
176
0
 90
2
176
1
  1
strokes_ogs.tif
176
1
290
0
176
1
 40
1.0
176
1
 40
1.0
176
1
  0
VISUALSTYLE
  5
60
102
{ACAD_REACTORS
330
16
102
}
330
16
100
AcDbVisualStyle
  2
EdgeColorOff
 70
22
177
3
291
1
 70
58
 90
2
176
1
 90
2
176
1
 90
0
176
1
 90
2
176
1
 40
0.6
176
1
 40
30.0
176
1
 62
7
420
16777215
176
1
 90
1
176
1
 90
4
176
1
 62
7
176
1
 62
257
176
1
 90
1
176
1
 90
1
176
1
 40
1.0
176
1
 90
8
176
1
 62
7
176
1
 40
1.0
176
1
 90
1
176
1
 90
6
176
1
 90
2
176
1
 62
7
176
1
 90
5
176
1
 90
0
176
1
 90
0
176
1
290
0
176
1
 90
1
176
1
 40
0.0
176
1
 90
0
176
1
290
0
176
1
290
1
176
1
290
1
176
1
290
0
176
1
290
0
176
1
290
0
176
1
290
0
176
1
290
0
176
1
290
0
176
1
 90
50
176
1
 40
0.0
176
1
 40
1.0
176
1
 90
0
176
1
 62
18
420
0
176
1
 90
50
176
1
 90
3
176
1
 62
5
420
255
176
1
290
0
176
1
 90
50
176
1
 90
50
176
1
 90
50
176
1
290
0
176
1
 90
50
176
1
 62
256
176
0
 40
1.0
176
0
 90
2
176
1
  1
strokes_ogs.tif
176
1
290
0
176
1
 40
1.0
176
1
 40
1.0
176
1
  0
VISUALSTYLE
  5
61
102
{ACAD_REACTORS
330
16
102
}
330
16
100
AcDbVisualStyle
  2
Facepattern
 70
15
177
3
291
1
 70
58
 90
2
176
1
 90
2
176
1
 90
0
176
1
 90
2
176
1
 40
0.6
176
1
 40
30.0
176
1
 62
7
420
16777215
176
1
 90
1
176
1
 90
4
176
1
 62
7
176
1
 62
257
176
1
 90
1
176
1
 90
1
176
1
 40
1.0
176
1
 90
8
176
1
 62
7
176
1
 40
1.0
176
1
 90
1
176
1
 90
6
176
1
 90
2
176
1
 62
7
176
1
 90
5
176
1
 90
0
176
1
 90
0
176
1
290
0
176
1
 90
1
176
1
 40
0.0
176
1
 90
0
176
1
290
0
176
1
290
1
176
1
290
1
176
1
290
0
176
1
290
0
176
1
290
0
176
1
290
0
176
1
290
0
176
1
290
0
176
1
 90
50
176
1
 40
0.0
176
1
 40
1.0
176
1
 90
0
176
1
 62
18
420
0
176
1
 90
50
176
1
 90
3
176
1
 62
5
420
255
176
1
290
0
176
1
 90
50
176
1
 90
50
176
1
 90
50
176
1
290
0
176
1
 90
50
176
1
 62
256
176
0
 40
1.0
176
0
 90
2
176
1
  1
strokes_ogs.tif
176
1
290
0
176
1
 40
1.0
176
1
 40
1.0
176
1
  0
VISUALSTYLE
  5
62
102
{ACAD_REACTORS
330
16
102
}
330
16
100
AcDbVisualStyle
  2
Flat
 70
0
177
3
291
1
 70
58
 90
2
176
1
 90
2
176
1
 90
0
176
1
 90
2
176
1
 40
0.6
176
1
 40
30.0
176
1
 62
7
420
16777215
176
1
 90
1
176
1
 90
4
176
1
 62
7
176
1
 62
257
176
1
 90
1
176
1
 90
1
176
1
 40
1.0
176
1
 90
8
176
1
 62
7
176
1
 40
1.0
176
1
 90
1
176
1
 90
6
176
1
 90
2
176
1
 62
7
176
1
 90
5
176
1
 90
0
176
1
 90
0
176
1
290
0
176
1
 90
1
176
1
 40
0.0
176
1
 90
0
176
1
290
0
176
1
290
1
176
1
290
1
176
1
290
0
176
1
290
0
176
1
290
0
176
1
290
0
176
1
290
0
176
1
290
0
176
1
 90
50
176
1
 40
0.0
176
1
 40
1.0
176
1
 90
0
176
1
 62
18
420
0
176
1
 90
50
176
1
 90
3
176
1
 62
5
420
255
176
1
290
0
176
1
 90
50
176
1
 90
50
176
1
 90
50
176
1
290
0
176
1
 90
50
176
1
 62
256
176
0
 40
1.0
176
0
 90
2
176
1
  1
strokes_ogs.tif
176
1
290
0
176
1
 40
1.0
176
1
 40
1.0
176
1
  0
VISUALSTYLE
  5
63
102
{ACAD_REACTORS
330
16
102
}
330
16
100
AcDbVisualStyle
  2
FlatWithEdges
 70
1
177
3
291
1
 70
58
 90
2
176
1
 90
2
176
1
 90
0
176
1
 90
2
176
1
 40
0.6
176
1
 40
30.0
176
1
 62
7
420
16777215
176
1
 90
1
176
1
 90
4
176
1
 62
7
176
1
 62
257
176
1
 90
1
176
1
 90
1
176
1
 40
1.0
176
1
 90
8
176
1
 62
7
176
1
 40
1.0
176
1
 90
1
176
1
 90
6
176
1
 90
2
176
1
 62
7
176
1
 90
5
176
1
 90
0
176
1
 90
0
176
1
290
0
176
1
 90
1
176
1
 40
0.0
176
1
 90
0
176
1
290
0
176
1
290
1
176
1
290
1
176
1
290
0
176
1
290
0
176
1
290
0
176
1
290
0
176
1
290
0
176
1
290
0
176
1
 90
50
176
1
 40
0.0
176
1
 40
1.0
176
1
 90
0
176
1
 62
18
420
0
176
1
 90
50
176
1
 90
3
176
1
 62
5
420
255
176
1
290
0
176
1
 90
50
176
1
 90
50
176
1
 90
50
176
1
290
0
176
1
 90
50
176
1
 62
256
176
0
 40
1.0
176
0
 90
2
176
1
  1
strokes_ogs.tif
176
1
290
0
176
1
 40
1.0
176
1
 40
1.0
176
1
  0
VISUALSTYLE
  5
64
102
{ACAD_REACTORS
330
16
102
}
330
16
100
AcDbVisualStyle
  2
Gouraud
 70
2
177
3
291
1
 70
58
 90
2
176
1
 90
2
176
1
 90
0
176
1
 90
2
176
1
 40
0.6
176
1
 40
30.0
176
1
 62
7
420
16777215
176
1
 90
1
176
1
 90
4
176
1
 62
7
176
1
 62
257
176
1
 90
1
176
1
 90
1
176
1
 40
1.0
176
1
 90
8
176
1
 62
7
176
1
 40
1.0
176
1
 90
1
176
1
 90
6
176
1
 90
2
176
1
 62
7
176
1
 90
5
176
1
 90
0
176
1
 90
0
176
1
290
0
176
1
 90
1
176
1
 40
0.0
176
1
 90
0
176
1
290
0
176
1
290
1
176
1
290
1
176
1
290
0
176
1
290
0
176
1
290
0
176
1
290
0
176
1
290
0
176
1
290
0
176
1
 90
50
176
1
 40
0.0
176
1
 40
1.0
176
1
 90
0
176
1
 62
18
420
0
176
1
 90
50
176
1
 90
3
176
1
 62
5
420
255
176
1
290
0
176
1
 90
50
176
1
 90
50
176
1
 90
50
176
1
290
0
176
1
 90
50
176
1
 62
256
176
0
 40
1.0
176
0
 90
2
176
1
  1
strokes_ogs.tif
176
1
290
0
176
1
 40
1.0
176
1
 40
1.0
176
1
  0
VISUALSTYLE
  5
65
102
{ACAD_REACTORS
330
16
102
}
330
16
100
AcDbVisualStyle
  2
GouraudWithEdges
 70
3
177
3
291
1
 70
58
 90
2
176
1
 90
2
176
1
 90
0
176
1
 90
2
176
1
 40
0.6
176
1
 40
30.0
176
1
 62
7
420
16777215
176
1
 90
1
176
1
 90
4
176
1
 62
7
176
1
 62
257
176
1
 90
1
176
1
 90
1
176
1
 40
1.0
176
1
 90
8
176
1
 62
7
176
1
 40
1.0
176
1
 90
1
176
1
 90
6
176
1
 90
2
176
1
 62
7
176
1
 90
5
176
1
 90
0
176
1
 90
0
176
1
290
0
176
1
 90
1
176
1
 40
0.0
176
1
 90
0
176
1
290
0
176
1
290
1
176
1
290
1
176
1
290
0
176
1
290
0
176
1
290
0
176
1
290
0
176
1
290
0
176
1
290
0
176
1
 90
50
176
1
 40
0.0
176
1
 40
1.0
176
1
 90
0
176
1
 62
18
420
0
176
1
 90
50
176
1
 90
3
176
1
 62
5
420
255
176
1
290
0
176
1
 90
50
176
1
 90
50
176
1
 90
50
176
1
290
0
176
1
 90
50
176
1
 62
256
176
0
 40
1.0
176
0
 90
2
176
1
  1
strokes_ogs.tif
176
1
290
0
176
1
 40
1.0
176
1
 40
1.0
176
1
  0
VISUALSTYLE
  5
66
102
{ACAD_REACTORS
330
16
102
}
330
16
100
AcDbVisualStyle
  2
Hidden
 70
6
177
3
291
0
 70
58
 90
2
176
1
 90
2
176
1
 90
0
176
1
 90
1
176
1
 40
0.6
176
1
 40
30.0
176
1
 62
7
420
16777215
176
1
 90
1
176
1
 90
4
176
1
 62
7
176
1
 62
257
176
1
 90
1
176
1
 90
1
176
1
 40
1.0
176
1
 90
8
176
1
 62
7
176
1
 40
1.0
176
1
 90
1
176
1
 90
6
176
1
 90
2
176
1
 62
7
176
1
 90
5
176
1
 90
0
176
1
 90
0
176
1
290
0
176
1
 90
1
176
1
 40
0.0
176
1
 90
0
176
1
290
0
176
1
290
1
176
1
290
1
176
1
290
0
176
1
290
0
176
1
290
0
176
1
290
0
176
1
290
0
176
1
290
0
176
1
 90
50
176
1
 40
0.0
176
1
 40
1.0
176
1
 90
0
176
1
 62
18
420
0
176
1
 90
50
176
1
 90
3
176
1
 62
5
420
255
176
1
290
0
176
1
 90
50
176
1
 90
50
176
1
 90
50
176
1
290
0
176
1
 90
50
176
1
 62
256
176
0
 40
1.0
176
0
 90
2
176
1
  1
strokes_ogs.tif
176
1
290
0
176
1
 40
1.0
176
1
 40
1.0
176
1
  0
VISUALSTYLE
  5
67
102
{ACAD_REACTORS
330
16
102
}
330
16
100
AcDbVisualStyle
  2
JitterOff
 70
20
177
3
291
1
 70
58
 90
2
176
1
 90
2
176
1
 90
0
176
1
 90
2
176
1
 40
0.6
176
1
 40
30.0
176
1
 62
7
420
16777215
176
1
 90
1
176
1
 90
4
176
1
 62
7
176
1
 62
257
176
1
 90
1
176
1
 90
1
176
1
 40
1.0
176
1
 90
8
176
1
 62
7
176
1
 40
1.0
176
1
 90
1
176
1
 90
6
176
1
 90
2
176
1
 62
7
176
1
 90
5
176
1
 90
0
176
1
 90
0
176
1
290
0
176
1
 90
1
176
1
 40
0.0
176
1
 90
0
176
1
290
0
176
1
290
1
176
1
290
1
176
1
290
0
176
1
290
0
176
1
290
0
176
1
290
0
176
1
290
0
176
1
290
0
176
1
 90
50
176
1
 40
0.0
176
1
 40
1.0
176
1
 90
0
176
1
 62
18
420
0
176
1
 90
50
176
1
 90
3
176
1
 62
5
420
255
176
1
290
0
176
1
 90
50
176
1
 90
50
176
1
 90
50
176
1
290
0
176
1
 90
50
176
1
 62
256
176
0
 40
1.0
176
0
 90
2
176
1
  1
strokes_ogs.tif
176
1
290
0
176
1
 40
1.0
176
1
 40
1.0
176
1
  0
VISUALSTYLE
  5
68
102
{ACAD_REACTORS
330
16
102
}
330
16
100
AcDbVisualStyle
  2
Linepattern
 70
14
177
3
291
1
 70
58
 90
2
176
1
 90
2
176
1
 90
0
176
1
 90
2
176
1
 40
0.6
176
1
 40
30.0
176
1
 62
7
420
16777215
176
1
 90
1
176
1
 90
4
176
1
 62
7
176
1
 62
257
176
1
 90
1
176
1
 90
1
176
1
 40
1.0
176
1
 90
8
176
1
 62
7
176
1
 40
1.0
176
1
 90
1
176
1
 90
6
176
1
 90
2
176
1
 62
7
176
1
 90
5
176
1
 90
0
176
1
 90
0
176
1
290
0
176
1
 90
1
176
1
 40
0.0
176
1
 90
0
176
1
290
0
176
1
290
1
176
1
290
1
176
1
290
0
176
1
290
0
176
1
290
0
176
1
290
0
176
1
290
0
176
1
290
0
176
1
 90
50
176
1
 40
0.0
176
1
 40
1.0
176
1
 90
0
176
1
 62
18
420
0
176
1
 90
50
176
1
 90
3
176
1
 62
5
420
255
176
1
290
0
176
1
 90
50
176
1
 90
50
176
1
 90
50
176
1
290
0
176
1
 90
50
176
1
 62
256
176
0
 40
1.0
176
0
 90
2
176
1
  1
strokes_ogs.tif
176
1
290
0
176
1
 40
1.0
176
1
 40
1.0
176
1
  0
VISUALSTYLE
  5
69
102
{ACAD_REACTORS
330
16
102
}
330
16
100
AcDbVisualStyle
  2
Modeling
 70
10
177
3
291
0
 70
58
 90
2
176
1
 90
2
176
1
 90
0
176
1
 90
2
176
1
 40
0.6
176
1
 40
30.0
176
1
 62
7
420
16777215
176
1
 90
1
176
1
 90
4
176
1
 62
7
176
1
 62
257
176
1
 90
1
176
1
 90
1
176
1
 40
1.0
176
1
 90
8
176
1
 62
7
176
1
 40
1.0
176
1
 90
1
176
1
 90
6
176
1
 90
2
176
1
 62
7
176
1
 90
5
176
1
 90
0
176
1
 90
0
176
1
290
0
176
1
 90
1
176
1
 40
0.0
176
1
 90
0
176
1
290
0
176
1
290
1
176
1
290
1
176
1
290
0
176
1
290
0
176
1
290
0
176
1
290
0
176
1
290
0
176
1
290
0
176
1
 90
50
176
1
 40
0.0
176
1
 40
1.0
176
1
 90
0
176
1
 62
18
420
0
176
1
 90
50
176
1
 90
3
176
1
 62
5
420
255
176
1
290
0
176
1
 90
50
176
1
 90
50
176
1
 90
50
176
1
290
0
176
1
 90
50
176
1
 62
256
176
0
 40
1.0
176
0
 90
2
176
1
  1
strokes_ogs.tif
176
1
290
0
176
1
 40
1.0
176
1
 40
1.0
176
1
  0
VISUALSTYLE
  5
6A
102
{ACAD_REACTORS
330
16
102
}
330
16
100
AcDbVisualStyle
  2
OverhangOff
 70
21
177
3
291
1
 70
58
 90
2
176
1
 90
2
176
1
 90
0
176
1
 90
2
176
1
 40
0.6
176
1
 40
30.0
176
1
 62
7
420
16777215
176
1
 90
1
176
1
 90
4
176
1
 62
7
176
1
 62
257
176
1
 90
1
176
1
 90
1
176
1
 40
1.0
176
1
 90
8
176
1
 62
7
176
1
 40
1.0
176
1
 90
1
176
1
 90
6
176
1
 90
2
176
1
 62
7
176
1
 90
5
176
1
 90
0
176
1
 90
0
176
1
290
0
176
1
 90
1
176
1
 40
0.0
176
1
 90
0
176
1
290
0
176
1
290
1
176
1
290
1
176
1
290
0
176
1
290
0
176
1
290
0
176
1
290
0
176
1
290
0
176
1
290
0
176
1
 90
50
176
1
 40
0.0
176
1
 40
1.0
176
1
 90
0
176
1
 62
18
420
0
176
1
 90
50
176
1
 90
3
176
1
 62
5
420
255
176
1
290
0
176
1
 90
50
176
1
 90
50
176
1
 90
50
176
1
290
0
176
1
 90
50
176
1
 62
256
176
0
 40
1.0
176
0
 90
2
176
1
  1
strokes_ogs.tif
176
1
290
0
176
1
 40
1.0
176
1
 40
1.0
176
1
  0
VISUALSTYLE
  5
6B
102
{ACAD_REACTORS
330
16
102
}
330
16
100
AcDbVisualStyle
  2
Realistic
 70
8
177
3
291
0
 70
58
 90
2
176
1
 90
2
176
1
 90
0
176
1
 90
2
176
1
 40
0.6
176
1
 40
30.0
176
1
 62
7
420
16777215
176
1
 90
1
176
1
 90
4
176
1
 62
7
176
1
 62
257
176
1
 90
1
176
1
 90
1
176
1
 40
1.0
176
1
 90
8
176
1
 62
7
176
1
 40
1.0
176
1
 90
1
176
1
 90
6
176
1
 90
2
176
1
 62
7
176
1
 90
5
176
1
 90
0
176
1
 90
0
176
1
290
0
176
1
 90
1
176
1
 40
0.0
176
1
 90
0
176
1
290
0
176
1
290
1
176
1
290
1
176
1
290
0
176
1
290
0
176
1
290
0
176
1
290
0
176
1
290
0
176
1
290
0
176
1
 90
50
176
1
 40
0.0
176
1
 40
1.0
176
1
 90
0
176
1
 62
18
420
0
176
1
 90
50
176
1
 90
3
176
1
 62
5
420
255
176
1
290
0
176
1
 90
50
176
1
 90
50
176
1
 90
50
176
1
290
0
176
1
 90
50
176
1
 62
256
176
0
 40
1.0
176
0
 90
2
176
1
  1
strokes_ogs.tif
176
1
290
0
176
1
 40
1.0
176
1
 40
1.0
176
1
  0
VISUALSTYLE
  5
6C
102
{ACAD_REACTORS
330
16
102
}
330
16
100
AcDbVisualStyle
  2
Shaded
 70
27
177
3
291
0
 70
58
 90
2
176
1
 90
2
176
1
 90
0
176
1
 90
2
176
1
 40
0.6
176
1
 40
30.0
176
1
 62
7
420
16777215
176
1
 90
1
176
1
 90
4
176
1
 62
7
176
1
 62
257
176
1
 90
1
176
1
 90
1
176
1
 40
1.0
176
1
 90
8
176
1
 62
7
176
1
 40
1.0
176
1
 90
1
176
1
 90
6
176
1
 90
2
176
1
 62
7
176
1
 90
5
176
1
 90
0
176
1
 90
0
176
1
290
0
176
1
 90
1
176
1
 40
0.0
176
1
 90
0
176
1
290
0
176
1
290
1
176
1
290
1
176
1
290
0
176
1
290
0
176
1
290
0
176
1
290
0
176
1
290
0
176
1
290
0
176
1
 90
50
176
1
 40
0.0
176
1
 40
1.0
176
1
 90
0
176
1
 62
18
420
0
176
1
 90
50
176
1
 90
3
176
1
 62
5
420
255
176
1
290
0
176
1
 90
50
176
1
 90
50
176
1
 90
50
176
1
290
0
176
1
 90
50
176
1
 62
256
176
0
 40
1.0
176
0
 90
2
176
1
  1
strokes_ogs.tif
176
1
290
0
176
1
 40
1.0
176
1
 40
1.0
176
1
  0
VISUALSTYLE
  5
6D
102
{ACAD_REACTORS
330
16
102
}
330
16
100
AcDbVisualStyle
  2
Shaded with edges
 70
26
177
3
291
0
 70
58
 90
2
176
1
 90
2
176
1
 90
0
176
1
 90
2
176
1
 40
0.6
176
1
 40
30.0
176
1
 62
7
420
16777215
176
1
 90
1
176
1
 90
4
176
1
 62
7
176
1
 62
257
176
1
 90
1
176
1
 90
1
176
1
 40
1.0
176
1
 90
8
176
1
 62
7
176
1
 40
1.0
176
1
 90
1
176
1
 90
6
176
1
 90
2
176
1
 62
7
176
1
 90
5
176
1
 90
0
176
1
 90
0
176
1
290
0
176
1
 90
1
176
1
 40
0.0
176
1
 90
0
176
1
290
0
176
1
290
1
176
1
290
1
176
1
290
0
176
1
290
0
176
1
290
0
176
1
290
0
176
1
290
0
176
1
290
0
176
1
 90
50
176
1
 40
0.0
176
1
 40
1.0
176
1
 90
0
176
1
 62
18
420
0
176
1
 90
50
176
1
 90
3
176
1
 62
5
420
255
176
1
290
0
176
1
 90
50
176
1
 90
50
176
1
 90
50
176
1
290
0
176
1
 90
50
176
1
 62
256
176
0
 40
1.0
176
0
 90
2
176
1
  1
strokes_ogs.tif
176
1
290
0
176
1
 40
1.0
176
1
 40
1.0
176
1
  0
VISUALSTYLE
  5
6E
102
{ACAD_REACTORS
330
16
102
}
330
16
100
AcDbVisualStyle
  2
Shades of Gray
 70
23
177
3
291
0
 70
58
 90
2
176
1
 90
2
176
1
 90
0
176
1
 90
2
176
1
 40
0.6
176
1
 40
30.0
176
1
 62
7
420
16777215
176
1
 90
1
176
1
 90
4
176
1
 62
7
176
1
 62
257
176
1
 90
1
176
1
 90
1
176
1
 40
1.0
176
1
 90
8
176
1
 62
7
176
1
 40
1.0
176
1
 90
1
176
1
 90
6
176
1
 90
2
176
1
 62
7
176
1
 90
5
176
1
 90
0
176
1
 90
0
176
1
290
0
176
1
 90
1
176
1
 40
0.0
176
1
 90
0
176
1
290
0
176
1
290
1
176
1
290
1
176
1
290
0
176
1
290
0
176
1
290
0
176
1
290
0
176
1
290
0
176
1
290
0
176
1
 90
50
176
1
 40
0.0
176
1
 40
1.0
176
1
 90
0
176
1
 62
18
420
0
176
1
 90
50
176
1
 90
3
176
1
 62
5
420
255
176
1
290
0
176
1
 90
50
176
1
 90
50
176
1
 90
50
176
1
290
0
176
1
 90
50
176
1
 62
256
176
0
 40
1.0
176
0
 90
2
176
1
  1
strokes_ogs.tif
176
1
290
0
176
1
 40
1.0
176
1
 40
1.0
176
1
  0
VISUALSTYLE
  5
6F
102
{ACAD_REACTORS
330
16
102
}
330
16
100
AcDbVisualStyle
  2
Sketchy
 70
24
177
3
291
0
 70
58
 90
2
176
1
 90
2
176
1
 90
0
176
1
 90
1
176
1
 40
0.6
176
1
 40
30.0
176
1
 62
7
420
16777215
176
1
 90
1
176
1
 90
4
176
1
 62
7
176
1
 62
257
176
1
 90
1
176
1
 90
1
176
1
 40
1.0
176
1
 90
8
176
1
 62
7
176
1
 40
1.0
176
1
 90
1
176
1
 90
6
176
1
 90
2
176
1
 62
7
176
1
 90
5
176
1
 90
0
176
1
 90
0
176
1
290
0
176
1
 90
1
176
1
 40
0.0
176
1
 90
0
176
1
290
0
176
1
290
1
176
1
290
1
176
1
290
0
176
1
290
0
176
1
290
0
176
1
290
0
176
1
290
0
176
1
290
0
176
1
 90
50
176
1
 40
0.0
176
1
 40
1.0
176
1
 90
0
176
1
 62
18
420
0
176
1
 90
50
176
1
 90
3
176
1
 62
5
420
255
176
1
290
0
176
1
 90
50
176
1
 90
50
176
1
 90
50
176
1
290
0
176
1
 90
50
176
1
 62
256
176
0
 40
1.0
176
0
 90
2
176
1
  1
strokes_ogs.tif
176
1
290
0
176
1
 40
1.0
176
1
 40
1.0
176
1
  0
VISUALSTYLE
  5
70
102
{ACAD_REACTORS
330
16
102
}
330
16
100
AcDbVisualStyle
  2
Thicken
 70
13
177
3
291
1
 70
58
 90
2
176
1
 90
2
176
1
 90
0
176
1
 90
2
176
1
 40
0.6
176
1
 40
30.0
176
1
 62
7
420
16777215
176
1
 90
1
176
1
 90
4
176
1
 62
7
176
1
 62
257
176
1
 90
1
176
1
 90
1
176
1
 40
1.0
176
1
 90
8
176
1
 62
7
176
1
 40
1.0
176
1
 90
1
176
1
 90
6
176
1
 90
2
176
1
 62
7
176
1
 90
5
176
1
 90
0
176
1
 90
0
176
1
290
0
176
1
 90
1
176
1
 40
0.0
176
1
 90
0
176
1
290
0
176
1
290
1
176
1
290
1
176
1
290
0
176
1
290
0
176
1
290
0
176
1
290
0
176
1
290
0
176
1
290
0
176
1
 90
50
176
1
 40
0.0
176
1
 40
1.0
176
1
 90
0
176
1
 62
18
420
0
176
1
 90
50
176
1
 90
3
176
1
 62
5
420
255
176
1
290
0
176
1
 90
50
176
1
 90
50
176
1
 90
50
176
1
290
0
176
1
 90
50
176
1
 62
256
176
0
 40
1.0
176
0
 90
2
176
1
  1
strokes_ogs.tif
176
1
290
0
176
1
 40
1.0
176
1
 40
1.0
176
1
  0
VISUALSTYLE
  5
71
102
{ACAD_REACTORS
330
16
102
}
330
16
100
AcDbVisualStyle
  2
Wireframe
 70
5
177
3
291
0
 70
58
 90
2
176
1
 90
2
176
1
 90
0
176
1
 90
0
176
1
 40
0.6
176
1
 40
30.0
176
1
 62
7
420
16777215
176
1
 90
1
176
1
 90
4
176
1
 62
7
176
1
 62
257
176
1
 90
1
176
1
 90
1
176
1
 40
1.0
176
1
 90
8
176
1
 62
7
176
1
 40
1.0
176
1
 90
1
176
1
 90
6
176
1
 90
2
176
1
 62
7
176
1
 90
5
176
1
 90
0
176
1
 90
0
176
1
290
0
176
1
 90
1
176
1
 40
0.0
176
1
 90
0
176
1
290
0
176
1
290
1
176
1
290
1
176
1
290
0
176
1
290
0
176
1
290
0
176
1
290
0
176
1
290
0
176
1
290
0
176
1
 90
50
176
1
 40
0.0
176
1
 40
1.0
176
1
 90
0
176
1
 62
18
420
0
176
1
 90
50
176
1
 90
3
176
1
 62
5
420
255
176
1
290
0
176
1
 90
50
176
1
 90
50
176
1
 90
50
176
1
290
0
176
1
 90
50
176
1
 62
256
176
0
 40
1.0
176
0
 90
2
176
1
  1
strokes_ogs.tif
176
1
290
0
176
1
 40
1.0
176
1
 40
1.0
176
1
  0
VISUALSTYLE
  5
72
102
{ACAD_REACTORS
330
16
102
}
330
16
100
AcDbVisualStyle
  2
X-Ray
 70
25
177
3
291
0
 70
58
 90
2
176
1
 90
2
176
1
 90
0
176
1
 90
2
176
1
 40
0.5
176
1
 40
30.0
176
1
 62
7
420
16777215
176
1
 90
1
176
1
 90
4
176
1
 62
7
176
1
 62
257
176
1
 90
1
176
1
 90
1
176
1
 40
1.0
176
1
 90
8
176
1
 62
7
176
1
 40
1.0
176
1
 90
1
176
1
 90
6
176
1
 90
2
176
1
 62
7
176
1
 90
5
176
1
 90
0
176
1
 90
0
176
1
290
0
176
1
 90
1
176
1
 40
0.0
176
1
 90
0
176
1
290
0
176
1
290
1
176
1
290
1
176
1
290
0
176
1
290
0
176
1
290
0
176
1
290
0
176
1
290
0
176
1
290
0
176
1
 90
50
176
1
 40
0.0
176
1
 40
1.0
176
1
 90
0
176
1
 62
18
420
0
176
1
 90
50
176
1
 90
3
176
1
 62
5
420
255
176
1
290
0
176
1
 90
50
176
1
 90
50
176
1
 90
50
176
1
290
0
176
1
 90
50
176
1
 62
256
176
0
 40
1.0
176
0
 90
2
176
1
  1
strokes_ogs.tif
176
1
290
0
176
1
 40
1.0
176
1
 40
1.0
176
1
  0
DICTIONARYVAR
  5
215
330
2D
100
DictionaryVariables
280
0
  1
1.4.4 @ 2026-10-02T05:05:24.152896+00:00
  0
ENDSEC
  0
EOF
